<?xml version="1.0" encoding="UTF-8" standalone="no"?>
<!DOCTYPE svg PUBLIC "-//W3C//DTD SVG 1.1//EN" "http://www.w3.org/Graphics/SVG/1.1/DTD/svg11.dtd">
<svg version="1.1" xmlns="http://www.w3.org/2000/svg" xmlns:xlink="http://www.w3.org/1999/xlink" preserveAspectRatio="xMidYMid meet" viewBox="0 0 640 640" width="640" height="640"><defs><path d="M206.3 464.05C206.3 464.05 376.22 497.33 452.75 490.84C529.28 484.35 580.94 432.64 579.84 366.46C578.74 300.29 517.94 290.09 475.28 221.08C432.61 152.08 431.71 127.4 358.4 92.16C285.09 56.92 185.24 100.61 142.59 186.66C99.94 272.72 115.6 339.89 115.6 339.89C133.74 364.72 130.53 420.39 206.3 464.05Z" id="a3CeR0tSIu"></path><path d="M206.3 464.05C206.3 464.05 376.22 497.33 452.75 490.84C529.28 484.35 580.94 432.64 579.84 366.46C578.74 300.29 517.94 290.09 475.28 221.08C432.61 152.08 431.71 127.4 358.4 92.16C285.09 56.92 185.24 100.61 142.59 186.66C99.94 272.72 115.6 339.89 115.6 339.89C133.74 364.72 130.53 420.39 206.3 464.05Z" id="c26771Sqo"></path><path d="M494.95 557.8C494.95 565.73 406.02 572.16 296.32 572.16C186.62 572.16 97.69 565.73 97.69 557.8C97.69 549.87 186.62 543.44 296.32 543.44C406.02 543.44 494.95 549.87 494.95 557.8Z" id="a1XNMg4wY"></path><path d="M494.95 557.8C494.95 565.73 406.02 572.16 296.32 572.16C186.62 572.16 97.69 565.73 97.69 557.8C97.69 549.87 186.62 543.44 296.32 543.44C406.02 543.44 494.95 549.87 494.95 557.8Z" id="cOhYuSHLA"></path><path d="M547.9 98.53C556.44 98.53 560.7 102.8 560.7 111.33C560.7 348.15 560.7 479.71 560.7 506.02C560.7 514.56 556.44 518.82 547.9 518.82C368.44 518.82 268.73 518.82 248.79 518.82C240.26 518.82 235.99 514.56 235.99 506.02C235.99 269.21 235.99 137.65 235.99 111.33C235.99 102.8 240.26 98.53 248.79 98.53C428.26 98.53 527.96 98.53 547.9 98.53Z" id="a6n6fjR7v"></path><path d="M372.26 213.41L372.26 214.72L370.96 214.72" id="eXNsFsp1N"></path><path d="M368.37 214.72L292.22 214.72" id="a2kSo4ixE"></path><path d="M290.93 214.72L289.61 214.72L289.61 213.41" id="bkw4Nt3w8"></path><path d="M289.61 210.89L289.61 151.67" id="c2hTF6hqp"></path><path d="M289.61 150.4L289.61 149.09L290.93 149.09" id="a452kTBfWP"></path><path d="M293.5 149.09L369.66 149.09" id="a1Qx4Gp9vz"></path><path d="M370.96 149.09L372.26 149.09L372.26 150.4" id="a2vZg5eRvr"></path><path d="M372.26 152.92L372.26 212.16" id="a1ZoR5lLX7"></path><path d="M358.89 159.99C358.89 159.99 358.89 159.99 358.89 159.99C358.89 186.79 358.89 201.68 358.89 204.66C358.89 204.66 358.89 204.66 358.89 204.66C325.13 204.66 306.38 204.66 302.63 204.66C302.63 204.66 302.63 204.66 302.63 204.66C302.63 177.86 302.63 162.97 302.63 159.99C302.63 159.99 302.63 159.99 302.63 159.99C336.38 159.99 355.14 159.99 358.89 159.99Z" id="c44O0wAJBr"></path><path d="M299.51 156.26L280.2 141.38" id="g2pWIrnH2"></path><path d="M362.93 206.45L379.48 220.79" id="f3YNDnUYyI"></path><path d="M279.44 146.28L278.87 139.94L285.49 139.94" id="ao54VZdjA"></path><path d="M379.93 214.8L381.07 221.71L373.02 222" id="g2N1XdFlA"></path><path d="M428.74 383.18C428.74 383.18 428.74 383.18 428.74 383.18C428.74 389.09 428.74 392.38 428.74 393.04C428.74 393.04 428.74 393.04 428.74 393.04C412.35 393.04 403.24 393.04 401.42 393.04C401.42 393.04 401.42 393.04 401.42 393.04C401.42 387.12 401.42 383.84 401.42 383.18C401.42 383.18 401.42 383.18 401.42 383.18C417.81 383.18 426.91 383.18 428.74 383.18Z" id="b81cvJOGI"></path><path d="M422.32 378L422.32 398.21L439.83 388.1L439.83 388.1L422.32 378Z" id="afp9ndwYA"></path><path d="M381.72 315.2C387.64 315.2 390.59 318.16 390.59 324.07C390.59 407.77 390.59 454.27 390.59 463.56C390.59 469.48 387.64 472.44 381.72 472.44C344.03 472.44 323.09 472.44 318.9 472.44C312.99 472.44 310.03 469.48 310.03 463.56C310.03 379.87 310.03 333.37 310.03 324.07C310.03 318.16 312.99 315.2 318.9 315.2C356.59 315.2 377.53 315.2 381.72 315.2Z" id="d79E8GI6wl"></path><path d="M387.02 325.88C387.02 325.88 387.02 325.88 387.02 325.88C387.02 408.2 387.02 453.94 387.02 463.09C387.02 463.09 387.02 463.09 387.02 463.09C342.98 463.09 318.51 463.09 313.61 463.09C313.61 463.09 313.61 463.09 313.61 463.09C313.61 380.76 313.61 335.02 313.61 325.88C313.61 325.88 313.61 325.88 313.61 325.88C357.66 325.88 382.13 325.88 387.02 325.88Z" id="cU4cUrBoF"></path><path d="M373.41 494.08C376.78 481.02 378.65 473.77 379.02 472.32C379.63 469.98 379.94 467.56 379.94 465.14C379.94 462.53 379.94 441.65 379.94 439.04C380.04 438.7 380.1 438.35 380.11 438C379.95 435.58 377.87 433.74 375.45 433.88C374.19 433.86 372.97 434.32 372.04 435.16C371.69 432.91 369.7 431.28 367.42 431.39C365.88 431.35 364.42 432.07 363.49 433.31C363.11 431.09 361.14 429.5 358.89 429.59C357.34 429.57 355.87 430.29 354.94 431.53C354.94 428.07 354.94 411.49 354.37 410.14C352.68 405.77 344.13 407.77 345.65 412.4C345.65 416.24 345.65 446.91 345.65 450.74C345.65 448.05 343.65 444.51 342.82 441.89C341.99 439.28 341.54 436.77 339.96 434.6C337.32 430.84 332.67 432.91 332.94 436.83C333.16 440.27 335.65 442.98 337 446.11C339.48 451.87 338 457.89 340.34 463.68C342.28 467.35 344.45 470.9 346.82 474.3C348.09 476.54 349.1 478.92 349.82 481.4C349.68 482.24 348.95 486.47 347.65 494.08" id="b2MxSf3aTu"></path><path d="M350.37 396.93L350.37 404.1" id="a71HFd54R"></path><path d="M358.44 410.8L364.26 410.8" id="bhZxLNitv"></path><path d="M334.26 410.8L340.08 410.8" id="d2plXu2XT8"></path><path d="M342.32 403.2L344.56 406.77" id="c1IKzK0XV0"></path><path d="M355.75 407.22L358.89 403.2" id="d1l5SOSFVM"></path><path d="M384.41 379.02C384.41 379.02 384.41 379.02 384.41 379.02C384.41 384.13 384.41 386.97 384.41 387.53C384.41 387.53 384.41 387.53 384.41 387.53C343.58 387.53 320.89 387.53 316.35 387.53C316.35 387.53 316.35 387.53 316.35 387.53C316.35 382.43 316.35 379.59 316.35 379.02C316.35 379.02 316.35 379.02 316.35 379.02C357.19 379.02 379.87 379.02 384.41 379.02Z" id="aTpM9eGqT"></path><path d="M351.28 333.35C351.28 333.35 351.28 333.35 351.28 333.35C351.28 356.72 351.28 369.7 351.28 372.3C351.28 372.3 351.28 372.3 351.28 372.3C331.67 372.3 320.77 372.3 318.59 372.3C318.59 372.3 318.59 372.3 318.59 372.3C318.59 348.93 318.59 335.95 318.59 333.35C318.59 333.35 318.59 333.35 318.59 333.35C338.21 333.35 349.1 333.35 351.28 333.35Z" id="aGcN42LDj"></path><path d="M318.59 333.35L351.27 372.3" id="a2r13hVT7l"></path><path d="M317.7 447.53L317.7 392L383.96 392L383.96 447.08" id="a9maJUIBBO"></path><path d="M517.21 315.2C523.12 315.2 526.08 318.16 526.08 324.07C526.08 407.77 526.08 454.27 526.08 463.56C526.08 469.48 523.12 472.44 517.21 472.44C479.52 472.44 458.58 472.44 454.39 472.44C448.47 472.44 445.52 469.48 445.52 463.56C445.52 379.87 445.52 333.37 445.52 324.07C445.52 318.16 448.47 315.2 454.39 315.2C492.08 315.2 513.02 315.2 517.21 315.2Z" id="aa5PvCgVw"></path><path d="M522.51 325.88C522.51 325.88 522.51 325.88 522.51 325.88C522.51 408.2 522.51 453.94 522.51 463.09C522.51 463.09 522.51 463.09 522.51 463.09C478.46 463.09 453.99 463.09 449.1 463.09C449.1 463.09 449.1 463.09 449.1 463.09C449.1 380.76 449.1 335.02 449.1 325.88C449.1 325.88 449.1 325.88 449.1 325.88C493.15 325.88 517.61 325.88 522.51 325.88Z" id="bxC3Ih6Oz"></path><path d="M519.18 332.45C519.18 332.45 519.18 332.45 519.18 332.45C519.18 375.98 519.18 400.16 519.18 404.99C519.18 404.99 519.18 404.99 519.18 404.99C479.42 404.99 457.33 404.99 452.92 404.99C452.92 404.99 452.92 404.99 452.92 404.99C452.92 361.47 452.92 337.29 452.92 332.45C452.92 332.45 452.92 332.45 452.92 332.45C492.67 332.45 514.76 332.45 519.18 332.45Z" id="a3PCIBrlWh"></path><path d="M452.92 411.7L519.18 411.7" id="b2jpHw84kd"></path><path d="M452.92 417.08L519.18 417.08" id="c1E6pQRzXm"></path><path d="M452.92 422.45L519.18 422.45" id="aE4nPkLa3"></path><path d="M452.92 427.83L519.18 427.83" id="c8bcYxNrU"></path><path d="M452.92 433.19L519.18 433.19" id="a5mAIJK7ki"></path><path d="M452.92 438.57L519.18 438.57" id="c3AqoEWWC"></path><path d="M452.92 443.94L519.18 443.94" id="h2OFu7NTvN"></path><path d="M452.92 404.99L519.18 332.45" id="a23FVxapzD"></path><path d="M517.21 134.71C523.12 134.71 526.08 137.66 526.08 143.58C526.08 227.27 526.08 273.77 526.08 283.07C526.08 288.99 523.12 291.94 517.21 291.94C479.52 291.94 458.58 291.94 454.39 291.94C448.47 291.94 445.52 288.99 445.52 283.07C445.52 199.38 445.52 152.88 445.52 143.58C445.52 137.66 448.47 134.71 454.39 134.71C492.08 134.71 513.02 134.71 517.21 134.71Z" id="h5MRgLjmHa"></path><path d="M522.51 145.38C522.51 145.38 522.51 145.38 522.51 145.38C522.51 227.71 522.51 273.45 522.51 282.6C522.51 282.6 522.51 282.6 522.51 282.6C478.46 282.6 453.99 282.6 449.1 282.6C449.1 282.6 449.1 282.6 449.1 282.6C449.1 200.27 449.1 154.53 449.1 145.38C449.1 145.38 449.1 145.38 449.1 145.38C493.15 145.38 517.61 145.38 522.51 145.38Z" id="amStFVCS8"></path><path d="M364.35 310.52L364.35 268.7L423.19 268.7" id="a2X678OXf9"></path><path d="M432.58 268.7L421.27 262.17L421.27 275.23L421.27 275.23L432.58 268.7Z" id="axDZ0N4cG"></path><path d="M484.31 309.41L484.31 277.31" id="b5qalUqS3"></path><path d="M484.31 267.92L477.79 279.23L490.84 279.23L490.84 279.23L484.31 267.92Z" id="b3qVDgXjA"></path><path d="M453.98 486.75L483.66 486.75" id="i1r22JYGxB"></path><path d="M453.98 493.43L483.66 493.43" id="bRbTWwxOQ"></path><path d="M453.98 500.1L483.66 500.1" id="bTEWiHdjL"></path><path d="M382 486.75L411.69 486.75" id="b4yGPLEt9u"></path><path d="M382 493.43L411.69 493.43" id="b35OJctW5u"></path><path d="M382 500.1L411.69 500.1" id="bxRtOnGDF"></path><path d="M373.84 281.95L403.52 281.95" id="a1baUXoAsq"></path><path d="M373.84 288.61L403.52 288.61" id="a17KgRemO7"></path><path d="M373.84 295.3L403.52 295.3" id="i4zSirnilq"></path><path d="M396.1 201.06L425.78 201.06" id="a6dQCIFZaV"></path><path d="M396.1 207.74L425.78 207.74" id="cmwx4V3iC"></path><path d="M396.1 214.41L425.78 214.41" id="b6rIeS88hC"></path><path d="M289.24 224.06L318.92 224.06" id="e14K67paM1"></path><path d="M289.24 230.75L318.92 230.75" id="aqIheasaV"></path><path d="M289.24 237.41L318.92 237.41" id="a1MH94tky7"></path><path d="M143.79 323.39C143.79 323.39 144.22 317.88 137.11 309.53C137.11 309.53 125.31 296.37 125.31 296.37C125.31 296.37 120.47 308.82 126.99 317.05C131.84 322.91 137.17 328.35 142.93 333.31C143.1 331.33 143.62 325.38 143.79 323.39Z" id="a28vyigcOf"></path><path d="M133.18 357.2C133.18 357.2 133.18 351.65 125.43 343.9C117.67 336.14 112.64 331.71 112.64 331.71C112.64 331.71 108.8 344.51 115.96 352.19C121.26 357.64 127 362.64 133.13 367.14C133.14 365.15 133.17 359.19 133.18 357.2Z" id="aJKaRI5wf"></path><path d="M143.06 331.85C143.06 331.85 143.65 326.34 152.18 319.46C152.18 319.46 166.13 308.68 166.13 308.68C166.13 308.68 168.69 321.76 160.66 328.71C154.82 333.58 148.59 337.94 142.01 341.77C142.22 339.78 142.85 333.83 143.06 331.85Z" id="aoQCLwBv"></path><path d="M130.36 372.89C130.36 372.89 131.51 367.48 140.72 361.52C140.72 361.52 155.72 352.27 155.72 352.27C155.72 352.27 156.85 365.54 148.19 371.61C141.86 375.84 135.2 379.53 128.26 382.64C128.68 380.69 129.94 374.84 130.36 372.89Z" id="cfarLHIGv"></path><path d="M132.9 417.43C132.9 417.43 132.9 411.89 140.66 404.13C140.66 404.13 153.46 391.95 153.46 391.95C153.46 391.95 157.3 404.75 150.14 412.43C144.84 417.89 139.1 422.89 132.97 427.39C132.95 425.4 132.92 419.43 132.9 417.43Z" id="aIRkVXCfY"></path><path d="M132.77 428.3C132.77 428.3 133.57 422.82 126.99 414.04C126.99 414.04 116.11 400.17 116.11 400.17C116.11 400.17 110.46 412.24 116.49 420.93C120.96 427.08 125.93 432.85 131.37 438.17C131.65 436.2 132.49 430.27 132.77 428.3Z" id="deOweiqMd"></path><path d="M125.13 460.53C125.13 460.53 125.13 454.99 132.89 447.23C132.89 447.23 145.69 435.05 145.69 435.05C145.69 435.05 149.53 447.78 142.36 455.53C137.07 460.98 131.33 465.98 125.2 470.48C125.18 468.49 125.15 462.52 125.13 460.53Z" id="f8zdnxxjy"></path><path d="M130.3 489.74C130.3 489.74 128.91 484.38 134.4 474.88C139.89 465.38 143.64 459.87 143.64 459.87C143.64 459.87 150.62 471.21 145.63 480.52C141.89 487.14 137.61 493.44 132.83 499.34C132.32 497.42 130.81 491.66 130.3 489.74Z" id="d2ASWEW3aY"></path><path d="M145.14 321.19C144.74 326.95 144.03 332.69 143.01 338.38C139.94 354.21 132.29 364.44 129.22 378.74C126.14 393.04 134.95 411.48 132.6 429.85C130.24 448.22 123.08 458.44 125.13 470.71C127.18 482.97 137.93 516.17 137.93 516.17" id="b409y47jSS"></path><path d="M143.87 335.72L152.23 329.31" id="c580TgrFjW"></path><path d="M144.26 328.33L140.76 322.11" id="aHT0yaNt0"></path><path d="M129.68 378.09C129.68 378.09 136.68 372.84 143.87 367.59" id="b1hlHuPojA"></path><path d="M133.18 367.17C133.18 367.17 127.35 355.74 120.74 348.16" id="aaBv8NqeY"></path><path d="M133.18 425.32C137.17 417.95 142.21 411.21 148.15 405.3" id="b1BlTlFkjw"></path><path d="M131.84 433.09C129.71 428.09 127.17 423.28 124.25 418.7C120.18 412.68 119.59 411.9 119.59 411.9" id="b2oKcQnQJt"></path><path d="M125.13 470.71C126.9 466.29 129.01 462.01 131.43 457.91C133.85 454.13 136.58 450.55 139.6 447.22" id="g3QHcpQZrh"></path><path d="M132.84 499.38C132.43 495.18 133.15 490.95 134.92 487.12C137.84 481.47 141.15 474.1 142.52 471.18" id="k6pPBn2I0"></path><path d="M93.66 396.6C93.66 396.6 93.06 393.13 97.08 387.42C97.08 387.42 103.74 378.39 103.74 378.39C103.74 378.39 107.58 385.97 103.88 391.62C101.15 395.61 98.09 399.37 94.72 402.85C94.51 401.6 93.87 397.85 93.66 396.6Z" id="a2RkTDI3Rx"></path><path d="M104.46 417.08C104.46 417.08 103.87 413.59 107.89 407.9C107.89 407.9 114.55 398.87 114.55 398.87C114.55 398.87 118.39 406.44 114.69 412.08C111.96 416.08 108.9 419.84 105.55 423.32C105.33 422.07 104.68 418.32 104.46 417.08Z" id="a5dzePtmpX"></path><path d="M94.99 402.47C94.99 402.47 94.02 399.08 87.92 395.67C81.83 392.27 78 390.4 78 390.4C78 390.4 77.85 398.87 83.61 402.37C87.8 404.78 92.18 406.84 96.72 408.52C96.37 407.31 95.33 403.68 94.99 402.47Z" id="p2fTc7ay1"></path><path d="M107.94 426.61C107.94 426.61 106.66 423.33 100.26 420.6C100.26 420.6 89.84 416.44 89.84 416.44C89.84 416.44 90.59 424.87 96.68 427.74C101.1 429.7 105.68 431.29 110.36 432.5C109.88 431.32 108.43 427.79 107.94 426.61Z" id="a1KjH5xcTh"></path><path d="M111.18 454.81C111.18 454.81 110.58 451.34 104.87 447.32C104.87 447.32 95.56 441.06 95.56 441.06C95.56 441.06 94.52 449.47 99.87 453.56C103.78 456.4 107.92 458.91 112.26 461.07C112.04 459.82 111.4 456.06 111.18 454.81Z" id="alEvqObTS"></path><path d="M112.44 461.62C112.44 461.62 111.36 458.24 114.52 452.04C117.68 445.85 119.83 442.16 119.83 442.16C119.83 442.16 124.68 449.11 121.86 455.23C119.72 459.57 117.22 463.72 114.39 467.65C114 466.44 112.83 462.82 112.44 461.62Z" id="bkXD3VPNT"></path><path d="M122.18 489.64C122.18 489.64 122.57 486.13 128.04 481.79C128.04 481.79 137 475.02 137 475.02C137 475.02 138.53 483.35 133.41 487.73C129.67 490.79 125.67 493.54 121.47 495.94C121.61 494.68 122.04 490.9 122.18 489.64Z" id="b9vlgxUvD"></path><path d="M120.73 481C120.73 481 120.13 477.52 114.43 473.5C108.74 469.48 105.11 467.2 105.11 467.2C105.11 467.2 104.06 475.61 109.43 479.69C113.34 482.54 117.48 485.05 121.82 487.21C121.6 485.96 120.95 482.24 120.73 481Z" id="a3dL1K7bDN"></path><path d="M120.65 499.88C120.65 499.88 120.96 496.36 116.45 491.03C116.45 491.03 109.03 482.61 109.03 482.61C109.03 482.61 105.88 490.48 110.04 495.8C113.11 499.54 116.47 503.02 120.12 506.2C120.22 504.94 120.55 501.14 120.65 499.88Z" id="a8MHuXdt12"></path><path d="M93.06 395.79C93.94 399.36 95 402.88 96.26 406.34C99.9 415.94 105.82 421.52 109.29 430.16C112.76 438.8 109.29 451.3 112.72 462.57C116.15 473.83 121.79 479.46 121.83 487.37C121.87 495.28 118.76 517.27 118.76 517.27" id="f1t51WyAzx"></path><path d="M95.44 404.76L89.5 401.65" id="h1gyMzcZIX"></path><path d="M94.39 400.18L95.91 395.89" id="i1k9cs3O2b"></path><path d="M108.93 429.8C108.93 429.8 103.97 427.24 98.89 424.76" id="eaBYKxZ34"></path><path d="M105.55 423.32C107.01 418.71 108.93 414.27 111.28 410.05" id="aVe9RnA4h"></path><path d="M111.86 459.79C108.57 455.61 104.69 451.92 100.34 448.86" id="c151lMHNXh"></path><path d="M113.56 464.51C114.35 461.15 115.41 457.86 116.75 454.67C118.66 450.46 118.94 449.89 118.94 449.89" id="b47ZfRVE2p"></path><path d="M121.6 493.38C123.53 490.98 125.68 488.76 128 486.75C129.48 485.66 130.86 484.46 132.15 483.15" id="abg51IZk4"></path><path d="M121.83 487.37C120.25 484.81 118.47 482.37 116.51 480.08C114.58 477.96 112.47 476.02 110.22 474.25" id="bbjU30CtW"></path><path d="M120.12 506.2C119.91 503.52 119 500.94 117.48 498.73C115.03 495.51 112.15 491.24 110.99 489.56" id="i3UwNgKnZE"></path><path d="M153.6 513.45C153.6 536.34 153.6 549.06 153.6 551.6C153.6 553.72 151.88 555.44 149.76 555.44C145.47 555.44 111.11 555.44 106.82 555.44C104.7 555.44 102.98 553.72 102.98 551.6C102.98 549.06 102.98 536.34 102.98 513.45L153.6 513.45Z" id="d2nws2z1Ye"></path><path d="M102.92 520.06C100.73 520.06 98.96 518.29 98.96 516.1C98.96 516.09 98.96 516.09 98.96 516.08C98.96 516.08 98.96 516.08 98.96 516.08C98.96 513.89 100.73 512.12 102.92 512.12C102.92 512.12 102.92 512.12 102.92 512.12C107.95 512.12 148.18 512.12 153.2 512.12C155.39 512.12 157.17 513.89 157.17 516.08C157.17 516.08 157.17 516.08 157.17 516.08C157.17 516.08 157.17 516.08 157.17 516.08C157.18 518.27 155.41 520.06 153.22 520.06C153.21 520.06 153.21 520.06 153.2 520.06C153.2 520.06 107.95 520.06 102.92 520.06Z" id="e4TthiHlg"></path><path d="M168.96 542.72C168.96 542.72 166.21 553.32 166.21 555.99C166.21 555.99 165.54 560.46 171.33 561.57C171.33 561.57 180.93 562.02 181.82 559.35C181.82 559.35 183.39 543.26 183.39 543.26C182.45 543.08 177.75 542.18 169.31 540.57C169.12 541.72 169.01 542.43 168.96 542.72Z" id="cap2SJfEj"></path><path d="M182.22 557.02C176.85 557.05 171.49 556.62 166.2 555.74C166.2 558.3 165.7 560.03 171.32 561.1C176.94 562.18 180.98 561.56 181.84 558.89C182.02 558.28 182.15 557.65 182.22 557.02Z" id="ahCYNywP4"></path><path d="M315.66 547.29C322.15 549.3 335.36 551.54 336.64 551.76C337.92 551.97 337.92 554.66 336.86 555.79C335.8 556.92 329.93 560.26 323.01 562.04C316.08 563.81 292.61 565.39 290.6 564.06C288.92 562.93 289.48 551.99 290.15 549.53C290.82 547.07 304.7 543.72 304.7 543.72C306.9 544.43 309.17 545.28 315.66 547.29Z" id="c1lsvn5MOZ"></path><path d="M337.55 552.65C333.02 556.26 323.97 560.23 314.76 561.15C306.41 561.75 298.02 561.7 289.68 561.02C289.84 562.56 290.14 563.72 290.62 564.06C292.63 565.34 316.1 563.83 323.03 562.04C329.97 560.24 335.77 556.9 336.88 555.79C337.62 554.93 337.88 553.74 337.55 552.65Z" id="b3CySRAOAK"></path><path d="M195.74 385.24C195.74 385.24 190.12 436.72 189.25 459.66C189.25 459.66 177.14 499.9 175.4 512.45C173.76 522.64 171.61 532.74 168.96 542.72C171.65 544.21 174.58 545.24 177.61 545.75C183.68 547.03 184.54 542.28 184.54 542.28C184.54 542.28 217.82 465.7 220.45 454.45C223.09 443.2 231.68 402.98 231.68 402.98C235.26 409.56 263.94 462.17 267.52 468.75C267.52 468.75 269.26 491.25 274.44 504.23C274.44 504.23 289.59 553.11 289.59 553.11C293.53 553.33 297.48 552.9 301.27 551.83C306.47 550.11 306.47 547.51 306.47 547.51C306.47 547.51 298.68 518.52 298.68 509C298.68 499.49 295.65 467.03 293.49 457.95C291.33 448.86 276.61 401.27 274.44 396.07C272.28 390.87 267.52 374.44 267.52 374.44C267.22 371.88 264.8 351.46 264.5 348.9C264.5 348.9 227.33 359.28 196.61 348.89C196.43 356.16 192.77 372.26 195.74 385.24Z" id="c1sBlxkd6J"></path><path d="M222.99 238.62C222.99 238.62 220.99 234.3 220.99 231.65C220.99 231.65 219.71 216.41 219.71 216.41C219.71 216.41 238.91 181.63 244.22 175C247.69 170.76 251.57 166.87 255.82 163.4C255.82 163.4 268.75 160.76 271.4 160.76C271.4 160.76 277.03 159.48 277.03 157.77C277.03 157.77 272.71 156.49 270.06 156.49C270.06 156.49 264.1 154.18 264.1 154.18C264.1 154.18 268.41 141.82 269.73 136.95C270.44 134.39 272.71 129 271.01 129C269.31 129 269.03 130.28 268.03 132.31C267.03 134.35 262.73 140.93 262.73 140.93C262.83 139.47 263.62 127.81 263.72 126.35C263.72 126.35 262.44 124.36 261.4 126.68C260.09 130.26 258.98 133.91 258.08 137.61C257.78 138.77 257.21 139.85 256.43 140.76C256.3 139.67 255.28 130.98 255.15 129.89C255.15 129.89 252.9 127.5 252.5 131.65C252.29 133.95 252.5 141.59 252.5 142.91C252.5 144.23 251.22 141.03 251.22 141.03C251.22 141.03 250.44 137.43 249.57 136.95C248.7 136.46 247.92 137.61 248.29 140.26C248.66 142.91 247.96 153.84 247.96 153.84C247.96 153.84 245.98 156.49 242.99 160.14C240.01 163.79 216.11 185.32 207.15 192.28C198.19 199.24 197.22 204.88 195.89 211.83C194.56 218.78 193.24 259.19 193.24 273.79C193.24 288.4 194.52 311.55 195.56 319.18C196.59 326.81 194.76 336.64 193.48 341.99C192.2 347.34 193.48 351.92 197.13 354.57C200.78 357.22 216.33 358.89 229.26 358.89C242.19 358.89 255.43 357.61 259.42 356.24C263.4 354.87 266.44 354.56 266.44 349.27C266.44 343.99 263.79 333.38 263.79 330.39C263.79 327.41 269.1 296.6 269.1 296.6C269.1 296.6 302.9 306.84 309.19 304.55C315.49 302.26 368.16 252.53 368.16 252.53C368.16 252.53 376.45 249.22 380.76 248.55C385.07 247.88 391.69 244.92 392.02 243.92C392.36 242.92 391.36 243.25 388.71 243.25C386.35 243.41 384.01 243.84 381.74 244.53C381.74 244.53 390.79 238.8 392.36 238.23C393.43 237.84 395.29 235.39 392.69 235.92C389.42 236.57 381.42 238.9 381.42 238.9C382.48 238.24 390.96 232.93 392.02 232.27C392.02 232.27 393.67 229.62 391.69 229.62C391.69 229.62 379.76 235.58 379.76 235.58C380.53 234.86 386.67 229.11 387.44 228.39C388.94 227.01 387.68 225.05 385.92 226.07C385.02 226.59 377.85 230.68 376.96 231.19C374.77 232.47 372.46 233.51 370.05 234.28C369.88 234.38 368.56 235.18 368.39 235.28C368.72 233.53 368.95 231.76 369.06 229.98C369.06 228.31 368.06 224.01 365.74 223.68C363.43 223.35 365.41 226.66 365.41 228.31C365.41 229.96 362.1 238.55 362.1 239.91C362.1 240.31 362.1 243.49 362.1 243.89C362.1 243.89 350.83 253.82 340.57 259.14C340.57 259.14 307.1 282 307.1 282C307.1 282 280.6 268.4 274.63 263.44C274.63 263.44 262.04 252.51 255.43 247.21C252 244.35 248.35 241.79 244.5 239.53C240.2 239.34 227.29 238.8 222.99 238.62Z" id="aRvDPacUr"></path><path d="M308.21 282.02C308.21 282.02 281.72 268.43 275.75 263.46C269.79 258.5 263.16 252.53 256.55 247.23C253.12 244.38 249.47 241.81 245.62 239.55C243.47 239.45 226.24 238.66 224.09 238.57C224.09 238.57 222.09 234.25 222.09 231.6C222.09 231.6 220.81 216.36 220.81 216.36C220.81 216.36 230.73 198.44 238.28 185.83C238.22 185.77 237.74 185.28 237.68 185.22C233.97 181.52 228.84 179.52 224.36 178.43C218.11 183.97 211.9 189.31 208.22 192.18C199.26 199.13 198.28 204.77 196.95 211.72C195.62 218.68 194.3 259.08 194.3 273.69C194.3 288.29 195.58 311.45 196.62 319.08C197.66 326.71 195.84 336.64 194.56 341.99C193.28 347.34 194.56 351.92 198.21 354.57C201.86 357.22 217.41 358.89 230.34 358.89C243.26 358.89 256.51 357.61 260.49 356.24C264.47 354.87 267.52 354.56 267.52 349.27C267.52 343.99 264.87 333.38 264.87 330.39C264.87 327.41 270.18 296.6 270.18 296.6C270.18 296.6 303.97 306.84 310.27 304.55C313.63 303.27 330.24 288.55 344.97 275.11C342.29 270.59 338.84 266.57 334.78 263.23C323.53 270.43 313.53 278.26 308.21 282.02Z" id="aP7WIYgVn"></path><path d="M259.84 253.13C259.84 253.13 246.5 256.77 245.76 266.87" id="f53gmVxwss"></path><path d="M270.08 296.6C270.08 296.6 254.54 292.33 246.46 284.24" id="k3hUgDaqTD"></path><path d="M261.45 294.4C261.45 294.4 248.12 298.04 235.99 293.2" id="a1EXfRcyJC"></path><path d="M205.18 272.93C205.18 272.93 209.4 302.37 229.7 317.04" id="dv2uzPZ7Q"></path><path d="M236.1 325.12C237.64 325.54 239.24 325.91 240.9 326.21" id="cmK7abNCY"></path><path d="M205.18 302.34C210.86 310.8 218.71 317.59 227.9 322" id="a1a5daUQ2G"></path><path d="M201.25 236.98C201.25 236.98 214.18 230.58 221.86 236.57" id="c4CZNRpeHi"></path><path d="M204.89 207.49C204.89 207.49 216.61 211.53 219.84 219.61" id="g1L92HcROo"></path><path d="M212.57 204.66C215.37 206.92 217.36 210.04 218.23 213.54" id="a1JmxK9nRf"></path><path d="M269.79 199.85C269.79 199.85 266.47 203.83 267.79 207.8C267.79 207.8 272.1 212.11 271.44 215.48C271.44 215.48 266.47 220.77 266.47 220.77C266.47 220.77 264.15 230.05 261.82 234.02C261.82 234.02 250.89 235.02 250.89 235.02C250.83 236.08 250.29 244.56 250.23 245.62C250.23 245.62 247.24 249.93 236.31 248.6C230.02 247.91 223.87 246.23 218.1 243.64C217.93 243.4 216.6 241.55 216.44 241.32C216.44 241.32 225.05 237 225.4 234.02C225.4 234.02 225.4 224.09 225.4 214.14C225.4 214.14 222.41 184.99 238.64 180.02C254.87 175.05 267.79 185.6 267.79 185.6C268.19 188.45 269.79 196.86 269.79 199.85Z" id="b1QQe0DSQ3"></path><path d="M239.63 209.13C236.92 212.31 240.29 221.72 241.95 223.04C243.6 224.36 247.24 223.71 247.24 223.71C247.24 223.71 241.95 229 236.31 229C230.68 229 225.72 223.71 222.07 214.43C218.42 205.15 215.77 189.25 219.75 179.64C223.73 170.02 244.28 169.7 248.91 169.7C253.54 169.7 260.51 172.35 260.51 172.35C260.51 172.35 275.42 171.07 275.75 176C276.08 180.93 273.75 181.3 273.75 181.3C273.75 181.3 284.36 186.93 279.39 189.25C274.41 191.56 266.8 190.25 261.82 190.25C259.1 190.09 256.53 191.5 255.21 193.88C255.21 193.88 259.84 196.86 258.19 198.2C258.19 198.2 250.51 202.16 249.91 204.49C249.91 204.49 252.22 210.46 250.23 212.17C248.23 213.89 247.55 212.8 247.55 212.8C245.97 212.07 243.81 204.22 239.63 209.13Z" id="g4Sbww2j05"></path><path d="M264.42 211.85C263.56 211.85 262.87 210.48 262.87 208.79C262.87 207.1 263.58 205.73 264.42 205.73C265.27 205.73 265.98 207.1 265.98 208.79C265.98 210.48 265.28 211.85 264.42 211.85Z" id="bLa5q3cwP"></path><path d="M260.56 204.89C260.56 204.89 262.69 199.9 266.09 202.57" id="b1uUtnXmBK"></path><path d="M231.65 402.98L228.62 397.35L213.48 393.46" id="c5ap6mjRf"></path></defs><g><g><g><use xlink:href="#a3CeR0tSIu" opacity="1" fill="#92e3a9" fill-opacity="1"></use><g><use xlink:href="#a3CeR0tSIu" opacity="1" fill-opacity="0" stroke="#000000" stroke-width="1" stroke-opacity="0"></use></g></g><g><use xlink:href="#c26771Sqo" opacity="1" fill="#ffffff" fill-opacity="1"></use><g><use xlink:href="#c26771Sqo" opacity="1" fill-opacity="0" stroke="#000000" stroke-width="1" stroke-opacity="0"></use></g></g><g><use xlink:href="#a1XNMg4wY" opacity="1" fill="#92e3a9" fill-opacity="1"></use><g><use xlink:href="#a1XNMg4wY" opacity="1" fill-opacity="0" stroke="#000000" stroke-width="1" stroke-opacity="0"></use></g></g><g><use xlink:href="#cOhYuSHLA" opacity="1" fill="#f5f5f5" fill-opacity="1"></use><g><use xlink:href="#cOhYuSHLA" opacity="1" fill-opacity="0" stroke="#000000" stroke-width="1" stroke-opacity="0"></use></g></g><g><use xlink:href="#a6n6fjR7v" opacity="1" fill="#f0f0f0" fill-opacity="0"></use><g><use xlink:href="#a6n6fjR7v" opacity="1" fill-opacity="0" stroke="#263238" stroke-width="1.02" stroke-opacity="1"></use></g></g><g><use xlink:href="#eXNsFsp1N" opacity="1" fill="#000000" fill-opacity="0"></use><g><use xlink:href="#eXNsFsp1N" opacity="1" fill-opacity="0" stroke="#263238" stroke-width="1.02" stroke-opacity="1"></use></g></g><g><use xlink:href="#a2kSo4ixE" opacity="1" fill="#000000" fill-opacity="0"></use><g><use xlink:href="#a2kSo4ixE" opacity="1" fill-opacity="0" stroke="#263238" stroke-width="1.02" stroke-opacity="1"></use></g></g><g><use xlink:href="#bkw4Nt3w8" opacity="1" fill="#000000" fill-opacity="0"></use><g><use xlink:href="#bkw4Nt3w8" opacity="1" fill-opacity="0" stroke="#263238" stroke-width="1.02" stroke-opacity="1"></use></g></g><g><use xlink:href="#c2hTF6hqp" opacity="1" fill="#000000" fill-opacity="0"></use><g><use xlink:href="#c2hTF6hqp" opacity="1" fill-opacity="0" stroke="#263238" stroke-width="1.02" stroke-opacity="1"></use></g></g><g><use xlink:href="#a452kTBfWP" opacity="1" fill="#000000" fill-opacity="0"></use><g><use xlink:href="#a452kTBfWP" opacity="1" fill-opacity="0" stroke="#263238" stroke-width="1.02" stroke-opacity="1"></use></g></g><g><use xlink:href="#a1Qx4Gp9vz" opacity="1" fill="#000000" fill-opacity="0"></use><g><use xlink:href="#a1Qx4Gp9vz" opacity="1" fill-opacity="0" stroke="#263238" stroke-width="1.02" stroke-opacity="1"></use></g></g><g><use xlink:href="#a2vZg5eRvr" opacity="1" fill="#000000" fill-opacity="0"></use><g><use xlink:href="#a2vZg5eRvr" opacity="1" fill-opacity="0" stroke="#263238" stroke-width="1.02" stroke-opacity="1"></use></g></g><g><use xlink:href="#a1ZoR5lLX7" opacity="1" fill="#000000" fill-opacity="0"></use><g><use xlink:href="#a1ZoR5lLX7" opacity="1" fill-opacity="0" stroke="#263238" stroke-width="1.02" stroke-opacity="1"></use></g></g><g><use xlink:href="#c44O0wAJBr" opacity="1" fill="#e6e6e6" fill-opacity="1"></use><g><use xlink:href="#c44O0wAJBr" opacity="1" fill-opacity="0" stroke="#263238" stroke-width="1.02" stroke-opacity="1"></use></g></g><g><use xlink:href="#g2pWIrnH2" opacity="1" fill="#000000" fill-opacity="0"></use><g><use xlink:href="#g2pWIrnH2" opacity="1" fill-opacity="0" stroke="#263238" stroke-width="1.02" stroke-opacity="1"></use></g></g><g><use xlink:href="#f3YNDnUYyI" opacity="1" fill="#000000" fill-opacity="0"></use><g><use xlink:href="#f3YNDnUYyI" opacity="1" fill-opacity="0" stroke="#263238" stroke-width="1.02" stroke-opacity="1"></use></g></g><g><use xlink:href="#ao54VZdjA" opacity="1" fill="#000000" fill-opacity="0"></use><g><use xlink:href="#ao54VZdjA" opacity="1" fill-opacity="0" stroke="#263238" stroke-width="1.02" stroke-opacity="1"></use></g></g><g><use xlink:href="#g2N1XdFlA" opacity="1" fill="#000000" fill-opacity="0"></use><g><use xlink:href="#g2N1XdFlA" opacity="1" fill-opacity="0" stroke="#263238" stroke-width="1.02" stroke-opacity="1"></use></g></g><g><use xlink:href="#b81cvJOGI" opacity="1" fill="#263238" fill-opacity="1"></use><g><use xlink:href="#b81cvJOGI" opacity="1" fill-opacity="0" stroke="#000000" stroke-width="1" stroke-opacity="0"></use></g></g><g><use xlink:href="#afp9ndwYA" opacity="1" fill="#263238" fill-opacity="1"></use><g><use xlink:href="#afp9ndwYA" opacity="1" fill-opacity="0" stroke="#000000" stroke-width="1" stroke-opacity="0"></use></g></g><g><use xlink:href="#d79E8GI6wl" opacity="1" fill="#263238" fill-opacity="1"></use><g><use xlink:href="#d79E8GI6wl" opacity="1" fill-opacity="0" stroke="#263238" stroke-width="0.83" stroke-opacity="1"></use></g></g><g><use xlink:href="#cU4cUrBoF" opacity="1" fill="#e6e6e6" fill-opacity="1"></use><g><use xlink:href="#cU4cUrBoF" opacity="1" fill-opacity="0" stroke="#263238" stroke-width="0.83" stroke-opacity="1"></use></g></g><g><use xlink:href="#b2MxSf3aTu" opacity="1" fill="#ffffff" fill-opacity="1"></use><g><use xlink:href="#b2MxSf3aTu" opacity="1" fill-opacity="0" stroke="#263238" stroke-width="1.02" stroke-opacity="1"></use></g></g><g><use xlink:href="#a71HFd54R" opacity="1" fill="#000000" fill-opacity="0"></use><g><use xlink:href="#a71HFd54R" opacity="1" fill-opacity="0" stroke="#263238" stroke-width="1.02" stroke-opacity="1"></use></g></g><g><use xlink:href="#bhZxLNitv" opacity="1" fill="#000000" fill-opacity="0"></use><g><use xlink:href="#bhZxLNitv" opacity="1" fill-opacity="0" stroke="#263238" stroke-width="1.02" stroke-opacity="1"></use></g></g><g><use xlink:href="#d2plXu2XT8" opacity="1" fill="#000000" fill-opacity="0"></use><g><use xlink:href="#d2plXu2XT8" opacity="1" fill-opacity="0" stroke="#263238" stroke-width="1.02" stroke-opacity="1"></use></g></g><g><use xlink:href="#c1IKzK0XV0" opacity="1" fill="#000000" fill-opacity="0"></use><g><use xlink:href="#c1IKzK0XV0" opacity="1" fill-opacity="0" stroke="#263238" stroke-width="1.02" stroke-opacity="1"></use></g></g><g><use xlink:href="#d1l5SOSFVM" opacity="1" fill="#000000" fill-opacity="0"></use><g><use xlink:href="#d1l5SOSFVM" opacity="1" fill-opacity="0" stroke="#263238" stroke-width="1.02" stroke-opacity="1"></use></g></g><g><use xlink:href="#aTpM9eGqT" opacity="1" fill="#e6e6e6" fill-opacity="0"></use><g><use xlink:href="#aTpM9eGqT" opacity="1" fill-opacity="0" stroke="#263238" stroke-width="1.02" stroke-opacity="1"></use></g></g><g><use xlink:href="#aGcN42LDj" opacity="1" fill="#000000" fill-opacity="0"></use><g><use xlink:href="#aGcN42LDj" opacity="1" fill-opacity="0" stroke="#263238" stroke-width="1.02" stroke-opacity="1"></use></g></g><g><use xlink:href="#a2r13hVT7l" opacity="1" fill="#000000" fill-opacity="0"></use><g><use xlink:href="#a2r13hVT7l" opacity="1" fill-opacity="0" stroke="#263238" stroke-width="1.02" stroke-opacity="1"></use></g></g><g><use xlink:href="#a9maJUIBBO" opacity="1" fill="#000000" fill-opacity="0"></use><g><use xlink:href="#a9maJUIBBO" opacity="1" fill-opacity="0" stroke="#263238" stroke-width="1.02" stroke-opacity="1"></use></g></g><g><use xlink:href="#aa5PvCgVw" opacity="1" fill="#263238" fill-opacity="1"></use><g><use xlink:href="#aa5PvCgVw" opacity="1" fill-opacity="0" stroke="#263238" stroke-width="0.83" stroke-opacity="1"></use></g></g><g><use xlink:href="#bxC3Ih6Oz" opacity="1" fill="#ffffff" fill-opacity="1"></use><g><use xlink:href="#bxC3Ih6Oz" opacity="1" fill-opacity="0" stroke="#263238" stroke-width="0.83" stroke-opacity="1"></use></g></g><g><use xlink:href="#a3PCIBrlWh" opacity="1" fill="#e6e6e6" fill-opacity="0"></use><g><use xlink:href="#a3PCIBrlWh" opacity="1" fill-opacity="0" stroke="#263238" stroke-width="1.02" stroke-opacity="1"></use></g></g><g><use xlink:href="#b2jpHw84kd" opacity="1" fill="#000000" fill-opacity="0"></use><g><use xlink:href="#b2jpHw84kd" opacity="1" fill-opacity="0" stroke="#263238" stroke-width="1.02" stroke-opacity="1"></use></g></g><g><use xlink:href="#c1E6pQRzXm" opacity="1" fill="#000000" fill-opacity="0"></use><g><use xlink:href="#c1E6pQRzXm" opacity="1" fill-opacity="0" stroke="#263238" stroke-width="1.02" stroke-opacity="1"></use></g></g><g><use xlink:href="#aE4nPkLa3" opacity="1" fill="#000000" fill-opacity="0"></use><g><use xlink:href="#aE4nPkLa3" opacity="1" fill-opacity="0" stroke="#263238" stroke-width="1.02" stroke-opacity="1"></use></g></g><g><use xlink:href="#c8bcYxNrU" opacity="1" fill="#000000" fill-opacity="0"></use><g><use xlink:href="#c8bcYxNrU" opacity="1" fill-opacity="0" stroke="#263238" stroke-width="1.02" stroke-opacity="1"></use></g></g><g><use xlink:href="#a5mAIJK7ki" opacity="1" fill="#000000" fill-opacity="0"></use><g><use xlink:href="#a5mAIJK7ki" opacity="1" fill-opacity="0" stroke="#263238" stroke-width="1.02" stroke-opacity="1"></use></g></g><g><use xlink:href="#c3AqoEWWC" opacity="1" fill="#000000" fill-opacity="0"></use><g><use xlink:href="#c3AqoEWWC" opacity="1" fill-opacity="0" stroke="#263238" stroke-width="1.02" stroke-opacity="1"></use></g></g><g><use xlink:href="#h2OFu7NTvN" opacity="1" fill="#000000" fill-opacity="0"></use><g><use xlink:href="#h2OFu7NTvN" opacity="1" fill-opacity="0" stroke="#263238" stroke-width="1.02" stroke-opacity="1"></use></g></g><g><use xlink:href="#a23FVxapzD" opacity="1" fill="#000000" fill-opacity="0"></use><g><use xlink:href="#a23FVxapzD" opacity="1" fill-opacity="0" stroke="#263238" stroke-width="1.02" stroke-opacity="1"></use></g></g><g><use xlink:href="#h5MRgLjmHa" opacity="1" fill="#263238" fill-opacity="1"></use><g><use xlink:href="#h5MRgLjmHa" opacity="1" fill-opacity="0" stroke="#263238" stroke-width="0.83" stroke-opacity="1"></use></g></g><g><use xlink:href="#amStFVCS8" opacity="1" fill="#e6e6e6" fill-opacity="1"></use><g><use xlink:href="#amStFVCS8" opacity="1" fill-opacity="0" stroke="#263238" stroke-width="0.83" stroke-opacity="1"></use></g></g><g><use xlink:href="#a2X678OXf9" opacity="1" fill="#000000" fill-opacity="0"></use><g><use xlink:href="#a2X678OXf9" opacity="1" fill-opacity="0" stroke="#263238" stroke-width="1.02" stroke-opacity="1"></use></g></g><g><use xlink:href="#axDZ0N4cG" opacity="1" fill="#263238" fill-opacity="1"></use><g><use xlink:href="#axDZ0N4cG" opacity="1" fill-opacity="0" stroke="#000000" stroke-width="1" stroke-opacity="0"></use></g></g><g><use xlink:href="#b5qalUqS3" opacity="1" fill="#000000" fill-opacity="0"></use><g><use xlink:href="#b5qalUqS3" opacity="1" fill-opacity="0" stroke="#263238" stroke-width="1.02" stroke-opacity="1"></use></g></g><g><use xlink:href="#b3qVDgXjA" opacity="1" fill="#263238" fill-opacity="1"></use><g><use xlink:href="#b3qVDgXjA" opacity="1" fill-opacity="0" stroke="#000000" stroke-width="1" stroke-opacity="0"></use></g></g><g><use xlink:href="#i1r22JYGxB" opacity="1" fill="#000000" fill-opacity="0"></use><g><use xlink:href="#i1r22JYGxB" opacity="1" fill-opacity="0" stroke="#263238" stroke-width="1.02" stroke-opacity="1"></use></g></g><g><use xlink:href="#bRbTWwxOQ" opacity="1" fill="#000000" fill-opacity="0"></use><g><use xlink:href="#bRbTWwxOQ" opacity="1" fill-opacity="0" stroke="#263238" stroke-width="1.02" stroke-opacity="1"></use></g></g><g><use xlink:href="#bTEWiHdjL" opacity="1" fill="#000000" fill-opacity="0"></use><g><use xlink:href="#bTEWiHdjL" opacity="1" fill-opacity="0" stroke="#263238" stroke-width="1.02" stroke-opacity="1"></use></g></g><g><use xlink:href="#b4yGPLEt9u" opacity="1" fill="#000000" fill-opacity="0"></use><g><use xlink:href="#b4yGPLEt9u" opacity="1" fill-opacity="0" stroke="#263238" stroke-width="1.02" stroke-opacity="1"></use></g></g><g><use xlink:href="#b35OJctW5u" opacity="1" fill="#000000" fill-opacity="0"></use><g><use xlink:href="#b35OJctW5u" opacity="1" fill-opacity="0" stroke="#263238" stroke-width="1.02" stroke-opacity="1"></use></g></g><g><use xlink:href="#bxRtOnGDF" opacity="1" fill="#000000" fill-opacity="0"></use><g><use xlink:href="#bxRtOnGDF" opacity="1" fill-opacity="0" stroke="#263238" stroke-width="1.02" stroke-opacity="1"></use></g></g><g><use xlink:href="#a1baUXoAsq" opacity="1" fill="#000000" fill-opacity="0"></use><g><use xlink:href="#a1baUXoAsq" opacity="1" fill-opacity="0" stroke="#263238" stroke-width="1.02" stroke-opacity="1"></use></g></g><g><use xlink:href="#a17KgRemO7" opacity="1" fill="#000000" fill-opacity="0"></use><g><use xlink:href="#a17KgRemO7" opacity="1" fill-opacity="0" stroke="#263238" stroke-width="1.02" stroke-opacity="1"></use></g></g><g><use xlink:href="#i4zSirnilq" opacity="1" fill="#000000" fill-opacity="0"></use><g><use xlink:href="#i4zSirnilq" opacity="1" fill-opacity="0" stroke="#263238" stroke-width="1.02" stroke-opacity="1"></use></g></g><g><use xlink:href="#a6dQCIFZaV" opacity="1" fill="#000000" fill-opacity="0"></use><g><use xlink:href="#a6dQCIFZaV" opacity="1" fill-opacity="0" stroke="#263238" stroke-width="1.02" stroke-opacity="1"></use></g></g><g><use xlink:href="#cmwx4V3iC" opacity="1" fill="#000000" fill-opacity="0"></use><g><use xlink:href="#cmwx4V3iC" opacity="1" fill-opacity="0" stroke="#263238" stroke-width="1.02" stroke-opacity="1"></use></g></g><g><use xlink:href="#b6rIeS88hC" opacity="1" fill="#000000" fill-opacity="0"></use><g><use xlink:href="#b6rIeS88hC" opacity="1" fill-opacity="0" stroke="#263238" stroke-width="1.02" stroke-opacity="1"></use></g></g><g><use xlink:href="#e14K67paM1" opacity="1" fill="#000000" fill-opacity="0"></use><g><use xlink:href="#e14K67paM1" opacity="1" fill-opacity="0" stroke="#263238" stroke-width="1.02" stroke-opacity="1"></use></g></g><g><use xlink:href="#aqIheasaV" opacity="1" fill="#000000" fill-opacity="0"></use><g><use xlink:href="#aqIheasaV" opacity="1" fill-opacity="0" stroke="#263238" stroke-width="1.02" stroke-opacity="1"></use></g></g><g><use xlink:href="#a1MH94tky7" opacity="1" fill="#000000" fill-opacity="0"></use><g><use xlink:href="#a1MH94tky7" opacity="1" fill-opacity="0" stroke="#263238" stroke-width="1.02" stroke-opacity="1"></use></g></g><g><use xlink:href="#a28vyigcOf" opacity="1" fill="#407bff" fill-opacity="1"></use><g><use xlink:href="#a28vyigcOf" opacity="1" fill-opacity="0" stroke="#000000" stroke-width="1" stroke-opacity="0"></use></g></g><g><use xlink:href="#aJKaRI5wf" opacity="1" fill="#407bff" fill-opacity="1"></use><g><use xlink:href="#aJKaRI5wf" opacity="1" fill-opacity="0" stroke="#000000" stroke-width="1" stroke-opacity="0"></use></g></g><g><use xlink:href="#aoQCLwBv" opacity="1" fill="#407bff" fill-opacity="1"></use><g><use xlink:href="#aoQCLwBv" opacity="1" fill-opacity="0" stroke="#000000" stroke-width="1" stroke-opacity="0"></use></g></g><g><use xlink:href="#cfarLHIGv" opacity="1" fill="#407bff" fill-opacity="1"></use><g><use xlink:href="#cfarLHIGv" opacity="1" fill-opacity="0" stroke="#000000" stroke-width="1" stroke-opacity="0"></use></g></g><g><use xlink:href="#aIRkVXCfY" opacity="1" fill="#407bff" fill-opacity="1"></use><g><use xlink:href="#aIRkVXCfY" opacity="1" fill-opacity="0" stroke="#000000" stroke-width="1" stroke-opacity="0"></use></g></g><g><use xlink:href="#deOweiqMd" opacity="1" fill="#407bff" fill-opacity="1"></use><g><use xlink:href="#deOweiqMd" opacity="1" fill-opacity="0" stroke="#000000" stroke-width="1" stroke-opacity="0"></use></g></g><g><use xlink:href="#f8zdnxxjy" opacity="1" fill="#407bff" fill-opacity="1"></use><g><use xlink:href="#f8zdnxxjy" opacity="1" fill-opacity="0" stroke="#000000" stroke-width="1" stroke-opacity="0"></use></g></g><g><use xlink:href="#d2ASWEW3aY" opacity="1" fill="#407bff" fill-opacity="1"></use><g><use xlink:href="#d2ASWEW3aY" opacity="1" fill-opacity="0" stroke="#000000" stroke-width="1" stroke-opacity="0"></use></g></g><g><use xlink:href="#b409y47jSS" opacity="1" fill="#000000" fill-opacity="0"></use><g><use xlink:href="#b409y47jSS" opacity="1" fill-opacity="0" stroke="#263238" stroke-width="1.03" stroke-opacity="1"></use></g></g><g><use xlink:href="#c580TgrFjW" opacity="1" fill="#000000" fill-opacity="0"></use><g><use xlink:href="#c580TgrFjW" opacity="1" fill-opacity="0" stroke="#263238" stroke-width="1.03" stroke-opacity="1"></use></g></g><g><use xlink:href="#aHT0yaNt0" opacity="1" fill="#000000" fill-opacity="0"></use><g><use xlink:href="#aHT0yaNt0" opacity="1" fill-opacity="0" stroke="#263238" stroke-width="1.03" stroke-opacity="1"></use></g></g><g><use xlink:href="#b1hlHuPojA" opacity="1" fill="#000000" fill-opacity="0"></use><g><use xlink:href="#b1hlHuPojA" opacity="1" fill-opacity="0" stroke="#263238" stroke-width="1.03" stroke-opacity="1"></use></g></g><g><use xlink:href="#aaBv8NqeY" opacity="1" fill="#000000" fill-opacity="0"></use><g><use xlink:href="#aaBv8NqeY" opacity="1" fill-opacity="0" stroke="#263238" stroke-width="1.03" stroke-opacity="1"></use></g></g><g><use xlink:href="#b1BlTlFkjw" opacity="1" fill="#000000" fill-opacity="0"></use><g><use xlink:href="#b1BlTlFkjw" opacity="1" fill-opacity="0" stroke="#263238" stroke-width="1.03" stroke-opacity="1"></use></g></g><g><use xlink:href="#b2oKcQnQJt" opacity="1" fill="#000000" fill-opacity="0"></use><g><use xlink:href="#b2oKcQnQJt" opacity="1" fill-opacity="0" stroke="#263238" stroke-width="1.03" stroke-opacity="1"></use></g></g><g><use xlink:href="#g3QHcpQZrh" opacity="1" fill="#000000" fill-opacity="0"></use><g><use xlink:href="#g3QHcpQZrh" opacity="1" fill-opacity="0" stroke="#263238" stroke-width="1.03" stroke-opacity="1"></use></g></g><g><use xlink:href="#k6pPBn2I0" opacity="1" fill="#000000" fill-opacity="0"></use><g><use xlink:href="#k6pPBn2I0" opacity="1" fill-opacity="0" stroke="#263238" stroke-width="1.03" stroke-opacity="1"></use></g></g><g><use xlink:href="#a2RkTDI3Rx" opacity="1" fill="#407bff" fill-opacity="1"></use><g><use xlink:href="#a2RkTDI3Rx" opacity="1" fill-opacity="0" stroke="#000000" stroke-width="1" stroke-opacity="0"></use></g></g><g><use xlink:href="#a5dzePtmpX" opacity="1" fill="#407bff" fill-opacity="1"></use><g><use xlink:href="#a5dzePtmpX" opacity="1" fill-opacity="0" stroke="#000000" stroke-width="1" stroke-opacity="0"></use></g></g><g><use xlink:href="#p2fTc7ay1" opacity="1" fill="#407bff" fill-opacity="1"></use><g><use xlink:href="#p2fTc7ay1" opacity="1" fill-opacity="0" stroke="#000000" stroke-width="1" stroke-opacity="0"></use></g></g><g><use xlink:href="#a1KjH5xcTh" opacity="1" fill="#407bff" fill-opacity="1"></use><g><use xlink:href="#a1KjH5xcTh" opacity="1" fill-opacity="0" stroke="#000000" stroke-width="1" stroke-opacity="0"></use></g></g><g><use xlink:href="#alEvqObTS" opacity="1" fill="#407bff" fill-opacity="1"></use><g><use xlink:href="#alEvqObTS" opacity="1" fill-opacity="0" stroke="#000000" stroke-width="1" stroke-opacity="0"></use></g></g><g><use xlink:href="#bkXD3VPNT" opacity="1" fill="#407bff" fill-opacity="1"></use><g><use xlink:href="#bkXD3VPNT" opacity="1" fill-opacity="0" stroke="#000000" stroke-width="1" stroke-opacity="0"></use></g></g><g><use xlink:href="#b9vlgxUvD" opacity="1" fill="#407bff" fill-opacity="1"></use><g><use xlink:href="#b9vlgxUvD" opacity="1" fill-opacity="0" stroke="#000000" stroke-width="1" stroke-opacity="0"></use></g></g><g><use xlink:href="#a3dL1K7bDN" opacity="1" fill="#407bff" fill-opacity="1"></use><g><use xlink:href="#a3dL1K7bDN" opacity="1" fill-opacity="0" stroke="#000000" stroke-width="1" stroke-opacity="0"></use></g></g><g><use xlink:href="#a8MHuXdt12" opacity="1" fill="#407bff" fill-opacity="1"></use><g><use xlink:href="#a8MHuXdt12" opacity="1" fill-opacity="0" stroke="#000000" stroke-width="1" stroke-opacity="0"></use></g></g><g><use xlink:href="#f1t51WyAzx" opacity="1" fill="#000000" fill-opacity="0"></use><g><use xlink:href="#f1t51WyAzx" opacity="1" fill-opacity="0" stroke="#263238" stroke-width="1.03" stroke-opacity="1"></use></g></g><g><use xlink:href="#h1gyMzcZIX" opacity="1" fill="#000000" fill-opacity="0"></use><g><use xlink:href="#h1gyMzcZIX" opacity="1" fill-opacity="0" stroke="#263238" stroke-width="1.03" stroke-opacity="1"></use></g></g><g><use xlink:href="#i1k9cs3O2b" opacity="1" fill="#000000" fill-opacity="0"></use><g><use xlink:href="#i1k9cs3O2b" opacity="1" fill-opacity="0" stroke="#263238" stroke-width="1.03" stroke-opacity="1"></use></g></g><g><use xlink:href="#eaBYKxZ34" opacity="1" fill="#000000" fill-opacity="0"></use><g><use xlink:href="#eaBYKxZ34" opacity="1" fill-opacity="0" stroke="#263238" stroke-width="1.03" stroke-opacity="1"></use></g></g><g><use xlink:href="#aVe9RnA4h" opacity="1" fill="#000000" fill-opacity="0"></use><g><use xlink:href="#aVe9RnA4h" opacity="1" fill-opacity="0" stroke="#263238" stroke-width="1.03" stroke-opacity="1"></use></g></g><g><use xlink:href="#c151lMHNXh" opacity="1" fill="#000000" fill-opacity="0"></use><g><use xlink:href="#c151lMHNXh" opacity="1" fill-opacity="0" stroke="#263238" stroke-width="1.03" stroke-opacity="1"></use></g></g><g><use xlink:href="#b47ZfRVE2p" opacity="1" fill="#000000" fill-opacity="0"></use><g><use xlink:href="#b47ZfRVE2p" opacity="1" fill-opacity="0" stroke="#263238" stroke-width="1.03" stroke-opacity="1"></use></g></g><g><use xlink:href="#abg51IZk4" opacity="1" fill="#000000" fill-opacity="0"></use><g><use xlink:href="#abg51IZk4" opacity="1" fill-opacity="0" stroke="#263238" stroke-width="1.03" stroke-opacity="1"></use></g></g><g><use xlink:href="#bbjU30CtW" opacity="1" fill="#000000" fill-opacity="0"></use><g><use xlink:href="#bbjU30CtW" opacity="1" fill-opacity="0" stroke="#263238" stroke-width="1.03" stroke-opacity="1"></use></g></g><g><use xlink:href="#i3UwNgKnZE" opacity="1" fill="#000000" fill-opacity="0"></use><g><use xlink:href="#i3UwNgKnZE" opacity="1" fill-opacity="0" stroke="#263238" stroke-width="1.03" stroke-opacity="1"></use></g></g><g><use xlink:href="#d2nws2z1Ye" opacity="1" fill="#263238" fill-opacity="1"></use><g><use xlink:href="#d2nws2z1Ye" opacity="1" fill-opacity="0" stroke="#000000" stroke-width="1" stroke-opacity="0"></use></g></g><g><use xlink:href="#e4TthiHlg" opacity="1" fill="#263238" fill-opacity="1"></use><g><use xlink:href="#e4TthiHlg" opacity="1" fill-opacity="0" stroke="#000000" stroke-width="1" stroke-opacity="0"></use></g></g><g><use xlink:href="#cap2SJfEj" opacity="1" fill="#ffffff" fill-opacity="1"></use><g><use xlink:href="#cap2SJfEj" opacity="1" fill-opacity="0" stroke="#263238" stroke-width="1.03" stroke-opacity="1"></use></g></g><g><use xlink:href="#ahCYNywP4" opacity="1" fill="#000000" fill-opacity="1"></use><g><use xlink:href="#ahCYNywP4" opacity="1" fill-opacity="0" stroke="#263238" stroke-width="1.03" stroke-opacity="1"></use></g></g><g><use xlink:href="#c1lsvn5MOZ" opacity="1" fill="#ffffff" fill-opacity="1"></use><g><use xlink:href="#c1lsvn5MOZ" opacity="1" fill-opacity="0" stroke="#263238" stroke-width="1.03" stroke-opacity="1"></use></g></g><g><use xlink:href="#b3CySRAOAK" opacity="1" fill="#000000" fill-opacity="1"></use><g><use xlink:href="#b3CySRAOAK" opacity="1" fill-opacity="0" stroke="#263238" stroke-width="1.03" stroke-opacity="1"></use></g></g><g><use xlink:href="#c1sBlxkd6J" opacity="1" fill="#263238" fill-opacity="1"></use><g><use xlink:href="#c1sBlxkd6J" opacity="1" fill-opacity="0" stroke="#263238" stroke-width="1.03" stroke-opacity="1"></use></g></g><g><use xlink:href="#aRvDPacUr" opacity="1" fill="#eac2ad" fill-opacity="1"></use><g><use xlink:href="#aRvDPacUr" opacity="1" fill-opacity="0" stroke="#263238" stroke-width="1.03" stroke-opacity="1"></use></g></g><g><use xlink:href="#aP7WIYgVn" opacity="1" fill="#407bff" fill-opacity="1"></use><g><use xlink:href="#aP7WIYgVn" opacity="1" fill-opacity="0" stroke="#263238" stroke-width="1.03" stroke-opacity="1"></use></g></g><g><use xlink:href="#f53gmVxwss" opacity="1" fill="#000000" fill-opacity="0"></use><g><use xlink:href="#f53gmVxwss" opacity="1" fill-opacity="0" stroke="#263238" stroke-width="1.03" stroke-opacity="1"></use></g></g><g><use xlink:href="#k3hUgDaqTD" opacity="1" fill="#000000" fill-opacity="0"></use><g><use xlink:href="#k3hUgDaqTD" opacity="1" fill-opacity="0" stroke="#263238" stroke-width="1.03" stroke-opacity="1"></use></g></g><g><use xlink:href="#a1EXfRcyJC" opacity="1" fill="#000000" fill-opacity="0"></use><g><use xlink:href="#a1EXfRcyJC" opacity="1" fill-opacity="0" stroke="#263238" stroke-width="1.03" stroke-opacity="1"></use></g></g><g><use xlink:href="#dv2uzPZ7Q" opacity="1" fill="#000000" fill-opacity="0"></use><g><use xlink:href="#dv2uzPZ7Q" opacity="1" fill-opacity="0" stroke="#263238" stroke-width="1.03" stroke-opacity="1"></use></g></g><g><use xlink:href="#cmK7abNCY" opacity="1" fill="#000000" fill-opacity="0"></use><g><use xlink:href="#cmK7abNCY" opacity="1" fill-opacity="0" stroke="#263238" stroke-width="1.03" stroke-opacity="1"></use></g></g><g><use xlink:href="#a1a5daUQ2G" opacity="1" fill="#000000" fill-opacity="0"></use><g><use xlink:href="#a1a5daUQ2G" opacity="1" fill-opacity="0" stroke="#263238" stroke-width="1.03" stroke-opacity="1"></use></g></g><g><use xlink:href="#c4CZNRpeHi" opacity="1" fill="#000000" fill-opacity="0"></use><g><use xlink:href="#c4CZNRpeHi" opacity="1" fill-opacity="0" stroke="#263238" stroke-width="1.03" stroke-opacity="1"></use></g></g><g><use xlink:href="#g1L92HcROo" opacity="1" fill="#000000" fill-opacity="0"></use><g><use xlink:href="#g1L92HcROo" opacity="1" fill-opacity="0" stroke="#263238" stroke-width="1.03" stroke-opacity="1"></use></g></g><g><use xlink:href="#a1JmxK9nRf" opacity="1" fill="#000000" fill-opacity="0"></use><g><use xlink:href="#a1JmxK9nRf" opacity="1" fill-opacity="0" stroke="#263238" stroke-width="1.03" stroke-opacity="1"></use></g></g><g><use xlink:href="#b1QQe0DSQ3" opacity="1" fill="#eac2ad" fill-opacity="1"></use><g><use xlink:href="#b1QQe0DSQ3" opacity="1" fill-opacity="0" stroke="#263238" stroke-width="1.03" stroke-opacity="1"></use></g></g><g><use xlink:href="#g4Sbww2j05" opacity="1" fill="#263238" fill-opacity="1"></use><g><use xlink:href="#g4Sbww2j05" opacity="1" fill-opacity="0" stroke="#263238" stroke-width="1.03" stroke-opacity="1"></use></g></g><g><use xlink:href="#bLa5q3cwP" opacity="1" fill="#263238" fill-opacity="1"></use><g><use xlink:href="#bLa5q3cwP" opacity="1" fill-opacity="0" stroke="#000000" stroke-width="1" stroke-opacity="0"></use></g></g><g><use xlink:href="#b1uUtnXmBK" opacity="1" fill="#000000" fill-opacity="0"></use><g><use xlink:href="#b1uUtnXmBK" opacity="1" fill-opacity="0" stroke="#263238" stroke-width="1.03" stroke-opacity="1"></use></g></g><g><use xlink:href="#c5ap6mjRf" opacity="1" fill="#000000" fill-opacity="0"></use><g><use xlink:href="#c5ap6mjRf" opacity="1" fill-opacity="0" stroke="#ffffff" stroke-width="1.03" stroke-opacity="1"></use></g></g></g></g></svg>