<?xml version="1.0" encoding="UTF-8" standalone="no"?>
<!DOCTYPE svg PUBLIC "-//W3C//DTD SVG 1.1//EN" "http://www.w3.org/Graphics/SVG/1.1/DTD/svg11.dtd">
<svg version="1.1" xmlns="http://www.w3.org/2000/svg" xmlns:xlink="http://www.w3.org/1999/xlink" preserveAspectRatio="xMidYMid meet" viewBox="0 0 640 640" width="640" height="640"><defs><path d="M0 489.47C0 489.47 0 489.47 0 489.47C0 489.66 0 489.77 0 489.79C0 489.79 0 489.79 0 489.79C384 489.79 597.33 489.79 640 489.79C640 489.79 640 489.79 640 489.79C640 489.6 640 489.49 640 489.47C640 489.47 640 489.47 640 489.47C256 489.47 42.67 489.47 0 489.47Z" id="bMwy7uZBe"></path><path d="M494.26 499.74C494.26 499.74 494.26 499.74 494.26 499.74C494.26 499.93 494.26 500.04 494.26 500.06C494.26 500.06 494.26 500.06 494.26 500.06C520.68 500.06 535.36 500.06 538.29 500.06C538.29 500.06 538.29 500.06 538.29 500.06C538.29 499.87 538.29 499.76 538.29 499.74C538.29 499.74 538.29 499.74 538.29 499.74C511.87 499.74 497.19 499.74 494.26 499.74Z" id="fY9XuGJz8"></path><path d="M472.67 499.74C472.67 499.74 472.67 499.74 472.67 499.74C472.67 499.93 472.67 500.04 472.67 500.06C472.67 500.06 472.67 500.06 472.67 500.06C480.56 500.06 484.95 500.06 485.82 500.06C485.82 500.06 485.82 500.06 485.82 500.06C485.82 499.87 485.82 499.76 485.82 499.74C485.82 499.74 485.82 499.74 485.82 499.74C477.93 499.74 473.54 499.74 472.67 499.74Z" id="ah8SwfNAl"></path><path d="M407.74 493.45C407.74 493.45 407.74 493.45 407.74 493.45C407.74 493.64 407.74 493.75 407.74 493.77C407.74 493.77 407.74 493.77 407.74 493.77C422.61 493.77 430.87 493.77 432.52 493.77C432.52 493.77 432.52 493.77 432.52 493.77C432.52 493.58 432.52 493.47 432.52 493.45C432.52 493.45 432.52 493.45 432.52 493.45C417.66 493.45 409.4 493.45 407.74 493.45Z" id="c1ehRlUYDi"></path><path d="M88.82 506.84C88.82 506.84 88.82 506.84 88.82 506.84C88.82 507.03 88.82 507.14 88.82 507.16C88.82 507.16 88.82 507.16 88.82 507.16C121.99 507.16 140.42 507.16 144.1 507.16C144.1 507.16 144.1 507.16 144.1 507.16C144.1 506.97 144.1 506.86 144.1 506.84C144.1 506.84 144.1 506.84 144.1 506.84C110.93 506.84 92.5 506.84 88.82 506.84Z" id="b97piFCgj"></path><path d="M69.31 506.84C69.31 506.84 69.31 506.84 69.31 506.84C69.31 507.03 69.31 507.14 69.31 507.16C69.31 507.16 69.31 507.16 69.31 507.16C74.17 507.16 76.87 507.16 77.41 507.16C77.41 507.16 77.41 507.16 77.41 507.16C77.41 506.97 77.41 506.86 77.41 506.84C77.41 506.84 77.41 506.84 77.41 506.84C72.55 506.84 69.85 506.84 69.31 506.84Z" id="a54JH4Fgte"></path><path d="M130.11 495.6C130.11 495.6 130.11 495.6 130.11 495.6C130.11 495.8 130.11 495.9 130.11 495.92C130.11 495.92 130.11 495.92 130.11 495.92C202.06 495.92 242.03 495.92 250.02 495.92C250.02 495.92 250.02 495.92 250.02 495.92C250.02 495.73 250.02 495.62 250.02 495.6C250.02 495.6 250.02 495.6 250.02 495.6C178.08 495.6 138.11 495.6 130.11 495.6Z" id="d1dcu89A2r"></path><path d="M583.8 432.38C587.83 432.38 591.09 429.11 591.09 425.08C591.09 390.33 591.09 112.39 591.09 77.64C591.06 73.64 587.8 70.41 583.8 70.4C559.08 70.4 361.36 70.4 336.64 70.4C332.6 70.4 329.33 73.67 329.33 77.71C329.33 77.71 329.33 77.71 329.33 77.71C329.33 112.45 329.33 390.34 329.33 425.08C329.33 429.11 332.6 432.38 336.64 432.38C336.64 432.38 336.64 432.38 336.64 432.38C386.07 432.38 559.08 432.38 583.8 432.38ZM583.8 70.66C587.65 70.66 590.77 73.79 590.77 77.64C590.77 112.39 590.77 390.33 590.77 425.08C590.77 428.93 587.65 432.06 583.8 432.06C559.08 432.06 361.36 432.06 336.64 432.06C332.78 432.06 329.66 428.93 329.65 425.08C329.65 390.33 329.65 112.39 329.65 77.64C329.66 73.79 332.78 70.66 336.64 70.66C386.07 70.66 534.36 70.66 583.8 70.66Z" id="a6AVF3zrd"></path><path d="M325.93 432.38C329.96 432.38 333.23 429.11 333.24 425.08C333.24 390.33 333.24 112.39 333.24 77.64C333.2 73.64 329.94 70.41 325.93 70.4C301.21 70.4 103.48 70.4 78.76 70.4C74.76 70.41 71.52 73.64 71.48 77.64C71.48 112.39 71.48 390.33 71.48 425.08C71.48 429.1 74.74 432.37 78.76 432.38C78.76 432.38 301.21 432.38 325.93 432.38ZM325.93 70.66C329.79 70.66 332.91 73.79 332.92 77.64C332.92 112.39 332.92 390.33 332.92 425.08C332.91 428.93 329.79 432.06 325.93 432.06C301.21 432.06 103.48 432.06 78.76 432.06C74.91 432.06 71.78 428.93 71.77 425.08C71.77 390.33 71.77 112.39 71.77 77.64C71.78 73.79 74.91 70.66 78.76 70.66C128.2 70.66 276.5 70.66 325.93 70.66Z" id="cRsHCCiJn"></path><path d="M103.65 315.02C103.65 315.02 103.65 315.02 103.65 315.02C103.65 419.69 103.65 477.84 103.65 489.47C103.65 489.47 103.65 489.47 103.65 489.47C157.47 489.47 187.36 489.47 193.34 489.47C193.34 489.47 193.34 489.47 193.34 489.47C193.34 384.8 193.34 326.65 193.34 315.02C193.34 315.02 193.34 315.02 193.34 315.02C139.53 315.02 109.63 315.02 103.65 315.02Z" id="a1hjVx0KGv"></path><path d="M103.65 315.02C103.65 315.02 103.65 315.02 103.65 315.02C103.65 419.69 103.65 477.84 103.65 489.47C103.65 489.47 103.65 489.47 103.65 489.47C108.09 489.47 110.56 489.47 111.05 489.47C111.05 489.47 111.05 489.47 111.05 489.47C111.05 384.8 111.05 326.65 111.05 315.02C111.05 315.02 111.05 315.02 111.05 315.02C106.61 315.02 104.15 315.02 103.65 315.02Z" id="dlPTyE6fU"></path><path d="M392.93 357.68C392.93 357.68 392.93 357.68 392.93 357.68C392.93 335.07 392.93 322.51 392.93 320C392.93 320 392.93 320 392.93 320C269.03 320 200.2 320 186.43 320C186.43 320 186.43 320 186.43 320C186.43 342.61 186.43 355.17 186.43 357.68C186.43 357.68 186.43 357.68 186.43 357.68C310.33 357.68 379.17 357.68 392.93 357.68Z" id="b3Ryyuvj5"></path><path d="M395.37 489.6C396.07 489.6 396.65 489.03 396.65 488.32C396.65 487.61 396.07 487.04 395.37 487.04C386.51 487.04 315.68 487.04 306.83 487.04C294.03 487.04 292.33 483.3 292.33 468.48C292.33 449.79 292.33 300.29 292.33 281.6C292.33 280.89 291.75 280.32 291.05 280.32C290.34 280.32 289.77 280.89 289.77 281.6C289.77 300.29 289.77 449.79 289.77 468.48C289.77 484.33 292.22 489.6 306.83 489.6C324.54 489.6 386.51 489.6 395.37 489.6Z" id="a8GBPe9wf"></path><path d="M385 328.78C385 328.78 385 328.78 385 328.78C385 320.93 385 316.57 385 315.7C385 315.7 385 315.7 385 315.7C217.41 315.7 124.3 315.7 105.68 315.7C105.68 315.7 105.68 315.7 105.68 315.7C105.68 323.55 105.68 327.91 105.68 328.78C105.68 328.78 105.68 328.78 105.68 328.78C273.27 328.78 366.38 328.78 385 328.78Z" id="b5ERbOvU0y"></path><path d="M382.98 315.02C382.98 315.02 382.98 315.02 382.98 315.02C382.98 419.69 382.98 477.84 382.98 489.47C382.98 489.47 382.98 489.47 382.98 489.47C436.79 489.47 466.69 489.47 472.67 489.47C472.67 489.47 472.67 489.47 472.67 489.47C472.67 384.8 472.67 326.65 472.67 315.02C472.67 315.02 472.67 315.02 472.67 315.02C418.85 315.02 388.96 315.02 382.98 315.02Z" id="er63TDMP"></path><path d="M382.99 315.02C382.99 315.02 382.99 315.02 382.99 315.02C382.99 419.69 382.99 477.84 382.99 489.47C382.99 489.47 382.99 489.47 382.99 489.47C387.43 489.47 389.89 489.47 390.39 489.47C390.39 489.47 390.39 489.47 390.39 489.47C390.39 384.8 390.39 326.65 390.39 315.02C390.39 315.02 390.39 315.02 390.39 315.02C385.95 315.02 383.48 315.02 382.99 315.02Z" id="jF4qMg14J"></path><path d="M446.49 489.47C446.49 489.47 446.49 489.47 446.49 489.47C492.67 489.47 518.32 489.47 523.46 489.47C523.46 489.47 523.46 489.47 523.46 489.47C523.46 303.08 523.46 199.53 523.46 178.82C523.46 178.82 523.46 178.82 523.46 178.82C477.28 178.82 451.62 178.82 446.49 178.82C446.49 178.82 446.49 178.82 446.49 178.82C446.49 365.21 446.49 468.76 446.49 489.47Z" id="i43nW69Lxy"></path><path d="M450.71 256.41C450.71 256.41 450.71 256.41 450.71 256.41C491.82 256.41 514.66 256.41 519.23 256.41C519.23 256.41 519.23 256.41 519.23 256.41C519.23 215.3 519.23 192.46 519.23 187.89C519.23 187.89 519.23 187.89 519.23 187.89C478.12 187.89 455.28 187.89 450.71 187.89C450.71 187.89 450.71 187.89 450.71 187.89C450.71 229 450.71 251.84 450.71 256.41Z" id="b15SUWap4G"></path><path d="M469.76 186.97C469.76 190.89 472.94 194.07 476.86 194.07C476.86 194.07 476.86 194.07 476.86 194.07C478.48 194.07 491.38 194.07 492.99 194.07C496.92 194.1 500.12 190.94 500.15 187.02C500.15 187 500.15 186.99 500.15 186.97C494.07 186.97 472.8 186.97 469.76 186.97Z" id="c1yhRlcQ5a"></path><path d="M450.73 331.07C450.73 331.07 450.73 331.07 450.73 331.07C491.84 331.07 514.68 331.07 519.24 331.07C519.24 331.07 519.24 331.07 519.24 331.07C519.24 289.96 519.24 267.12 519.24 262.55C519.24 262.55 519.24 262.55 519.24 262.55C478.13 262.55 455.29 262.55 450.73 262.55C450.73 262.55 450.73 262.55 450.73 262.55C450.73 303.66 450.73 326.5 450.73 331.07Z" id="c18x4H1YEc"></path><path d="M450.71 405.73C450.71 405.73 450.71 405.73 450.71 405.73C491.82 405.73 514.66 405.73 519.23 405.73C519.23 405.73 519.23 405.73 519.23 405.73C519.23 364.62 519.23 341.78 519.23 337.22C519.23 337.22 519.23 337.22 519.23 337.22C478.12 337.22 455.28 337.22 450.71 337.22C450.71 337.22 450.71 337.22 450.71 337.22C450.71 378.33 450.71 401.17 450.71 405.73Z" id="cwoG77uz7"></path><path d="M450.71 480.41C450.71 480.41 450.71 480.41 450.71 480.41C491.82 480.41 514.66 480.41 519.23 480.41C519.23 480.41 519.23 480.41 519.23 480.41C519.23 439.3 519.23 416.46 519.23 411.89C519.23 411.89 519.23 411.89 519.23 411.89C478.12 411.89 455.28 411.89 450.71 411.89C450.71 411.89 450.71 411.89 450.71 411.89C450.71 453 450.71 475.84 450.71 480.41Z" id="e1qdQhkYCe"></path><path d="M469.76 261.64C469.77 265.57 472.94 268.74 476.86 268.75C478.48 268.75 491.38 268.75 492.99 268.75C496.92 268.77 500.13 265.6 500.15 261.67C500.15 261.66 500.15 261.65 500.15 261.64C494.07 261.64 472.8 261.64 469.76 261.64Z" id="i3jWEuNU58"></path><path d="M469.76 336.31C469.76 340.23 472.94 343.41 476.86 343.41C476.86 343.41 476.86 343.41 476.86 343.41C478.48 343.41 491.38 343.41 492.99 343.41C496.92 343.44 500.12 340.28 500.15 336.36C500.15 336.34 500.15 336.32 500.15 336.31C494.07 336.31 472.8 336.31 469.76 336.31Z" id="c37p6LZKz"></path><path d="M469.76 410.97C469.76 414.89 472.94 418.07 476.86 418.07C476.86 418.07 476.86 418.07 476.86 418.07C478.48 418.07 491.38 418.07 492.99 418.07C496.92 418.1 500.12 414.94 500.15 411.02C500.15 411 500.15 410.99 500.15 410.97C494.07 410.97 472.8 410.97 469.76 410.97Z" id="g4YijNyMS"></path><path d="M523.46 489.47C523.46 489.47 523.46 489.47 523.46 489.47C546.52 489.47 559.33 489.47 561.89 489.47C561.89 489.47 561.89 489.47 561.89 489.47C561.89 303.08 561.89 199.53 561.89 178.82C561.89 178.82 561.89 178.82 561.89 178.82C538.83 178.82 526.02 178.82 523.46 178.82C523.46 178.82 523.46 178.82 523.46 178.82C523.46 365.21 523.46 468.76 523.46 489.47Z" id="j26u3nUHwo"></path><path d="M320.92 315.02L316.22 277.36L296.87 277.36L301.58 315.02L301.58 315.02L320.92 315.02Z" id="b1QYNLeB7L"></path><path d="M316.65 315.02L311.94 277.36L292.6 277.36L297.29 315.02L297.29 315.02L316.65 315.02Z" id="dGoGmbGE"></path><path d="M269.79 315.02L272.46 310.76L258.48 310.76L255.8 315.02L255.8 315.02L269.79 315.02Z" id="cgPO2QCVG"></path><path d="M265.51 315.02L268.19 310.76L192.26 310.76L180.84 315.02L180.84 315.02L265.51 315.02Z" id="d1p7VE4zv"></path><path d="M356.81 304.22C350.85 304.22 346.01 309.05 346.01 315.02C348.78 315.02 370.98 315.02 373.76 315.02C373.76 309.05 368.92 304.22 362.96 304.22C362.95 304.22 362.94 304.22 362.93 304.22C362.93 304.22 357.42 304.22 356.81 304.22Z" id="a15K29i5zF"></path><path d="M314.29 296.19L311.94 277.36L292.6 277.36L294.95 296.19L294.95 296.19L314.29 296.19Z" id="d7LlLoIfq"></path><path d="M229.12 291.69C228.07 291.69 227.22 290.84 227.22 289.79C227.22 289.71 227.23 289.63 227.24 289.55C228.29 281.11 236.73 213.61 237.79 205.17C237.9 204.22 238.71 203.51 239.67 203.51C253.36 203.51 362.9 203.51 376.59 203.51C377.64 203.51 378.48 204.35 378.48 205.4C378.48 205.48 378.48 205.56 378.47 205.63C377.42 214.07 368.98 281.58 367.92 290.02C367.81 290.96 367.02 291.67 366.08 291.69C338.69 291.69 242.82 291.69 229.12 291.69Z" id="b1gpF0ovbQ"></path><path d="M227.14 291.69C226.09 291.69 225.24 290.84 225.24 289.79C225.24 289.71 225.24 289.63 225.25 289.55C226.31 281.11 234.75 213.61 235.8 205.17C235.92 204.22 236.73 203.51 237.68 203.51C251.37 203.51 360.87 203.51 374.55 203.51C375.6 203.51 376.45 204.35 376.45 205.4C376.45 205.48 376.44 205.56 376.44 205.63C375.38 214.07 366.94 281.58 365.89 290.02C365.77 290.97 364.96 291.69 364.01 291.69C336.63 291.69 240.82 291.69 227.14 291.69Z" id="b1Izlv2Hzd"></path><path d="M239.54 208.04C239.58 207.77 239.81 207.57 240.08 207.58C253.22 207.58 358.35 207.58 371.49 207.58C371.78 207.57 372.01 207.79 372.02 208.07C372.03 208.1 372.02 208.13 372.02 208.17C371.03 216.07 363.14 279.26 362.15 287.16C362.12 287.42 361.89 287.62 361.63 287.62C348.48 287.62 243.34 287.62 230.2 287.62C229.9 287.61 229.66 287.37 229.67 287.07C229.67 287.05 229.67 287.03 229.67 287.01C231.64 271.22 238.55 215.94 239.54 208.04Z" id="bmK40FKk2"></path><path d="M311.21 315.02C311.21 314.78 311.21 314.65 311.21 314.62C311.21 312.89 309.8 311.49 308.07 311.49C305.55 311.49 285.35 311.49 282.83 311.49C281.1 311.49 279.69 312.89 279.69 314.62C279.69 314.65 279.69 314.78 279.69 315.02L311.21 315.02Z" id="abyZG17x"></path><path d="M328.91 315.02C328.91 314.78 328.91 314.65 328.91 314.62C328.91 312.89 327.5 311.49 325.77 311.49C324.26 311.49 312.18 311.49 310.67 311.49C308.94 311.49 307.53 312.89 307.53 314.62C307.53 314.65 307.53 314.78 307.53 315.02L328.91 315.02Z" id="a3f91SW9ux"></path><path d="M490.93 143.73C490.93 143.69 490.93 143.67 490.93 143.67C490.64 142.68 490.36 141.68 490.11 140.68C489.23 142.08 487.74 142.98 486.09 143.1C486.06 143.1 485.78 143.1 485.75 143.1C483.61 142.9 481.56 140.83 480.27 137.56C480.22 137.44 480.22 137.31 480.27 137.19C480.33 137.07 480.44 136.99 480.56 136.95C483.67 136.16 486.96 136.73 489.61 138.52C489.42 137.57 489.25 136.61 489.11 135.67C488.78 135.73 488.43 135.77 488.09 135.77C484.61 135.77 482.05 132.66 481.92 132.51C481.76 132.31 481.79 132.02 481.99 131.86C482.03 131.83 482.07 131.81 482.11 131.79C483.75 130.98 485.65 130.9 487.35 131.58C488.24 132.04 488.96 132.77 489.41 133.67C490.74 129.59 494.24 126.59 498.48 125.91C498.61 125.88 498.75 125.92 498.85 126C498.96 126.08 499.03 126.2 499.03 126.34C499.21 129.5 499.11 133.38 496.74 135.22C495.75 135.95 494.54 136.32 493.31 136.27C492.21 136.24 491.12 136.07 490.06 135.76C490.4 138.04 490.89 140.31 491.53 142.53C493.85 139.37 497.14 137.06 500.89 135.95C501.14 135.89 501.38 136.04 501.45 136.28C502.17 139.01 501.8 141.22 500.39 142.68C498.94 143.98 497.03 144.64 495.09 144.5C494.06 144.49 493.03 144.39 492.02 144.18C492.61 146.05 493.3 147.88 493.95 149.62C495.37 148.34 499.56 145.16 504.12 146.5C504.24 146.54 504.34 146.62 504.4 146.74C504.45 146.86 504.45 146.99 504.4 147.11C503.12 150.13 501.75 151.81 499.98 152.38C499.51 152.54 499.02 152.62 498.52 152.61C497.17 152.56 495.85 152.17 494.68 151.49C495.65 153.8 496.69 155.97 497.68 157.89C500.06 155.46 503.58 154.52 506.85 155.46C507.08 155.5 507.24 155.71 507.21 155.94C506.98 157.91 505.72 159.61 503.9 160.4C503.22 160.69 502.49 160.84 501.76 160.83C500.74 160.82 499.74 160.56 498.84 160.08C499.84 161.93 500.76 163.48 501.48 164.66C502.35 164.66 509.31 164.66 510.18 164.66C511.56 162.29 513.16 159.35 514.73 156.04C514 156.26 513.25 156.38 512.49 156.39C509.13 156.43 506.37 153.74 506.33 150.39C506.32 149.85 506.39 149.32 506.52 148.8C506.58 148.58 506.8 148.45 507.02 148.48C510.63 148.83 513.84 150.92 515.62 154.07C516.65 151.77 517.64 149.32 518.52 146.8C517.41 147.43 516.17 147.79 514.89 147.85C514.39 147.86 513.89 147.78 513.41 147.61C510.85 146.76 509.38 143.68 508.12 140.48C508.06 140.36 508.06 140.23 508.12 140.11C508.18 139.99 508.29 139.9 508.42 139.87C513.54 138.43 517.75 143.36 519.05 145.13C519.74 143 520.3 140.83 520.76 138.64C519.68 138.85 518.59 138.96 517.49 138.97C515.29 139.13 513.12 138.37 511.5 136.87C509.95 135.23 509.58 132.77 510.41 129.78C510.47 129.54 510.72 129.39 510.96 129.45C510.96 129.46 510.97 129.46 510.98 129.46C515.06 130.73 518.62 133.31 521.1 136.79C521.12 136.68 521.27 135.75 521.29 135.63C521.31 135.53 521.35 135.43 521.42 135.36C521.85 133.83 522.9 132.55 524.33 131.84C526.19 131.12 528.28 131.23 530.06 132.15C530.2 132.21 530.3 132.32 530.34 132.47C530.37 132.61 530.34 132.76 530.24 132.86C530.11 133.03 527.3 136.36 523.51 136.36C523.1 136.35 522.69 136.31 522.29 136.23C522.12 137.32 521.92 138.41 521.69 139.48C524.64 137.54 528.29 136.95 531.7 137.87C531.83 137.91 531.93 138 531.99 138.11C532.04 138.23 532.04 138.37 531.99 138.5C530.52 142.05 528.24 144.31 525.89 144.5C525.86 144.5 525.6 144.5 525.57 144.5C524.38 144.5 522.76 143.95 521.13 141.76C520.48 144.25 519.7 146.7 518.8 149.11C521.01 148.06 525.99 146.25 529.55 149C529.75 149.15 529.79 149.43 529.65 149.63C529.65 149.64 529.64 149.64 529.64 149.64C527.33 152.78 525.21 154.3 523.12 154.3C523.12 154.3 523.12 154.3 523.12 154.3C521.4 154.3 519.74 153.22 518.09 151.07C517.15 153.42 516.12 155.67 515.11 157.75C517.32 156.38 519.76 156.6 522.62 158.4C522.76 158.48 522.84 158.63 522.84 158.78C522.85 158.94 522.78 159.08 522.65 159.17C520.94 160.4 518.93 161.13 516.83 161.28C515.74 161.3 514.68 160.98 513.79 160.36C512.97 161.93 512.17 163.38 511.42 164.67C511.69 164.67 513.01 164.67 515.38 164.67L515.38 166.92L513.95 166.92L512.76 178.85L495.23 178.85L494.05 166.92L492.61 166.92L492.61 164.67C497.33 164.67 499.96 164.67 500.48 164.67C499.61 163.23 498.5 161.29 497.31 159.03C497.27 158.98 497.24 158.93 497.23 158.87C496.92 158.3 496.63 157.71 496.32 157.09C495.26 158.69 493.5 159.68 491.58 159.74C491.39 159.76 491.19 159.76 491 159.74C488.87 159.5 487.06 158.09 486.31 156.08C486.23 155.87 486.32 155.64 486.52 155.53C489.24 153.99 492.53 153.86 495.37 155.17C494.71 153.78 494.09 152.28 493.43 150.73C493.38 150.68 493.35 150.6 493.34 150.53C493.16 150.09 492.99 149.66 492.81 149.25C491.29 151.17 489.78 152.12 488.2 152.12C488.2 152.12 488.2 152.12 488.2 152.12C486.3 152.12 484.36 150.71 482.29 147.8C482.14 147.6 482.18 147.31 482.38 147.16C485.64 144.72 490.06 146.39 492.13 147.37C491.71 146.21 491.33 145.05 490.97 143.86C490.96 143.84 490.95 143.8 490.93 143.73Z" id="cLYc1A8k2"></path><path d="M124.84 138.33C124.84 138.33 124.84 138.33 124.84 138.33C124.84 181.45 124.84 205.41 124.84 210.2C124.84 210.2 124.84 210.2 124.84 210.2C164.11 210.2 185.93 210.2 190.3 210.2C190.3 210.2 190.3 210.2 190.3 210.2C190.3 167.08 190.3 143.12 190.3 138.33C190.3 138.33 190.3 138.33 190.3 138.33C151.02 138.33 129.2 138.33 124.84 138.33Z" id="d3WWQMzOd"></path><path d="M133.08 141.27C133.24 141.17 148.7 131.98 153.56 131.98C158.43 131.98 173.21 141.17 173.36 141.26C173.5 141.35 173.7 141.32 173.79 141.17C173.79 141.17 173.8 141.16 173.8 141.16C173.89 141.01 173.84 140.82 173.7 140.72C173.08 140.34 158.66 131.34 153.56 131.34C148.47 131.34 133.34 140.3 132.7 140.72C132.55 140.81 132.5 141 132.59 141.14C132.59 141.15 132.59 141.15 132.6 141.16C132.67 141.26 132.8 141.3 132.92 141.27C132.97 141.29 133.03 141.29 133.08 141.27Z" id="a37haIt4B"></path><path d="M117.76 138.33C117.76 138.33 117.76 138.33 117.76 138.33C117.76 181.45 117.76 205.41 117.76 210.2C117.76 210.2 117.76 210.2 117.76 210.2C158.33 210.2 180.86 210.2 185.37 210.2C185.37 210.2 185.37 210.2 185.37 210.2C185.37 167.08 185.37 143.12 185.37 138.33C185.37 138.33 185.37 138.33 185.37 138.33C144.8 138.33 122.27 138.33 117.76 138.33Z" id="i1Q86Tk0wy"></path><path d="M123.42 204.53C123.42 204.53 123.42 204.53 123.42 204.53C157.19 204.53 175.95 204.53 179.7 204.53C179.7 204.53 179.7 204.53 179.7 204.53C179.7 168.2 179.7 148.02 179.7 143.99C179.7 143.99 179.7 143.99 179.7 143.99C145.93 143.99 127.17 143.99 123.42 143.99C123.42 143.99 123.42 143.99 123.42 143.99C123.42 180.31 123.42 200.49 123.42 204.53Z" id="c1JDxHJYa"></path><path d="M162.47 163.35C168.49 169.38 168.49 179.14 162.47 185.17C156.45 191.19 146.68 191.19 140.66 185.17C134.63 179.14 134.63 169.38 140.66 163.35C146.68 157.33 156.45 157.33 162.47 163.35Z" id="a148W39MD"></path><path d="M152.87 402.24C118.45 402.24 99.33 402.24 95.5 402.24C84.55 402.25 75.61 393.49 75.39 382.54C75.18 372.04 73.46 288.01 73.24 277.5C73.08 269.41 79.51 262.72 87.6 262.56C87.7 262.55 87.8 262.55 87.9 262.55C91.49 262.55 120.27 262.55 123.87 262.55C131.32 262.55 137.58 268.14 138.42 275.55C140.35 292.44 145.16 334.67 152.87 402.24Z" id="b1RD3qyk"></path><path d="M182.69 402.24C184.28 402.24 185.56 400.96 185.56 399.37C185.56 399.37 185.56 399.37 185.56 399.37C185.56 399.35 185.56 399.13 185.56 399.1C185.56 394.76 182.04 391.24 177.7 391.24C173.96 391.24 155.25 391.24 121.56 391.24L121.56 402.24C158.24 402.24 178.62 402.24 182.69 402.24Z" id="aaqL8oW2wP"></path><path d="M127.67 489.89C128.86 484.14 134.84 455.34 145.59 403.52L176.82 403.52C187.57 455.34 193.54 484.14 194.74 489.89C194.88 490.6 195.57 491.06 196.28 490.91C196.99 490.77 197.44 490.08 197.3 489.37C195.48 480.63 180.96 410.72 179.15 401.98C179.03 401.38 178.49 400.95 177.87 400.96C174.54 400.96 147.92 400.96 144.59 400.96C143.97 400.95 143.43 401.38 143.31 401.98C141.5 410.72 126.98 480.63 125.17 489.37C125.03 490.06 125.47 490.73 126.16 490.88C126.23 490.9 126.31 490.91 126.39 490.91C127 490.92 127.54 490.49 127.67 489.89Z" id="c5BeLdzf3l"></path><path d="M146.11 490.91C146.8 490.76 147.25 490.09 147.11 489.4C147.11 489.4 147.11 489.4 147.11 489.4C145.3 480.66 130.78 410.75 128.96 402.01C128.84 401.4 128.3 400.97 127.68 400.99C124.35 400.99 97.73 400.99 94.4 400.99C93.78 400.97 93.24 401.4 93.12 402.01C91.31 410.75 76.8 480.66 74.98 489.4C74.84 490.1 75.29 490.79 76 490.94C76.71 491.08 77.4 490.63 77.54 489.92C78.74 484.16 84.71 455.37 95.46 403.55L126.72 403.55C137.47 455.37 143.45 484.16 144.64 489.92C144.77 490.49 145.27 490.89 145.86 490.91C145.94 490.92 146.03 490.92 146.11 490.91Z" id="b3SoxpcksC"></path><path d="M71.82 532.79C71.82 540.79 182.93 547.28 320 547.28C457.07 547.28 568.18 540.79 568.18 532.79C568.18 524.78 457.07 518.3 320 518.3C182.93 518.3 71.82 524.78 71.82 532.79Z" id="adRwwxMCq"></path><path d="M298.1 520.96C298.93 520.96 299.64 520.38 299.8 519.56C301.42 511.58 309.53 471.66 324.12 399.81L366.48 399.81C381.07 471.66 389.18 511.58 390.8 519.56C391.05 520.49 392.01 521.04 392.93 520.79C393.78 520.56 394.32 519.74 394.2 518.87C391.74 506.76 372.06 409.84 369.6 397.72C369.43 396.91 368.72 396.33 367.9 396.33C363.38 396.33 327.23 396.33 322.71 396.33C321.89 396.33 321.18 396.91 321.01 397.72C318.55 409.84 298.86 506.76 296.4 518.87C296.21 519.81 296.81 520.73 297.75 520.92C297.82 520.93 298.03 520.95 298.1 520.96Z" id="g4DFUD0pNX"></path><path d="M366.08 520.96C366.91 520.95 367.61 520.37 367.78 519.56C369.4 511.58 377.51 471.66 392.1 399.81L434.46 399.81C449.05 471.66 457.16 511.58 458.78 519.56C458.91 520.52 459.78 521.18 460.74 521.05C461.69 520.93 462.36 520.05 462.23 519.1C462.22 519.02 462.2 518.95 462.18 518.87C459.72 506.76 440.03 409.84 437.57 397.72C437.4 396.91 436.69 396.33 435.87 396.33C431.35 396.33 395.2 396.33 390.68 396.33C389.86 396.33 389.15 396.91 388.99 397.72C386.53 409.84 366.84 506.76 364.38 518.87C364.19 519.81 364.8 520.73 365.73 520.92C365.8 520.93 366.01 520.95 366.08 520.96Z" id="b2xkEYvCu"></path><path d="M356.57 398.08C403.26 398.08 429.21 398.08 434.39 398.08C449.25 398.08 461.38 386.2 461.68 371.34C461.97 359.51 464.29 264.9 464.58 253.07C464.8 242.09 456.09 233.01 445.11 232.79C444.98 232.78 444.84 232.78 444.71 232.78C439.83 232.78 400.8 232.78 395.92 232.78C385.81 232.79 377.31 240.38 376.17 250.42C373.55 270.11 367.02 319.33 356.57 398.08Z" id="iqqU2IOSL"></path><path d="M322.85 383.1C316.97 383.1 312.19 387.88 312.19 393.77C312.19 393.8 312.19 394.1 312.19 394.14C312.19 396.26 313.91 397.98 316.03 397.98C321.56 397.98 349.22 397.98 399.01 397.98L399.01 383.1C353.32 383.1 327.93 383.1 322.85 383.1Z" id="j4QechJjlW"></path><path d="M298.1 520.96C298.93 520.96 299.64 520.38 299.8 519.56C301.42 511.58 309.53 471.66 324.12 399.81L366.48 399.81C381.07 471.66 389.18 511.58 390.8 519.56C391.05 520.49 392.01 521.04 392.93 520.79C393.78 520.56 394.32 519.74 394.2 518.87C391.74 506.76 372.06 409.84 369.6 397.72C369.43 396.91 368.72 396.33 367.9 396.33C363.38 396.33 327.23 396.33 322.71 396.33C321.89 396.33 321.18 396.91 321.01 397.72C318.55 409.84 298.86 506.76 296.4 518.87C296.21 519.81 296.81 520.73 297.75 520.92C297.82 520.93 298.03 520.95 298.1 520.96Z" id="b69napXnm"></path><path d="M366.08 520.96C366.91 520.95 367.61 520.37 367.78 519.56C369.4 511.58 377.51 471.66 392.1 399.81L434.46 399.81C449.05 471.66 457.16 511.58 458.78 519.56C458.91 520.52 459.78 521.18 460.74 521.05C461.69 520.93 462.36 520.05 462.23 519.1C462.22 519.02 462.2 518.95 462.18 518.87C459.72 506.76 440.03 409.84 437.57 397.72C437.4 396.91 436.69 396.33 435.87 396.33C431.35 396.33 395.2 396.33 390.68 396.33C389.86 396.33 389.15 396.91 388.99 397.72C386.53 409.84 366.84 506.76 364.38 518.87C364.19 519.81 364.8 520.73 365.73 520.92C365.8 520.93 366.01 520.95 366.08 520.96Z" id="a1lvytTGKZ"></path><path d="M356.57 398.08C403.26 398.08 429.21 398.08 434.39 398.08C449.25 398.08 461.38 386.2 461.68 371.34C461.97 359.51 464.29 264.9 464.58 253.07C464.8 242.09 456.09 233.01 445.11 232.79C444.98 232.78 444.84 232.78 444.71 232.78C439.83 232.78 400.8 232.78 395.92 232.78C385.81 232.79 377.31 240.38 376.17 250.42C373.55 270.11 367.02 319.33 356.57 398.08Z" id="b48dZVtYR"></path><path d="M322.85 383.1C316.97 383.1 312.19 387.88 312.19 393.77C312.19 393.8 312.19 394.1 312.19 394.14C312.19 396.26 313.91 397.98 316.03 397.98C321.56 397.98 349.22 397.98 399.01 397.98L399.01 383.1C353.32 383.1 327.93 383.1 322.85 383.1Z" id="b32Q5pDDu"></path><path d="M326.48 280.78C326.35 281.36 326.13 282.25 325.93 283.01C325.86 283.25 325.37 285.17 325.31 285.41C324.88 287.03 324.4 288.64 323.9 290.25C322.96 293.5 321.91 296.74 320.81 299.98C319.71 303.22 318.58 306.38 317.35 309.66C316.75 311.26 316.15 312.87 315.51 314.47C315.43 314.66 314.84 316.2 314.76 316.39C314.62 316.72 314.42 317.02 314.19 317.3C312.37 319.14 310.15 320.54 307.7 321.4C304.71 322.6 301.63 323.56 298.48 324.26C295.23 325.02 291.89 325.64 288.51 326.17C285.13 326.69 281.66 327.12 278.34 327.45C278.32 328.14 278.23 333.65 278.22 334.34C285.52 335.09 292.88 335.09 300.19 334.34C304 333.94 307.78 333.21 311.46 332.15C313.46 331.54 315.4 330.78 317.27 329.86C319.43 328.81 321.4 327.42 323.11 325.75C324.1 324.76 324.96 323.64 325.67 322.43C325.86 322.12 326.03 321.78 326.21 321.46C326.23 321.41 326.34 321.18 326.54 320.77C326.89 320 327.09 319.57 327.13 319.49C327.92 317.86 328.72 316.24 329.45 314.59C330.93 311.28 332.38 307.96 333.67 304.56C334.96 301.17 336.23 297.75 337.31 294.32C337.83 292.56 338.34 290.8 338.82 289C338.89 288.73 339.45 286.57 339.52 286.3C339.72 285.32 339.92 284.52 340.12 283.37C337.39 282.85 329.21 281.3 326.48 280.78Z" id="d3hgeXGYOb"></path><path d="M321.51 290.21C323.02 291.24 335.12 299.43 336.63 300.45C336.63 300.45 351.13 277.67 346.87 271.64C342.5 265.45 338.84 264.24 330.83 266.24C325.34 267.64 323.37 285.42 321.51 290.21Z" id="bdGnhUpis"></path><path d="M319.78 296.19C321.29 297.22 335.12 299.43 336.63 300.45C336.63 300.45 351.13 277.67 346.87 271.64C342.5 265.45 338.84 264.24 330.83 266.24C325.34 267.64 321.64 291.4 319.78 296.19Z" id="d3WtoKmOy4"></path><path d="M332.8 271.92C340.69 278.17 345.07 281.65 345.95 282.34C343.39 288.67 340.27 294.76 336.64 300.54C335.94 300.07 332.45 297.69 326.16 293.41L332.8 271.92Z" id="c1jZkltmM2"></path><path d="M337.23 346.59C342.63 346.59 385.87 346.59 391.27 346.59C390.36 324.58 390.34 311.01 400.84 265.84C393.28 264.28 385.61 263.27 377.89 262.82C369.72 262.24 361.51 262.24 353.33 262.82C342.78 263.83 330.83 266.24 330.83 266.24C332.11 282.31 324.43 268.47 337.23 346.59Z" id="d10RHSCqsX"></path><path d="M337.23 346.59C342.12 352.09 364.58 349.78 379.14 347.97C385.08 347.24 389.7 346.59 391.27 346.59C390.36 324.58 390.34 311.01 400.84 265.84C393.28 264.28 385.61 263.27 377.89 262.82C369.72 262.24 361.51 262.24 353.33 262.82C342.78 263.83 330.83 266.24 330.83 266.24C332.11 282.31 330.34 338.83 337.23 346.59Z" id="a65plNDEn"></path><path d="M280.32 327.39L270.89 317.81C270.12 325.91 269.69 330.4 269.61 331.3C269.61 331.3 276.68 336.09 281.57 333.52C281.41 332.7 280.99 330.66 280.32 327.39Z" id="e3n7ZSZGO0"></path><path d="M259.33 327.73L269.62 331.3L270.86 317.81L259.75 316.39L259.75 316.39L259.33 327.73Z" id="a6eHq3R4Pw"></path><path d="M262.58 508.54L260.53 477.71L273.84 477.71L275.89 508.54L275.89 508.54L262.58 508.54Z" id="c1YMnAKWUn"></path><path d="M314.1 508.54L309.82 477.71L323.14 477.71L327.41 508.54L327.41 508.54L314.1 508.54Z" id="d1u33mm0Oc"></path><path d="M328.23 507C328.76 506.98 329.22 507.37 329.29 507.9C329.46 509.09 330.82 518.56 331 519.74C331.12 520.93 330.25 521.98 329.07 522.1C329 522.11 328.93 522.11 328.86 522.11C323.65 522.02 321.18 521.72 314.56 521.72C310.52 521.72 300.13 522.14 294.54 522.14C288.95 522.14 288.65 516.61 290.98 516.11C301.41 513.86 307.53 510.77 311.05 507.81C311.67 507.29 312.46 507 313.27 507C316.26 507 326.73 507 328.23 507Z" id="e4k9eqhOKu"></path><path d="M276.48 507C277.01 506.99 277.47 507.38 277.54 507.9C277.71 509.09 279.07 518.56 279.24 519.74C279.36 520.93 278.5 521.98 277.32 522.1C277.25 522.11 277.18 522.11 277.11 522.11C271.9 522.02 269.43 521.72 262.81 521.72C258.75 521.72 250.39 522.14 244.8 522.14C239.21 522.14 238.91 516.61 241.24 516.11C251.67 513.86 255.78 510.77 259.29 507.81C259.92 507.28 260.72 506.99 261.54 507C264.53 507 274.99 507 276.48 507Z" id="b4rPcD0nSv"></path><path d="M348.26 231.21C362.3 229.81 341.44 208.28 341.44 208.28C336.65 208.59 334.22 232.6 348.26 231.21Z" id="b1oTFp6hOK"></path><path d="M261.59 493.61L274.91 493.61L273.86 477.71L260.53 477.71L260.53 477.71L261.59 493.61Z" id="b6HwPW0Qsg"></path><path d="M309.81 477.71L312.03 493.61L325.35 493.61L323.14 477.71L323.14 477.71L309.81 477.71Z" id="k2aeAmkw1S"></path><path d="M395.44 290.96C394.16 297.51 393.25 303.17 392.56 308.26C392.35 306.63 391.3 298.48 389.4 283.8C392.62 287.62 394.64 290 395.44 290.96Z" id="a6K4gE2Gln"></path><path d="M375.46 235.23C373.91 243.12 372.36 257.6 377.89 262.87C377.89 262.87 375.73 270.89 361.05 270.89C344.91 270.89 353.37 262.87 353.37 262.87C362.19 260.77 361.96 254.23 360.42 248.1C363.43 245.53 372.45 237.8 375.46 235.23Z" id="i3o7KVWaEj"></path><path d="M359.05 270.84L359.71 269.49L363.97 272.6L363.97 272.6L359.05 270.84Z" id="aeh1mpQK2"></path><path d="M359.05 270.84L358.05 269.34L354.43 271.58L354.43 271.58L359.05 270.84Z" id="a18ib5Cskt"></path><path d="M379.44 262.4C379.65 262.61 379.65 262.95 379.44 263.17C378.04 264.77 366.77 277.6 365.36 279.21C364.69 275.4 362.65 271.96 359.63 269.56C371.28 265.15 374.31 260.6 375.35 259.32C375.42 259.08 375.68 258.95 375.91 259.03C375.98 259.05 376.05 259.09 376.1 259.15C376.77 259.8 379.11 262.07 379.44 262.4Z" id="c5fIERBiwI"></path><path d="M351.83 262.73C351.58 262.8 351.39 263 351.32 263.26C350.15 268.52 350.37 273.99 351.96 279.14C352.55 276.97 354.52 271.76 358.05 269.34C354.21 266.69 355.76 263.27 356.31 261.98C356.37 261.83 356.29 261.67 356.15 261.62C356.09 261.6 356.04 261.59 355.98 261.61C355.15 261.83 352.25 262.62 351.83 262.73Z" id="a49IQvY8aA"></path><path d="M360.35 248.09C360.72 249.52 360.97 250.97 361.1 252.44C364.47 251.96 369.09 248.27 369.45 244.76C369.67 243.34 369.62 241.88 369.31 240.47C367.51 242 361.24 247.33 360.35 248.09Z" id="b1pjCri2PJ"></path><path d="M373.4 240.9C365.34 252.68 348.88 251.69 343.46 239.28C338.59 228.12 336.92 208.56 348.7 201.09C357.09 195.73 368.23 198.19 373.59 206.58C375.09 208.94 376.03 211.63 376.32 214.41C377.84 227.53 378.78 233.06 373.4 240.9Z" id="b1MomLGbIN"></path><path d="M387.67 207.58C392.96 228.9 376.08 230.4 376.08 230.4C375.87 229.85 374.18 225.49 373.96 224.95C370.93 226.78 362.44 225.97 365 210.14C366.52 201.18 355.17 213.66 340.79 212.26C336.96 211.89 331.72 198.5 346.32 192.74C368.01 184.18 384.31 193.84 387.67 207.58Z" id="a5yJ1YaKNG"></path><path d="M359.72 188.08C359.72 188.08 353.43 189.5 351.4 194.1C349.36 198.69 335.49 203.3 338.93 198.02C341.79 193.63 347.62 189.86 359.72 188.08Z" id="c2aa5R9YPs"></path><path d="M378.32 232.43C376.08 234.99 373.13 233.42 372.21 230.35C371.39 227.57 371.56 222.91 374.55 221.5C377.55 220.09 380.42 222.32 380.66 225.44C380.84 227.99 379.99 230.51 378.32 232.43Z" id="d15dAdkeXr"></path><path d="M342.29 348.88C340.45 348.52 339.17 346.05 337.55 346.05C337.55 346.05 250.27 357.76 250.96 397.16C251.68 438.17 258.84 489.38 258.84 489.38C260.3 489.38 271.98 489.38 273.44 489.38C273.44 489.38 274.69 446.04 275.11 405.67C275.32 384.65 343.62 380.44 343.62 380.44C344.2 378.39 350.31 368.14 361.93 349.7C351.78 349.73 345.24 349.46 342.29 348.88Z" id="b1MUsgIqbm"></path><path d="M350.58 350.69C350.58 350.69 293.64 365.77 292.18 389.45C289.5 433.05 308.67 490.57 308.67 490.57C310.48 490.57 325.01 490.57 326.83 490.57C326.83 490.57 325.79 452.43 323.63 412.93C320.89 363.29 408.47 412.24 391.12 346.68C383.16 346.67 358.54 350.7 350.58 350.69Z" id="c1OaS3YtJK"></path><path d="M356.43 223.71C355.74 223.83 355.03 223.07 354.84 222.02C354.65 220.97 355.06 219.99 355.75 219.88C356.44 219.76 357.12 220.51 357.34 221.57C357.53 222.62 357.12 223.58 356.43 223.71Z" id="a5CLgXOmJ"></path><path d="M344.49 225.84C343.8 225.97 343.08 225.2 342.89 224.15C342.69 223.1 343.1 222.13 343.8 222.02C344.49 221.9 345.2 222.64 345.4 223.71C345.59 224.76 345.18 225.72 344.49 225.84Z" id="bQWT3klM"></path><path d="M351.56 238.79C354.41 238.34 356.87 236.55 358.19 233.99C358.24 233.89 358.19 233.77 358.09 233.72C357.98 233.68 357.87 233.73 357.82 233.84C356.57 236.26 354.25 237.95 351.56 238.39C351.45 238.42 351.38 238.52 351.39 238.64C351.41 238.72 351.48 238.78 351.56 238.79C351.56 238.79 351.56 238.79 351.56 238.79Z" id="i8CycEPYy"></path><path d="M360.44 216.72C360.59 216.57 360.6 216.33 360.46 216.17C360.45 216.17 360.44 216.16 360.44 216.15C359.04 214.79 357.06 214.18 355.14 214.54C354.93 214.6 354.8 214.82 354.85 215.03C354.9 215.24 355.12 215.37 355.33 215.32C355.33 215.32 355.34 215.32 355.34 215.32C357 215.03 358.7 215.56 359.9 216.74C359.97 216.8 360.05 216.84 360.14 216.84C360.25 216.85 360.36 216.8 360.44 216.72Z" id="bivl7qLmR"></path><path d="M338.87 218.94C339.03 218.95 339.18 218.85 339.24 218.7C339.87 217.14 341.21 215.98 342.85 215.58C343.06 215.54 343.21 215.33 343.18 215.12C343.14 214.89 342.93 214.75 342.71 214.78C340.8 215.22 339.24 216.57 338.51 218.38C338.42 218.59 338.51 218.83 338.71 218.92C338.74 218.92 338.84 218.94 338.87 218.94Z" id="c4vm65n14E"></path><path d="M392.77 285.16C393.93 289 395.19 292.84 396.3 296.78C397.41 300.72 398.59 304.56 399.6 308.47C400.61 312.37 401.57 316.24 402.29 319.99C402.64 321.88 402.96 323.76 403.14 325.53C403.24 326.41 403.29 327.24 403.3 328.01C403.3 328.19 403.3 328.01 403.43 327.72C403.59 327.37 403.8 327.06 404.07 326.78C404.72 326.22 404.97 326.32 404.67 326.41C404.14 326.54 403.58 326.6 403.03 326.58C401.31 326.52 399.6 326.3 397.91 325.93C394.1 325.09 390.34 324.01 386.66 322.71C379.1 320.15 371.42 317.03 363.94 313.84C363.61 314.45 360.97 319.27 360.64 319.87C367.73 324.52 375.14 328.66 382.82 332.26C386.8 334.14 390.9 335.73 395.1 337.04C397.43 337.75 399.84 338.23 402.27 338.48C403.78 338.64 405.31 338.6 406.82 338.37C407.82 338.22 408.8 337.94 409.73 337.54C410.93 337.02 412.01 336.27 412.93 335.33C414.7 333.46 415.72 331 415.78 328.42C415.85 327.14 415.86 325.86 415.78 324.71C415.69 322.34 415.48 320.1 415.18 317.91C414.57 313.54 413.77 309.31 412.8 305.11C411.83 300.92 410.79 296.86 409.65 292.79C408.51 288.72 407.28 284.72 405.81 280.65C403.2 281.55 395.38 284.26 392.77 285.16Z" id="b6lOCQ2MY"></path><path d="M312.2 508.75C312.32 508.73 312.4 508.61 312.38 508.49C312.37 508.44 312.33 508.38 312.28 508.35C311.83 508.06 307.84 505.47 306.32 506.15C305.99 506.3 305.77 506.61 305.75 506.97C305.62 507.55 305.81 508.15 306.24 508.56C306.96 509.07 307.83 509.31 308.71 509.24C309.89 509.21 311.06 509.04 312.2 508.75ZM306.55 508.22C306.23 507.92 306.09 507.47 306.19 507.03C306.2 506.83 306.32 506.65 306.51 506.56C307.48 506.12 310.18 507.57 311.59 508.44C309.12 508.95 307.26 508.89 306.55 508.22Z" id="c8T220JFT"></path><path d="M312.15 508.76C312.22 508.76 312.26 508.76 312.27 508.76C312.34 508.72 312.39 508.64 312.38 508.56C312.38 508.4 312.38 504.61 310.95 503.36C310.61 503.03 310.14 502.89 309.67 502.96C309.19 502.96 308.78 503.29 308.68 503.76C308.42 505.14 310.64 507.97 312.04 508.76C312.05 508.76 312.09 508.76 312.15 508.76ZM309.9 503.36C310.18 503.36 310.45 503.47 310.66 503.67C311.67 504.56 311.87 507.1 311.94 508.11C310.66 507.19 308.94 504.86 309.16 503.82C309.16 503.65 309.29 503.44 309.75 503.37C309.78 503.37 309.87 503.36 309.9 503.36Z" id="b5JCULkrX1"></path><path d="M260.72 508.76C260.82 508.74 260.89 508.66 260.9 508.57C260.92 508.47 260.86 508.38 260.77 508.34C260.19 508.03 254.92 505.34 253.32 506.21C253.04 506.37 252.86 506.66 252.84 506.98C252.77 507.52 252.97 508.07 253.38 508.43C254.31 509.05 255.42 509.34 256.54 509.24C257.94 509.2 259.35 509.05 260.72 508.76ZM253.68 508.11C253.39 507.83 253.24 507.43 253.29 507.02C253.29 506.84 253.39 506.68 253.54 506.6C254.59 506.04 258.12 507.53 259.98 508.44C258.27 508.74 254.86 509.16 253.68 508.11Z" id="cdNMqyh2"></path><path d="M260.8 508.76C260.86 508.71 260.9 508.64 260.9 508.56C260.9 508.4 260.58 504.86 258.94 503.44C258.48 503.04 257.87 502.86 257.27 502.92C256.45 503 256.22 503.41 256.15 503.73C255.92 505.2 259.02 508.02 260.58 508.72C260.71 508.77 260.76 508.77 260.8 508.76ZM257.51 503.36C257.93 503.36 258.34 503.51 258.65 503.8C259.85 504.79 260.28 507.19 260.4 508.15C258.73 507.21 256.44 504.81 256.56 503.82C256.56 503.72 256.56 503.44 257.27 503.37C257.32 503.37 257.46 503.36 257.51 503.36Z" id="e18NiT45mZ"></path><path d="M364.25 314.05L351.63 310.85C355.24 318.12 357.24 322.16 357.64 322.97C357.64 322.97 366.18 323.34 369 318.58C368.37 317.98 366.78 316.46 364.25 314.05Z" id="bsdXSn2aQ"></path><path d="M347.01 325.32L357.64 322.97L351.63 310.85L341.43 315.44L341.43 315.44L347.01 325.32Z" id="g4tHssvRvV"></path><path d="M409.42 289.5C407.67 291.21 397.05 301.55 395.3 303.26C395.3 303.26 384.09 285.66 386.34 278.66C388.74 271.36 394.66 264.03 400.84 265.89C406.27 267.55 407.03 285.44 409.42 289.5Z" id="k20DXz4SSa"></path><path d="M412.77 301.09C411.03 302.8 397.05 301.55 395.3 303.26C395.3 303.26 384.09 285.66 386.34 278.66C388.74 271.36 394.66 264.03 400.84 265.89C406.27 267.55 410.39 297.03 412.77 301.09Z" id="b10pjtzItR"></path><path d="M110.52 333.34C110.52 333.34 110.52 333.34 110.52 333.34C110.52 452.19 110.52 518.21 110.52 531.42C110.52 531.42 110.52 531.42 110.52 531.42C171.62 531.42 205.56 531.42 212.35 531.42C212.35 531.42 212.35 531.42 212.35 531.42C212.35 412.57 212.35 346.54 212.35 333.34C212.35 333.34 212.35 333.34 212.35 333.34C151.25 333.34 117.3 333.34 110.52 333.34Z" id="c1RsRXYAoE"></path><path d="M110.52 333.34C110.52 333.34 110.52 333.34 110.52 333.34C110.52 452.19 110.52 518.21 110.52 531.42C110.52 531.42 110.52 531.42 110.52 531.42C171.62 531.42 205.56 531.42 212.35 531.42C212.35 531.42 212.35 531.42 212.35 531.42C212.35 412.57 212.35 346.54 212.35 333.34C212.35 333.34 212.35 333.34 212.35 333.34C151.25 333.34 117.3 333.34 110.52 333.34Z" id="a2LiT32fjr"></path><path d="M106.7 333.34C106.7 333.34 106.7 333.34 106.7 333.34C106.7 452.19 106.7 518.21 106.7 531.42C106.7 531.42 106.7 531.42 106.7 531.42C111.74 531.42 114.54 531.42 115.1 531.42C115.1 531.42 115.1 531.42 115.1 531.42C115.1 412.57 115.1 346.54 115.1 333.34C115.1 333.34 115.1 333.34 115.1 333.34C110.06 333.34 107.26 333.34 106.7 333.34Z" id="czfWo648D"></path><path d="M106.7 333.34C106.7 333.34 106.7 333.34 106.7 333.34C106.7 452.19 106.7 518.21 106.7 531.42C106.7 531.42 106.7 531.42 106.7 531.42C111.74 531.42 114.54 531.42 115.1 531.42C115.1 531.42 115.1 531.42 115.1 531.42C115.1 412.57 115.1 346.54 115.1 333.34C115.1 333.34 115.1 333.34 115.1 333.34C110.06 333.34 107.26 333.34 106.7 333.34Z" id="aKiUlW0Ol"></path><path d="M306.59 348.2C306.59 348.2 306.59 348.2 306.59 348.2C306.59 339.28 306.59 334.33 306.59 333.34C306.59 333.34 306.59 333.34 306.59 333.34C185.1 333.34 117.6 333.34 104.1 333.34C104.1 333.34 104.1 333.34 104.1 333.34C104.1 342.25 104.1 347.21 104.1 348.2C104.1 348.2 104.1 348.2 104.1 348.2C225.59 348.2 293.09 348.2 306.59 348.2Z" id="dwIy5IgCD"></path><path d="M306.59 348.2C306.59 348.2 306.59 348.2 306.59 348.2C306.59 339.28 306.59 334.33 306.59 333.34C306.59 333.34 306.59 333.34 306.59 333.34C185.1 333.34 117.6 333.34 104.1 333.34C104.1 333.34 104.1 333.34 104.1 333.34C104.1 342.25 104.1 347.21 104.1 348.2C104.1 348.2 104.1 348.2 104.1 348.2C225.59 348.2 293.09 348.2 306.59 348.2Z" id="aEyjsPoot"></path><path d="M303.97 333.34C303.97 333.34 303.97 333.34 303.97 333.34C303.97 452.19 303.97 518.21 303.97 531.42C303.97 531.42 303.97 531.42 303.97 531.42C309.01 531.42 311.81 531.42 312.37 531.42C312.37 531.42 312.37 531.42 312.37 531.42C312.37 412.57 312.37 346.54 312.37 333.34C312.37 333.34 312.37 333.34 312.37 333.34C307.33 333.34 304.53 333.34 303.97 333.34Z" id="g133Tdm5t1"></path><path d="M303.97 333.34C303.97 333.34 303.97 333.34 303.97 333.34C303.97 452.19 303.97 518.21 303.97 531.42C303.97 531.42 303.97 531.42 303.97 531.42C309.01 531.42 311.81 531.42 312.37 531.42C312.37 531.42 312.37 531.42 312.37 531.42C312.37 412.57 312.37 346.54 312.37 333.34C312.37 333.34 312.37 333.34 312.37 333.34C307.33 333.34 304.53 333.34 303.97 333.34Z" id="d13qTwqNsE"></path><path d="M307.07 380.72C307.07 380.72 307.07 380.72 307.07 380.72C307.07 355.05 307.07 340.79 307.07 337.93C307.07 337.93 307.07 337.93 307.07 337.93C189.37 337.93 123.98 337.93 110.9 337.93C110.9 337.93 110.9 337.93 110.9 337.93C110.9 363.61 110.9 377.87 110.9 380.72C110.9 380.72 110.9 380.72 110.9 380.72C228.6 380.72 293.99 380.72 307.07 380.72Z" id="aen5dGj9"></path><path d="M307.07 380.72C307.07 380.72 307.07 380.72 307.07 380.72C307.07 355.05 307.07 340.79 307.07 337.93C307.07 337.93 307.07 337.93 307.07 337.93C189.37 337.93 123.98 337.93 110.9 337.93C110.9 337.93 110.9 337.93 110.9 337.93C110.9 363.61 110.9 377.87 110.9 380.72C110.9 380.72 110.9 380.72 110.9 380.72C228.6 380.72 293.99 380.72 307.07 380.72Z" id="e3h7qg7NPG"></path><path d="M167 537.18C174.99 537.17 181.47 530.69 181.48 522.7C181.48 504.86 181.48 362.16 181.48 344.32C181.48 337.25 187.21 331.52 194.28 331.52C195.41 331.52 201.05 331.52 211.2 331.52L211.2 330.24C201.05 330.24 195.42 330.24 194.29 330.24C186.52 330.24 180.21 336.54 180.21 344.32C180.21 362.16 180.21 504.86 180.21 522.7C180.2 529.99 174.3 535.89 167.01 535.9C161.36 535.9 116.12 535.9 110.46 535.9C107.94 535.9 105.89 533.86 105.89 531.34C105.88 529.88 106.57 528.52 107.74 527.65C107.66 527.55 107.06 526.73 106.98 526.63C104.39 528.56 103.85 532.22 105.77 534.81C106.87 536.3 108.61 537.18 110.46 537.18C121.77 537.18 161.35 537.18 167 537.18Z" id="fst6J6ysn"></path><path d="M167 537.18C174.99 537.17 181.47 530.69 181.48 522.7C181.48 504.86 181.48 362.16 181.48 344.32C181.48 337.25 187.21 331.52 194.28 331.52C195.41 331.52 201.05 331.52 211.2 331.52L211.2 330.24C201.05 330.24 195.42 330.24 194.29 330.24C186.52 330.24 180.21 336.54 180.21 344.32C180.21 362.16 180.21 504.86 180.21 522.7C180.2 529.99 174.3 535.89 167.01 535.9C161.36 535.9 116.12 535.9 110.46 535.9C107.94 535.9 105.89 533.86 105.89 531.34C105.88 529.88 106.57 528.52 107.74 527.65C107.66 527.55 107.06 526.73 106.98 526.63C104.39 528.56 103.85 532.22 105.77 534.81C106.87 536.3 108.61 537.18 110.46 537.18C121.77 537.18 161.35 537.18 167 537.18Z" id="bRlV31R7W"></path><path d="M102.22 391.78C102.22 391.78 102.22 391.78 102.22 391.78C102.22 406.63 102.22 414.88 102.22 416.52C102.22 416.52 102.22 416.52 102.22 416.52C102.99 416.52 103.42 416.52 103.5 416.52C103.5 416.52 103.5 416.52 103.5 416.52C103.5 401.68 103.5 393.43 103.5 391.78C103.5 391.78 103.5 391.78 103.5 391.78C102.73 391.78 102.31 391.78 102.22 391.78Z" id="cavK3xtSq"></path><path d="M102.22 391.78C102.22 391.78 102.22 391.78 102.22 391.78C102.22 406.63 102.22 414.88 102.22 416.52C102.22 416.52 102.22 416.52 102.22 416.52C102.99 416.52 103.42 416.52 103.5 416.52C103.5 416.52 103.5 416.52 103.5 416.52C103.5 401.68 103.5 393.43 103.5 391.78C103.5 391.78 103.5 391.78 103.5 391.78C102.73 391.78 102.31 391.78 102.22 391.78Z" id="b3ekjd3e7L"></path><path d="M102.22 377.18C102.22 377.18 102.22 377.18 102.22 377.18C102.22 381.08 102.22 383.25 102.22 383.68C102.22 383.68 102.22 383.68 102.22 383.68C102.99 383.68 103.42 383.68 103.5 383.68C103.5 383.68 103.5 383.68 103.5 383.68C103.5 379.78 103.5 377.61 103.5 377.18C103.5 377.18 103.5 377.18 103.5 377.18C102.73 377.18 102.31 377.18 102.22 377.18Z" id="b2kBpvrRb0"></path><path d="M102.22 377.18C102.22 377.18 102.22 377.18 102.22 377.18C102.22 381.08 102.22 383.25 102.22 383.68C102.22 383.68 102.22 383.68 102.22 383.68C102.99 383.68 103.42 383.68 103.5 383.68C103.5 383.68 103.5 383.68 103.5 383.68C103.5 379.78 103.5 377.61 103.5 377.18C103.5 377.18 103.5 377.18 103.5 377.18C102.73 377.18 102.31 377.18 102.22 377.18Z" id="a229Zw2Bgw"></path><path d="M290.87 274.2L304.61 330.24L209.73 330.24L195.97 274.2L195.97 274.2L290.87 274.2Z" id="a1qQ5IzIJU"></path><path d="M290.87 274.2L304.61 330.24L209.73 330.24L195.97 274.2L195.97 274.2L290.87 274.2Z" id="hcG5Yto7"></path><path d="M302.09 333.34L339.33 333.34L338.94 330.24L301.71 330.24L301.71 330.24L302.09 333.34Z" id="a16Nqk7Uq0"></path><path d="M302.09 333.34L339.33 333.34L338.94 330.24L301.71 330.24L301.71 330.24L302.09 333.34Z" id="efOxJsNB9"></path><path d="M207.19 333.34L302.09 333.34L301.71 330.24L206.81 330.24L206.81 330.24L207.19 333.34Z" id="a11X1qaXa"></path><path d="M207.19 333.34L302.09 333.34L301.71 330.24L206.81 330.24L206.81 330.24L207.19 333.34Z" id="b3lg2bLgVY"></path><path d="M287.95 274.2L301.7 330.24L206.81 330.24L193.05 274.2L193.05 274.2L287.95 274.2Z" id="c2DcBqmxb"></path><path d="M287.95 274.2L301.7 330.24L206.81 330.24L193.05 274.2L193.05 274.2L287.95 274.2Z" id="c3m67mhUkg"></path><path d="M151.04 275.98C151.04 275.98 145.98 279.28 146.06 283.66C146.14 288.04 151.48 289.22 150.34 292.9C149.2 296.59 144.14 300.24 147.46 303.3C150.77 306.36 146.92 309.07 147.15 312.81C147.38 316.54 156.4 319.22 156.4 319.22C155.33 310.57 170.37 295.14 151.04 275.98Z" id="aocjVmyxE"></path><path d="M174.11 282.1C174.11 282.1 177.87 286.82 176.4 291.06C174.92 295.3 169.51 294.62 169.43 298.5C169.36 302.37 172.99 307.39 168.88 309.25C164.77 311.1 167.6 314.91 166.18 318.39C164.76 321.87 155.34 321.42 155.34 321.42C159.09 313.56 149.68 294.17 174.11 282.1Z" id="c2d0xD2XdC"></path><path d="M174.11 282.1C174.11 282.1 177.87 286.82 176.4 291.06C174.92 295.3 169.51 294.62 169.43 298.5C169.36 302.37 172.99 307.39 168.88 309.25C164.77 311.1 167.6 314.91 166.18 318.39C164.76 321.87 155.34 321.42 155.34 321.42C159.09 313.56 149.68 294.17 174.11 282.1Z" id="h26vVanRpU"></path><path d="M176.74 315.38C176.74 315.38 176.27 333.3 158.46 333.3C158.46 333.3 140.2 315.38 140.2 315.38C147.51 315.38 169.43 315.38 176.74 315.38Z" id="c2gVPAIOhU"></path><path d="M176.74 315.38C176.74 315.38 176.27 333.3 158.46 333.3C158.46 333.3 140.2 315.38 140.2 315.38C147.51 315.38 169.43 315.38 176.74 315.38Z" id="a1UH3g9ldn"></path><path d="M306.65 178.32L321.86 197.96L314.71 197.96L314.71 223.4L298.6 223.4L298.6 197.96L291.45 197.96L291.45 197.96L306.65 178.32Z" id="hhkpGg30G"></path><path d="M228.84 221.07C228.84 201.27 212.79 185.23 193 185.23C193 186.16 193 193.63 193 194.56C207.63 194.55 219.49 206.4 219.5 221.03C219.5 221.03 219.5 221.04 219.5 221.04C221.36 221.05 226.97 221.06 228.84 221.07Z" id="amBJP9Pl5"></path><path d="M218.5 221.07C218.5 235.7 206.63 247.56 192 247.56C187.35 247.57 182.78 246.35 178.76 244.01C178.3 244.82 174.55 251.34 174.08 252.16C191.22 262.06 213.14 256.18 223.04 239.04C226.18 233.59 227.84 227.41 227.84 221.12C227.84 221.11 219.43 221.07 218.5 221.07Z" id="a1T2PZccbG"></path><path d="M218.5 221.07C218.5 235.7 206.63 247.56 192 247.56C187.35 247.57 182.78 246.35 178.76 244.01C178.3 244.82 174.55 251.34 174.08 252.16C191.22 262.06 213.14 256.18 223.04 239.04C226.18 233.59 227.84 227.41 227.84 221.12C227.84 221.11 219.43 221.07 218.5 221.07Z" id="ergCzg03"></path><path d="M192 185.2C172.21 185.13 156.1 201.11 156.02 220.91C155.97 233.82 162.87 245.75 174.08 252.16C174.55 251.35 178.28 244.87 178.75 244.06C166.04 236.82 161.6 220.65 168.84 207.94C173.58 199.62 182.43 194.51 192 194.56C192 192.69 192 186.14 192 185.2Z" id="kbn7diH8d"></path><path d="M192 185.2C172.21 185.13 156.1 201.11 156.02 220.91C155.97 233.82 162.87 245.75 174.08 252.16C174.55 251.35 178.28 244.87 178.75 244.06C166.04 236.82 161.6 220.65 168.84 207.94C173.58 199.62 182.43 194.51 192 194.56C192 192.69 192 186.14 192 185.2Z" id="a9AGL8P7fv"></path><path d="M244.65 133.12C264.24 133.12 275.13 133.12 277.3 133.12C279.73 133.12 281.69 135.09 281.69 137.51C281.69 137.51 281.69 137.51 281.69 137.51C281.69 143.55 281.69 191.85 281.69 197.89C281.67 200.3 279.71 202.24 277.3 202.24C273.12 202.24 239.69 202.24 235.51 202.24C233.09 202.23 231.13 200.27 231.13 197.85C231.13 194.44 231.13 177.37 231.13 146.65L244.65 133.12Z" id="dlRDm8rEQ"></path><path d="M273.72 196.24C274.78 196.24 275.64 195.38 275.64 194.32C275.64 194.32 275.64 194.32 275.64 194.32C275.63 193.26 274.78 192.41 273.72 192.41C271 192.41 249.27 192.41 246.56 192.41C245.5 192.41 244.65 193.26 244.64 194.32C244.64 194.32 244.64 194.32 244.64 194.32C244.65 195.38 245.51 196.24 246.57 196.24C252 196.24 271.01 196.24 273.72 196.24Z" id="b31JcthBPt"></path><path d="M273.72 143.01C274.78 143.01 275.63 142.16 275.64 141.11C275.64 141.11 275.64 141.11 275.64 141.11C275.64 140.05 274.78 139.19 273.72 139.19C272.28 139.19 260.79 139.19 259.36 139.19C258.3 139.19 257.44 140.05 257.44 141.11C257.44 141.11 257.44 141.11 257.44 141.11C257.45 142.17 258.31 143.02 259.37 143.01C259.37 143.01 259.37 143.01 259.37 143.01C262.24 143.01 272.29 143.01 273.72 143.01Z" id="c4lbDEObYW"></path><path d="M273.72 150.62C274.78 150.62 275.63 149.77 275.64 148.71C275.64 148.71 275.64 148.71 275.64 148.71C275.64 147.65 274.78 146.79 273.72 146.79C271.35 146.79 252.35 146.79 249.98 146.79C248.92 146.8 248.07 147.65 248.07 148.71C248.07 148.71 248.07 148.71 248.07 148.71C248.07 149.76 248.92 150.62 249.98 150.62C249.98 150.62 249.98 150.62 249.99 150.62C249.99 150.62 271.35 150.62 273.72 150.62Z" id="c1oYmli06D"></path><path d="M273.72 158.22C274.78 158.22 275.63 157.37 275.64 156.31C275.64 156.31 275.64 156.31 275.64 156.31C275.64 155.25 274.78 154.39 273.72 154.39C270.26 154.39 242.54 154.39 239.07 154.39C238.01 154.39 237.15 155.25 237.15 156.31C237.15 156.31 237.15 156.31 237.15 156.31C237.16 157.37 238.02 158.23 239.08 158.22C239.08 158.22 239.08 158.22 239.08 158.22C246.01 158.22 270.26 158.22 273.72 158.22Z" id="d1BhBlFrOj"></path><path d="M259.23 165.82C260.29 165.82 261.14 164.97 261.15 163.92C261.15 163.92 261.15 163.92 261.15 163.92C261.15 162.86 260.29 162 259.23 162C257.22 162 241.1 162 239.08 162C238.02 162 237.16 162.86 237.16 163.92C237.16 163.92 237.16 163.92 237.16 163.92C237.17 164.97 238.03 165.82 239.08 165.82C243.11 165.82 257.22 165.82 259.23 165.82Z" id="a2uwXrj6Bw"></path><path d="M273.72 165.82C274.78 165.82 275.63 164.97 275.64 163.92C275.64 163.92 275.64 163.92 275.64 163.92C275.64 162.86 274.78 162 273.72 162C273.19 162 268.99 162 268.46 162C267.4 162 266.54 162.86 266.54 163.92C266.54 163.92 266.54 163.92 266.54 163.92C266.55 164.98 267.41 165.83 268.47 165.82C268.47 165.82 268.47 165.82 268.47 165.82C269.52 165.82 273.2 165.82 273.72 165.82Z" id="fnBX3sAWl"></path><path d="M273.72 173.43C274.78 173.43 275.64 172.57 275.64 171.51C275.64 171.51 275.64 171.51 275.64 171.51C275.63 170.45 274.78 169.6 273.72 169.6C270.26 169.6 242.54 169.6 239.07 169.6C238.01 169.6 237.16 170.45 237.15 171.51C237.15 171.51 237.15 171.51 237.15 171.51C237.15 172.57 238.01 173.43 239.07 173.43C239.07 173.43 239.08 173.43 239.08 173.43C239.08 173.43 270.26 173.43 273.72 173.43Z" id="a3kPacf66O"></path><path d="M273.72 181.03C274.78 181.03 275.64 180.17 275.64 179.11C275.64 179.11 275.64 179.11 275.64 179.11C275.63 178.06 274.78 177.2 273.72 177.2C271.59 177.2 254.57 177.2 252.45 177.2C251.39 177.2 250.53 178.06 250.53 179.11C250.53 179.11 250.53 179.11 250.53 179.11C250.53 180.17 251.39 181.03 252.45 181.03C252.45 181.03 252.45 181.03 252.46 181.03C252.46 181.03 271.59 181.03 273.72 181.03Z" id="i3XDV9tmMy"></path><path d="M244.77 181.03C245.82 181.02 246.67 180.17 246.67 179.11C246.67 179.11 246.67 179.11 246.67 179.11C246.67 178.06 245.82 177.2 244.77 177.2C244.77 177.2 244.77 177.2 244.77 177.2C244.2 177.2 239.65 177.2 239.08 177.2C238.03 177.2 237.17 178.06 237.16 179.11C237.16 179.11 237.16 179.11 237.16 179.11C237.16 180.17 238.02 181.03 239.08 181.03C240.22 181.03 244.2 181.03 244.77 181.03Z" id="e1rYeP4dN"></path><path d="M273.72 188.63C274.78 188.63 275.64 187.77 275.64 186.71C275.64 186.71 275.64 186.71 275.64 186.71C275.63 185.66 274.78 184.81 273.72 184.81C270.26 184.81 242.54 184.81 239.07 184.81C238.01 184.81 237.16 185.66 237.15 186.71C237.15 186.71 237.15 186.71 237.15 186.71C237.15 187.77 238.01 188.63 239.07 188.63C239.07 188.63 239.08 188.63 239.08 188.63C239.08 188.63 270.26 188.63 273.72 188.63Z" id="b4yb1g6Y7"></path><path d="M273.72 196.24C274.78 196.24 275.64 195.38 275.64 194.32C275.64 194.32 275.64 194.32 275.64 194.32C275.63 193.26 274.78 192.41 273.72 192.41C271 192.41 249.27 192.41 246.56 192.41C245.5 192.41 244.65 193.26 244.64 194.32C244.64 194.32 244.64 194.32 244.64 194.32C244.65 195.38 245.51 196.24 246.57 196.24C252 196.24 271.01 196.24 273.72 196.24Z" id="aAiC1MM8z"></path><path d="M273.72 143.01C274.78 143.01 275.63 142.16 275.64 141.11C275.64 141.11 275.64 141.11 275.64 141.11C275.64 140.05 274.78 139.19 273.72 139.19C272.28 139.19 260.79 139.19 259.36 139.19C258.3 139.19 257.44 140.05 257.44 141.11C257.44 141.11 257.44 141.11 257.44 141.11C257.45 142.17 258.31 143.02 259.37 143.01C259.37 143.01 259.37 143.01 259.37 143.01C262.24 143.01 272.29 143.01 273.72 143.01Z" id="b43rtCl4n9"></path><path d="M273.72 150.62C274.78 150.62 275.63 149.77 275.64 148.71C275.64 148.71 275.64 148.71 275.64 148.71C275.64 147.65 274.78 146.79 273.72 146.79C271.35 146.79 252.35 146.79 249.98 146.79C248.92 146.8 248.07 147.65 248.07 148.71C248.07 148.71 248.07 148.71 248.07 148.71C248.07 149.76 248.92 150.62 249.98 150.62C249.98 150.62 249.98 150.62 249.99 150.62C249.99 150.62 271.35 150.62 273.72 150.62Z" id="bDc5JgGff"></path><path d="M273.72 158.22C274.78 158.22 275.63 157.37 275.64 156.31C275.64 156.31 275.64 156.31 275.64 156.31C275.64 155.25 274.78 154.39 273.72 154.39C270.26 154.39 242.54 154.39 239.07 154.39C238.01 154.39 237.15 155.25 237.15 156.31C237.15 156.31 237.15 156.31 237.15 156.31C237.16 157.37 238.02 158.23 239.08 158.22C239.08 158.22 239.08 158.22 239.08 158.22C246.01 158.22 270.26 158.22 273.72 158.22Z" id="aBtRxRyqQ"></path><path d="M259.23 165.82C260.29 165.82 261.14 164.97 261.15 163.92C261.15 163.92 261.15 163.92 261.15 163.92C261.15 162.86 260.29 162 259.23 162C257.22 162 241.1 162 239.08 162C238.02 162 237.16 162.86 237.16 163.92C237.16 163.92 237.16 163.92 237.16 163.92C237.17 164.97 238.03 165.82 239.08 165.82C243.11 165.82 257.22 165.82 259.23 165.82Z" id="f1hCeOZSm"></path><path d="M273.72 165.82C274.78 165.82 275.63 164.97 275.64 163.92C275.64 163.92 275.64 163.92 275.64 163.92C275.64 162.86 274.78 162 273.72 162C273.19 162 268.99 162 268.46 162C267.4 162 266.54 162.86 266.54 163.92C266.54 163.92 266.54 163.92 266.54 163.92C266.55 164.98 267.41 165.83 268.47 165.82C268.47 165.82 268.47 165.82 268.47 165.82C269.52 165.82 273.2 165.82 273.72 165.82Z" id="a1oP7cfq9g"></path><path d="M273.72 173.43C274.78 173.43 275.64 172.57 275.64 171.51C275.64 171.51 275.64 171.51 275.64 171.51C275.63 170.45 274.78 169.6 273.72 169.6C270.26 169.6 242.54 169.6 239.07 169.6C238.01 169.6 237.16 170.45 237.15 171.51C237.15 171.51 237.15 171.51 237.15 171.51C237.15 172.57 238.01 173.43 239.07 173.43C239.07 173.43 239.08 173.43 239.08 173.43C239.08 173.43 270.26 173.43 273.72 173.43Z" id="e24cXRLsyh"></path><path d="M273.72 181.03C274.78 181.03 275.64 180.17 275.64 179.11C275.64 179.11 275.64 179.11 275.64 179.11C275.63 178.06 274.78 177.2 273.72 177.2C271.59 177.2 254.57 177.2 252.45 177.2C251.39 177.2 250.53 178.06 250.53 179.11C250.53 179.11 250.53 179.11 250.53 179.11C250.53 180.17 251.39 181.03 252.45 181.03C252.45 181.03 252.45 181.03 252.46 181.03C252.46 181.03 271.59 181.03 273.72 181.03Z" id="b3SVEMFSmr"></path><path d="M244.77 181.03C245.82 181.02 246.67 180.17 246.67 179.11C246.67 179.11 246.67 179.11 246.67 179.11C246.67 178.06 245.82 177.2 244.77 177.2C244.77 177.2 244.77 177.2 244.77 177.2C244.2 177.2 239.65 177.2 239.08 177.2C238.03 177.2 237.17 178.06 237.16 179.11C237.16 179.11 237.16 179.11 237.16 179.11C237.16 180.17 238.02 181.03 239.08 181.03C240.22 181.03 244.2 181.03 244.77 181.03Z" id="d2zm5p40Pw"></path><path d="M273.72 188.63C274.78 188.63 275.64 187.77 275.64 186.71C275.64 186.71 275.64 186.71 275.64 186.71C275.63 185.66 274.78 184.81 273.72 184.81C270.26 184.81 242.54 184.81 239.07 184.81C238.01 184.81 237.16 185.66 237.15 186.71C237.15 186.71 237.15 186.71 237.15 186.71C237.15 187.77 238.01 188.63 239.07 188.63C239.07 188.63 239.08 188.63 239.08 188.63C239.08 188.63 270.26 188.63 273.72 188.63Z" id="bovRrBgOr"></path><path d="M244.65 133.12C244.65 138.6 244.65 141.65 244.65 142.26C244.66 144.68 242.7 146.64 240.29 146.65C240.28 146.65 240.27 146.65 240.26 146.65C239.65 146.65 236.61 146.65 231.13 146.65L244.65 133.12Z" id="a2tdIyGoI8"></path><path d="M244.65 133.12C244.65 138.6 244.65 141.65 244.65 142.26C244.66 144.68 242.7 146.64 240.29 146.65C240.28 146.65 240.27 146.65 240.26 146.65C239.65 146.65 236.61 146.65 231.13 146.65L244.65 133.12Z" id="ebk5WgLQf"></path><path d="M297.28 520.96C298.11 520.96 298.82 520.38 298.98 519.56C300.6 511.58 308.71 471.66 323.3 399.81L365.66 399.81C380.25 471.66 388.36 511.58 389.98 519.56C390.23 520.49 391.19 521.04 392.11 520.79C392.96 520.56 393.5 519.74 393.38 518.87C390.92 506.76 371.24 409.84 368.78 397.72C368.61 396.91 367.9 396.33 367.08 396.33C362.56 396.33 326.41 396.33 321.9 396.33C321.07 396.33 320.36 396.91 320.19 397.72C317.73 409.84 298.04 506.76 295.58 518.87C295.39 519.81 296 520.73 296.94 520.92C297 520.93 297.21 520.95 297.28 520.96Z" id="aqzfy6Huf"></path><path d="M365.26 520.96C366.09 520.95 366.8 520.37 366.96 519.56C368.59 511.58 376.69 471.66 391.28 399.81L433.64 399.81C448.23 471.66 456.34 511.58 457.96 519.56C458.09 520.52 458.97 521.18 459.92 521.05C460.87 520.93 461.54 520.05 461.41 519.1C461.4 519.02 461.38 518.95 461.36 518.87C458.9 506.76 439.21 409.84 436.75 397.72C436.59 396.91 435.87 396.33 435.05 396.33C430.53 396.33 394.38 396.33 389.86 396.33C389.04 396.33 388.33 396.91 388.17 397.72C385.71 409.84 366.02 506.76 363.56 518.87C363.37 519.81 363.98 520.73 364.92 520.92C364.99 520.93 365.19 520.95 365.26 520.96Z" id="a4gQerZk4b"></path><path d="M297.28 520.96C298.11 520.96 298.82 520.38 298.98 519.56C300.6 511.58 308.71 471.66 323.3 399.81L365.66 399.81C380.25 471.66 388.36 511.58 389.98 519.56C390.23 520.49 391.19 521.04 392.11 520.79C392.96 520.56 393.5 519.74 393.38 518.87C390.92 506.76 371.24 409.84 368.78 397.72C368.61 396.91 367.9 396.33 367.08 396.33C362.56 396.33 326.41 396.33 321.9 396.33C321.07 396.33 320.36 396.91 320.19 397.72C317.73 409.84 298.04 506.76 295.58 518.87C295.39 519.81 296 520.73 296.94 520.92C297 520.93 297.21 520.95 297.28 520.96Z" id="n1jerKuH2x"></path><path d="M365.26 520.96C366.09 520.95 366.8 520.37 366.96 519.56C368.59 511.58 376.69 471.66 391.28 399.81L433.64 399.81C448.23 471.66 456.34 511.58 457.96 519.56C458.09 520.52 458.97 521.18 459.92 521.05C460.87 520.93 461.54 520.05 461.41 519.1C461.4 519.02 461.38 518.95 461.36 518.87C458.9 506.76 439.21 409.84 436.75 397.72C436.59 396.91 435.87 396.33 435.05 396.33C430.53 396.33 394.38 396.33 389.86 396.33C389.04 396.33 388.33 396.91 388.17 397.72C385.71 409.84 366.02 506.76 363.56 518.87C363.37 519.81 363.98 520.73 364.92 520.92C364.99 520.93 365.19 520.95 365.26 520.96Z" id="cSMNicNHg"></path><path d="M364.64 540.28C372.63 540.27 379.11 533.79 379.11 525.8C379.11 507.96 379.11 365.26 379.11 347.42C379.11 340.35 384.84 334.62 391.91 334.62C393.04 334.62 398.68 334.62 408.84 334.62L408.84 333.34C398.69 333.34 393.05 333.34 391.93 333.34C384.15 333.34 377.85 339.64 377.85 347.42C377.85 365.26 377.85 507.96 377.85 525.8C377.84 533.08 371.94 538.99 364.65 539C358.99 539 313.75 539 308.1 539C305.58 539 303.53 536.96 303.52 534.43C303.52 532.98 304.21 531.62 305.37 530.75C305.3 530.65 304.69 529.83 304.62 529.73C302.02 531.65 301.48 535.32 303.41 537.91C304.51 539.4 306.25 540.27 308.1 540.28C319.41 540.28 358.98 540.28 364.64 540.28Z" id="c3ZcjuHSNN"></path><path d="M307.53 333.34L408.84 333.34L408.84 338.58L307.53 338.58L307.53 333.34Z" id="fv3kzuy85"></path></defs><g><g><g><use xlink:href="#bMwy7uZBe" opacity="1" fill="#e6e6e6" fill-opacity="1"></use><g><use xlink:href="#bMwy7uZBe" opacity="1" fill-opacity="0" stroke="#000000" stroke-width="1" stroke-opacity="0"></use></g></g><g><use xlink:href="#fY9XuGJz8" opacity="1" fill="#e6e6e6" fill-opacity="1"></use><g><use xlink:href="#fY9XuGJz8" opacity="1" fill-opacity="0" stroke="#000000" stroke-width="1" stroke-opacity="0"></use></g></g><g><use xlink:href="#ah8SwfNAl" opacity="1" fill="#e6e6e6" fill-opacity="1"></use><g><use xlink:href="#ah8SwfNAl" opacity="1" fill-opacity="0" stroke="#000000" stroke-width="1" stroke-opacity="0"></use></g></g><g><use xlink:href="#c1ehRlUYDi" opacity="1" fill="#e6e6e6" fill-opacity="1"></use><g><use xlink:href="#c1ehRlUYDi" opacity="1" fill-opacity="0" stroke="#000000" stroke-width="1" stroke-opacity="0"></use></g></g><g><use xlink:href="#b97piFCgj" opacity="1" fill="#e6e6e6" fill-opacity="1"></use><g><use xlink:href="#b97piFCgj" opacity="1" fill-opacity="0" stroke="#000000" stroke-width="1" stroke-opacity="0"></use></g></g><g><use xlink:href="#a54JH4Fgte" opacity="1" fill="#e6e6e6" fill-opacity="1"></use><g><use xlink:href="#a54JH4Fgte" opacity="1" fill-opacity="0" stroke="#000000" stroke-width="1" stroke-opacity="0"></use></g></g><g><use xlink:href="#d1dcu89A2r" opacity="1" fill="#e6e6e6" fill-opacity="1"></use><g><use xlink:href="#d1dcu89A2r" opacity="1" fill-opacity="0" stroke="#000000" stroke-width="1" stroke-opacity="0"></use></g></g><g><use xlink:href="#a6AVF3zrd" opacity="1" fill="#e6e6e6" fill-opacity="1"></use><g><use xlink:href="#a6AVF3zrd" opacity="1" fill-opacity="0" stroke="#000000" stroke-width="1" stroke-opacity="0"></use></g></g><g><use xlink:href="#cRsHCCiJn" opacity="1" fill="#e6e6e6" fill-opacity="1"></use><g><use xlink:href="#cRsHCCiJn" opacity="1" fill-opacity="0" stroke="#000000" stroke-width="1" stroke-opacity="0"></use></g></g><g><use xlink:href="#a1hjVx0KGv" opacity="1" fill="#f5f5f5" fill-opacity="1"></use><g><use xlink:href="#a1hjVx0KGv" opacity="1" fill-opacity="0" stroke="#000000" stroke-width="1" stroke-opacity="0"></use></g></g><g><use xlink:href="#dlPTyE6fU" opacity="1" fill="#f0f0f0" fill-opacity="1"></use><g><use xlink:href="#dlPTyE6fU" opacity="1" fill-opacity="0" stroke="#000000" stroke-width="1" stroke-opacity="0"></use></g></g><g><use xlink:href="#b3Ryyuvj5" opacity="1" fill="#e0e0e0" fill-opacity="1"></use><g><use xlink:href="#b3Ryyuvj5" opacity="1" fill-opacity="0" stroke="#000000" stroke-width="1" stroke-opacity="0"></use></g></g><g><use xlink:href="#a8GBPe9wf" opacity="1" fill="#e0e0e0" fill-opacity="1"></use><g><use xlink:href="#a8GBPe9wf" opacity="1" fill-opacity="0" stroke="#000000" stroke-width="1" stroke-opacity="0"></use></g></g><g><use xlink:href="#b5ERbOvU0y" opacity="1" fill="#f0f0f0" fill-opacity="1"></use><g><use xlink:href="#b5ERbOvU0y" opacity="1" fill-opacity="0" stroke="#000000" stroke-width="1" stroke-opacity="0"></use></g></g><g><use xlink:href="#er63TDMP" opacity="1" fill="#f5f5f5" fill-opacity="1"></use><g><use xlink:href="#er63TDMP" opacity="1" fill-opacity="0" stroke="#000000" stroke-width="1" stroke-opacity="0"></use></g></g><g><use xlink:href="#jF4qMg14J" opacity="1" fill="#f0f0f0" fill-opacity="1"></use><g><use xlink:href="#jF4qMg14J" opacity="1" fill-opacity="0" stroke="#000000" stroke-width="1" stroke-opacity="0"></use></g></g><g><use xlink:href="#i43nW69Lxy" opacity="1" fill="#fafafa" fill-opacity="1"></use><g><use xlink:href="#i43nW69Lxy" opacity="1" fill-opacity="0" stroke="#000000" stroke-width="1" stroke-opacity="0"></use></g></g><g><use xlink:href="#b15SUWap4G" opacity="1" fill="#f5f5f5" fill-opacity="1"></use><g><use xlink:href="#b15SUWap4G" opacity="1" fill-opacity="0" stroke="#000000" stroke-width="1" stroke-opacity="0"></use></g></g><g><use xlink:href="#c1yhRlcQ5a" opacity="1" fill="#e0e0e0" fill-opacity="1"></use><g><use xlink:href="#c1yhRlcQ5a" opacity="1" fill-opacity="0" stroke="#000000" stroke-width="1" stroke-opacity="0"></use></g></g><g><use xlink:href="#c18x4H1YEc" opacity="1" fill="#f5f5f5" fill-opacity="1"></use><g><use xlink:href="#c18x4H1YEc" opacity="1" fill-opacity="0" stroke="#000000" stroke-width="1" stroke-opacity="0"></use></g></g><g><use xlink:href="#cwoG77uz7" opacity="1" fill="#f5f5f5" fill-opacity="1"></use><g><use xlink:href="#cwoG77uz7" opacity="1" fill-opacity="0" stroke="#000000" stroke-width="1" stroke-opacity="0"></use></g></g><g><use xlink:href="#e1qdQhkYCe" opacity="1" fill="#f5f5f5" fill-opacity="1"></use><g><use xlink:href="#e1qdQhkYCe" opacity="1" fill-opacity="0" stroke="#000000" stroke-width="1" stroke-opacity="0"></use></g></g><g><use xlink:href="#i3jWEuNU58" opacity="1" fill="#e0e0e0" fill-opacity="1"></use><g><use xlink:href="#i3jWEuNU58" opacity="1" fill-opacity="0" stroke="#000000" stroke-width="1" stroke-opacity="0"></use></g></g><g><use xlink:href="#c37p6LZKz" opacity="1" fill="#e0e0e0" fill-opacity="1"></use><g><use xlink:href="#c37p6LZKz" opacity="1" fill-opacity="0" stroke="#000000" stroke-width="1" stroke-opacity="0"></use></g></g><g><use xlink:href="#g4YijNyMS" opacity="1" fill="#e0e0e0" fill-opacity="1"></use><g><use xlink:href="#g4YijNyMS" opacity="1" fill-opacity="0" stroke="#000000" stroke-width="1" stroke-opacity="0"></use></g></g><g><use xlink:href="#j26u3nUHwo" opacity="1" fill="#f0f0f0" fill-opacity="1"></use><g><use xlink:href="#j26u3nUHwo" opacity="1" fill-opacity="0" stroke="#000000" stroke-width="1" stroke-opacity="0"></use></g></g><g><use xlink:href="#b1QYNLeB7L" opacity="1" fill="#f0f0f0" fill-opacity="1"></use><g><use xlink:href="#b1QYNLeB7L" opacity="1" fill-opacity="0" stroke="#000000" stroke-width="1" stroke-opacity="0"></use></g></g><g><use xlink:href="#dGoGmbGE" opacity="1" fill="#f5f5f5" fill-opacity="1"></use><g><use xlink:href="#dGoGmbGE" opacity="1" fill-opacity="0" stroke="#000000" stroke-width="1" stroke-opacity="0"></use></g></g><g><use xlink:href="#cgPO2QCVG" opacity="1" fill="#f0f0f0" fill-opacity="1"></use><g><use xlink:href="#cgPO2QCVG" opacity="1" fill-opacity="0" stroke="#000000" stroke-width="1" stroke-opacity="0"></use></g></g><g><use xlink:href="#d1p7VE4zv" opacity="1" fill="#fafafa" fill-opacity="1"></use><g><use xlink:href="#d1p7VE4zv" opacity="1" fill-opacity="0" stroke="#000000" stroke-width="1" stroke-opacity="0"></use></g></g><g><use xlink:href="#a15K29i5zF" opacity="1" fill="#f0f0f0" fill-opacity="1"></use><g><use xlink:href="#a15K29i5zF" opacity="1" fill-opacity="0" stroke="#000000" stroke-width="1" stroke-opacity="0"></use></g></g><g><use xlink:href="#d7LlLoIfq" opacity="1" fill="#f0f0f0" fill-opacity="1"></use><g><use xlink:href="#d7LlLoIfq" opacity="1" fill-opacity="0" stroke="#000000" stroke-width="1" stroke-opacity="0"></use></g></g><g><use xlink:href="#b1gpF0ovbQ" opacity="1" fill="#f0f0f0" fill-opacity="1"></use><g><use xlink:href="#b1gpF0ovbQ" opacity="1" fill-opacity="0" stroke="#000000" stroke-width="1" stroke-opacity="0"></use></g></g><g><use xlink:href="#b1Izlv2Hzd" opacity="1" fill="#f5f5f5" fill-opacity="1"></use><g><use xlink:href="#b1Izlv2Hzd" opacity="1" fill-opacity="0" stroke="#000000" stroke-width="1" stroke-opacity="0"></use></g></g><g><use xlink:href="#bmK40FKk2" opacity="1" fill="#e0e0e0" fill-opacity="1"></use><g><use xlink:href="#bmK40FKk2" opacity="1" fill-opacity="0" stroke="#000000" stroke-width="1" stroke-opacity="0"></use></g></g><g><use xlink:href="#abyZG17x" opacity="1" fill="#fafafa" fill-opacity="1"></use><g><use xlink:href="#abyZG17x" opacity="1" fill-opacity="0" stroke="#000000" stroke-width="1" stroke-opacity="0"></use></g></g><g><use xlink:href="#a3f91SW9ux" opacity="1" fill="#f0f0f0" fill-opacity="1"></use><g><use xlink:href="#a3f91SW9ux" opacity="1" fill-opacity="0" stroke="#000000" stroke-width="1" stroke-opacity="0"></use></g></g><g><use xlink:href="#cLYc1A8k2" opacity="1" fill="#e0e0e0" fill-opacity="1"></use><g><use xlink:href="#cLYc1A8k2" opacity="1" fill-opacity="0" stroke="#000000" stroke-width="1" stroke-opacity="0"></use></g></g><g><use xlink:href="#d3WWQMzOd" opacity="1" fill="#e0e0e0" fill-opacity="1"></use><g><use xlink:href="#d3WWQMzOd" opacity="1" fill-opacity="0" stroke="#000000" stroke-width="1" stroke-opacity="0"></use></g></g><g><use xlink:href="#a37haIt4B" opacity="1" fill="#ebebeb" fill-opacity="1"></use><g><use xlink:href="#a37haIt4B" opacity="1" fill-opacity="0" stroke="#000000" stroke-width="1" stroke-opacity="0"></use></g></g><g><use xlink:href="#i1Q86Tk0wy" opacity="1" fill="#f5f5f5" fill-opacity="1"></use><g><use xlink:href="#i1Q86Tk0wy" opacity="1" fill-opacity="0" stroke="#000000" stroke-width="1" stroke-opacity="0"></use></g></g><g><use xlink:href="#c1JDxHJYa" opacity="1" fill="#ffffff" fill-opacity="1"></use><g><use xlink:href="#c1JDxHJYa" opacity="1" fill-opacity="0" stroke="#000000" stroke-width="1" stroke-opacity="0"></use></g></g><g><use xlink:href="#a148W39MD" opacity="1" fill="#e0e0e0" fill-opacity="1"></use><g><use xlink:href="#a148W39MD" opacity="1" fill-opacity="0" stroke="#000000" stroke-width="1" stroke-opacity="0"></use></g></g><g><use xlink:href="#b1RD3qyk" opacity="1" fill="#e6e6e6" fill-opacity="1"></use><g><use xlink:href="#b1RD3qyk" opacity="1" fill-opacity="0" stroke="#000000" stroke-width="1" stroke-opacity="0"></use></g></g><g><use xlink:href="#aaqL8oW2wP" opacity="1" fill="#e6e6e6" fill-opacity="1"></use><g><use xlink:href="#aaqL8oW2wP" opacity="1" fill-opacity="0" stroke="#000000" stroke-width="1" stroke-opacity="0"></use></g></g><g><use xlink:href="#c5BeLdzf3l" opacity="1" fill="#e6e6e6" fill-opacity="1"></use><g><use xlink:href="#c5BeLdzf3l" opacity="1" fill-opacity="0" stroke="#000000" stroke-width="1" stroke-opacity="0"></use></g></g><g><use xlink:href="#b3SoxpcksC" opacity="1" fill="#e6e6e6" fill-opacity="1"></use><g><use xlink:href="#b3SoxpcksC" opacity="1" fill-opacity="0" stroke="#000000" stroke-width="1" stroke-opacity="0"></use></g></g><g><use xlink:href="#adRwwxMCq" opacity="1" fill="#f5f5f5" fill-opacity="1"></use><g><use xlink:href="#adRwwxMCq" opacity="1" fill-opacity="0" stroke="#000000" stroke-width="1" stroke-opacity="0"></use></g></g><g><use xlink:href="#g4DFUD0pNX" opacity="1" fill="#407bff" fill-opacity="1"></use><g><use xlink:href="#g4DFUD0pNX" opacity="1" fill-opacity="0" stroke="#000000" stroke-width="1" stroke-opacity="0"></use></g></g><g><use xlink:href="#b2xkEYvCu" opacity="1" fill="#407bff" fill-opacity="1"></use><g><use xlink:href="#b2xkEYvCu" opacity="1" fill-opacity="0" stroke="#000000" stroke-width="1" stroke-opacity="0"></use></g></g><g><use xlink:href="#iqqU2IOSL" opacity="1" fill="#407bff" fill-opacity="1"></use><g><use xlink:href="#iqqU2IOSL" opacity="1" fill-opacity="0" stroke="#000000" stroke-width="1" stroke-opacity="0"></use></g></g><g><use xlink:href="#j4QechJjlW" opacity="1" fill="#407bff" fill-opacity="1"></use><g><use xlink:href="#j4QechJjlW" opacity="1" fill-opacity="0" stroke="#000000" stroke-width="1" stroke-opacity="0"></use></g></g><g><use xlink:href="#b69napXnm" opacity="1" fill="#000000" fill-opacity="1"></use><g><use xlink:href="#b69napXnm" opacity="1" fill-opacity="0" stroke="#000000" stroke-width="1" stroke-opacity="0"></use></g></g><g><use xlink:href="#a1lvytTGKZ" opacity="1" fill="#000000" fill-opacity="1"></use><g><use xlink:href="#a1lvytTGKZ" opacity="1" fill-opacity="0" stroke="#000000" stroke-width="1" stroke-opacity="0"></use></g></g><g><use xlink:href="#b48dZVtYR" opacity="1" fill="#000000" fill-opacity="1"></use><g><use xlink:href="#b48dZVtYR" opacity="1" fill-opacity="0" stroke="#000000" stroke-width="1" stroke-opacity="0"></use></g></g><g><use xlink:href="#b32Q5pDDu" opacity="1" fill="#000000" fill-opacity="1"></use><g><use xlink:href="#b32Q5pDDu" opacity="1" fill-opacity="0" stroke="#000000" stroke-width="1" stroke-opacity="0"></use></g></g><g><use xlink:href="#d3hgeXGYOb" opacity="1" fill="#eac2ad" fill-opacity="1"></use><g><use xlink:href="#d3hgeXGYOb" opacity="1" fill-opacity="0" stroke="#000000" stroke-width="1" stroke-opacity="0"></use></g></g><g><use xlink:href="#bdGnhUpis" opacity="1" fill="#407bff" fill-opacity="1"></use><g><use xlink:href="#bdGnhUpis" opacity="1" fill-opacity="0" stroke="#000000" stroke-width="1" stroke-opacity="0"></use></g></g><g><use xlink:href="#d3WtoKmOy4" opacity="1" fill="#407bff" fill-opacity="1"></use><g><use xlink:href="#d3WtoKmOy4" opacity="1" fill-opacity="0" stroke="#000000" stroke-width="1" stroke-opacity="0"></use></g></g><g><use xlink:href="#c1jZkltmM2" opacity="1" fill="#407bff" fill-opacity="1"></use><g><use xlink:href="#c1jZkltmM2" opacity="1" fill-opacity="0" stroke="#000000" stroke-width="1" stroke-opacity="0"></use></g></g><g><use xlink:href="#d10RHSCqsX" opacity="1" fill="#407bff" fill-opacity="1"></use><g><use xlink:href="#d10RHSCqsX" opacity="1" fill-opacity="0" stroke="#000000" stroke-width="1" stroke-opacity="0"></use></g></g><g><use xlink:href="#a65plNDEn" opacity="1" fill="#407bff" fill-opacity="1"></use><g><use xlink:href="#a65plNDEn" opacity="1" fill-opacity="0" stroke="#000000" stroke-width="1" stroke-opacity="0"></use></g></g><g><use xlink:href="#e3n7ZSZGO0" opacity="1" fill="#e58a7b" fill-opacity="1"></use><g><use xlink:href="#e3n7ZSZGO0" opacity="1" fill-opacity="0" stroke="#000000" stroke-width="1" stroke-opacity="0"></use></g></g><g><use xlink:href="#a6eHq3R4Pw" opacity="1" fill="#e58a7b" fill-opacity="1"></use><g><use xlink:href="#a6eHq3R4Pw" opacity="1" fill-opacity="0" stroke="#000000" stroke-width="1" stroke-opacity="0"></use></g></g><g><use xlink:href="#c1YMnAKWUn" opacity="1" fill="#eac2ad" fill-opacity="1"></use><g><use xlink:href="#c1YMnAKWUn" opacity="1" fill-opacity="0" stroke="#000000" stroke-width="1" stroke-opacity="0"></use></g></g><g><use xlink:href="#d1u33mm0Oc" opacity="1" fill="#eac2ad" fill-opacity="1"></use><g><use xlink:href="#d1u33mm0Oc" opacity="1" fill-opacity="0" stroke="#000000" stroke-width="1" stroke-opacity="0"></use></g></g><g><use xlink:href="#e4k9eqhOKu" opacity="1" fill="#263238" fill-opacity="1"></use><g><use xlink:href="#e4k9eqhOKu" opacity="1" fill-opacity="0" stroke="#000000" stroke-width="1" stroke-opacity="0"></use></g></g><g><use xlink:href="#b4rPcD0nSv" opacity="1" fill="#263238" fill-opacity="1"></use><g><use xlink:href="#b4rPcD0nSv" opacity="1" fill-opacity="0" stroke="#000000" stroke-width="1" stroke-opacity="0"></use></g></g><g><use xlink:href="#b1oTFp6hOK" opacity="1" fill="#263238" fill-opacity="1"></use><g><use xlink:href="#b1oTFp6hOK" opacity="1" fill-opacity="0" stroke="#000000" stroke-width="1" stroke-opacity="0"></use></g></g><g><use xlink:href="#b6HwPW0Qsg" opacity="1" fill="#cf6f64" fill-opacity="1"></use><g><use xlink:href="#b6HwPW0Qsg" opacity="1" fill-opacity="0" stroke="#000000" stroke-width="1" stroke-opacity="0"></use></g></g><g><use xlink:href="#k2aeAmkw1S" opacity="1" fill="#cf6f64" fill-opacity="1"></use><g><use xlink:href="#k2aeAmkw1S" opacity="1" fill-opacity="0" stroke="#000000" stroke-width="1" stroke-opacity="0"></use></g></g><g><use xlink:href="#a6K4gE2Gln" opacity="1" fill="#407bff" fill-opacity="1"></use><g><use xlink:href="#a6K4gE2Gln" opacity="1" fill-opacity="0" stroke="#000000" stroke-width="1" stroke-opacity="0"></use></g></g><g><use xlink:href="#i3o7KVWaEj" opacity="1" fill="#eac2ad" fill-opacity="1"></use><g><use xlink:href="#i3o7KVWaEj" opacity="1" fill-opacity="0" stroke="#000000" stroke-width="1" stroke-opacity="0"></use></g></g><g><use xlink:href="#aeh1mpQK2" opacity="1" fill="#263238" fill-opacity="1"></use><g><use xlink:href="#aeh1mpQK2" opacity="1" fill-opacity="0" stroke="#000000" stroke-width="1" stroke-opacity="0"></use></g></g><g><use xlink:href="#a18ib5Cskt" opacity="1" fill="#263238" fill-opacity="1"></use><g><use xlink:href="#a18ib5Cskt" opacity="1" fill-opacity="0" stroke="#000000" stroke-width="1" stroke-opacity="0"></use></g></g><g><use xlink:href="#c5fIERBiwI" opacity="1" fill="#195ef9" fill-opacity="1"></use><g><use xlink:href="#c5fIERBiwI" opacity="1" fill-opacity="0" stroke="#000000" stroke-width="1" stroke-opacity="0"></use></g></g><g><use xlink:href="#a49IQvY8aA" opacity="1" fill="#195ef9" fill-opacity="1"></use><g><use xlink:href="#a49IQvY8aA" opacity="1" fill-opacity="0" stroke="#000000" stroke-width="1" stroke-opacity="0"></use></g></g><g><use xlink:href="#b1pjCri2PJ" opacity="1" fill="#cf6f64" fill-opacity="1"></use><g><use xlink:href="#b1pjCri2PJ" opacity="1" fill-opacity="0" stroke="#000000" stroke-width="1" stroke-opacity="0"></use></g></g><g><use xlink:href="#b1MomLGbIN" opacity="1" fill="#eac2ad" fill-opacity="1"></use><g><use xlink:href="#b1MomLGbIN" opacity="1" fill-opacity="0" stroke="#000000" stroke-width="1" stroke-opacity="0"></use></g></g><g><use xlink:href="#a5yJ1YaKNG" opacity="1" fill="#263238" fill-opacity="1"></use><g><use xlink:href="#a5yJ1YaKNG" opacity="1" fill-opacity="0" stroke="#000000" stroke-width="1" stroke-opacity="0"></use></g></g><g><use xlink:href="#c2aa5R9YPs" opacity="1" fill="#263238" fill-opacity="1"></use><g><use xlink:href="#c2aa5R9YPs" opacity="1" fill-opacity="0" stroke="#000000" stroke-width="1" stroke-opacity="0"></use></g></g><g><use xlink:href="#d15dAdkeXr" opacity="1" fill="#eac2ad" fill-opacity="1"></use><g><use xlink:href="#d15dAdkeXr" opacity="1" fill-opacity="0" stroke="#000000" stroke-width="1" stroke-opacity="0"></use></g></g><g><use xlink:href="#b1MUsgIqbm" opacity="1" fill="#263238" fill-opacity="1"></use><g><use xlink:href="#b1MUsgIqbm" opacity="1" fill-opacity="0" stroke="#000000" stroke-width="1" stroke-opacity="0"></use></g></g><g><use xlink:href="#c1OaS3YtJK" opacity="1" fill="#263238" fill-opacity="1"></use><g><use xlink:href="#c1OaS3YtJK" opacity="1" fill-opacity="0" stroke="#000000" stroke-width="1" stroke-opacity="0"></use></g></g><g><use xlink:href="#a5CLgXOmJ" opacity="1" fill="#263238" fill-opacity="1"></use><g><use xlink:href="#a5CLgXOmJ" opacity="1" fill-opacity="0" stroke="#000000" stroke-width="1" stroke-opacity="0"></use></g></g><g><use xlink:href="#bQWT3klM" opacity="1" fill="#263238" fill-opacity="1"></use><g><use xlink:href="#bQWT3klM" opacity="1" fill-opacity="0" stroke="#000000" stroke-width="1" stroke-opacity="0"></use></g></g><g><use xlink:href="#i8CycEPYy" opacity="1" fill="#263238" fill-opacity="1"></use><g><use xlink:href="#i8CycEPYy" opacity="1" fill-opacity="0" stroke="#000000" stroke-width="1" stroke-opacity="0"></use></g></g><g><use xlink:href="#bivl7qLmR" opacity="1" fill="#263238" fill-opacity="1"></use><g><use xlink:href="#bivl7qLmR" opacity="1" fill-opacity="0" stroke="#000000" stroke-width="1" stroke-opacity="0"></use></g></g><g><use xlink:href="#c4vm65n14E" opacity="1" fill="#263238" fill-opacity="1"></use><g><use xlink:href="#c4vm65n14E" opacity="1" fill-opacity="0" stroke="#000000" stroke-width="1" stroke-opacity="0"></use></g></g><g><use xlink:href="#b6lOCQ2MY" opacity="1" fill="#eac2ad" fill-opacity="1"></use><g><use xlink:href="#b6lOCQ2MY" opacity="1" fill-opacity="0" stroke="#000000" stroke-width="1" stroke-opacity="0"></use></g></g><g><use xlink:href="#c8T220JFT" opacity="1" fill="#407bff" fill-opacity="1"></use><g><use xlink:href="#c8T220JFT" opacity="1" fill-opacity="0" stroke="#000000" stroke-width="1" stroke-opacity="0"></use></g></g><g><use xlink:href="#b5JCULkrX1" opacity="1" fill="#407bff" fill-opacity="1"></use><g><use xlink:href="#b5JCULkrX1" opacity="1" fill-opacity="0" stroke="#000000" stroke-width="1" stroke-opacity="0"></use></g></g><g><use xlink:href="#cdNMqyh2" opacity="1" fill="#407bff" fill-opacity="1"></use><g><use xlink:href="#cdNMqyh2" opacity="1" fill-opacity="0" stroke="#000000" stroke-width="1" stroke-opacity="0"></use></g></g><g><use xlink:href="#e18NiT45mZ" opacity="1" fill="#407bff" fill-opacity="1"></use><g><use xlink:href="#e18NiT45mZ" opacity="1" fill-opacity="0" stroke="#000000" stroke-width="1" stroke-opacity="0"></use></g></g><g><use xlink:href="#bsdXSn2aQ" opacity="1" fill="#eac2ad" fill-opacity="1"></use><g><use xlink:href="#bsdXSn2aQ" opacity="1" fill-opacity="0" stroke="#000000" stroke-width="1" stroke-opacity="0"></use></g></g><g><use xlink:href="#g4tHssvRvV" opacity="1" fill="#eac2ad" fill-opacity="1"></use><g><use xlink:href="#g4tHssvRvV" opacity="1" fill-opacity="0" stroke="#000000" stroke-width="1" stroke-opacity="0"></use></g></g><g><use xlink:href="#k20DXz4SSa" opacity="1" fill="#407bff" fill-opacity="1"></use><g><use xlink:href="#k20DXz4SSa" opacity="1" fill-opacity="0" stroke="#000000" stroke-width="1" stroke-opacity="0"></use></g></g><g><use xlink:href="#b10pjtzItR" opacity="1" fill="#407bff" fill-opacity="1"></use><g><use xlink:href="#b10pjtzItR" opacity="1" fill-opacity="0" stroke="#000000" stroke-width="1" stroke-opacity="0"></use></g></g><g><use xlink:href="#c1RsRXYAoE" opacity="1" fill="#407bff" fill-opacity="1"></use><g><use xlink:href="#c1RsRXYAoE" opacity="1" fill-opacity="0" stroke="#000000" stroke-width="1" stroke-opacity="0"></use></g></g><g><use xlink:href="#a2LiT32fjr" opacity="1" fill="#ffffff" fill-opacity="1"></use><g><use xlink:href="#a2LiT32fjr" opacity="1" fill-opacity="0" stroke="#000000" stroke-width="1" stroke-opacity="0"></use></g></g><g><use xlink:href="#czfWo648D" opacity="1" fill="#407bff" fill-opacity="1"></use><g><use xlink:href="#czfWo648D" opacity="1" fill-opacity="0" stroke="#000000" stroke-width="1" stroke-opacity="0"></use></g></g><g><use xlink:href="#aKiUlW0Ol" opacity="1" fill="#000000" fill-opacity="1"></use><g><use xlink:href="#aKiUlW0Ol" opacity="1" fill-opacity="0" stroke="#000000" stroke-width="1" stroke-opacity="0"></use></g></g><g><use xlink:href="#dwIy5IgCD" opacity="1" fill="#407bff" fill-opacity="1"></use><g><use xlink:href="#dwIy5IgCD" opacity="1" fill-opacity="0" stroke="#000000" stroke-width="1" stroke-opacity="0"></use></g></g><g><use xlink:href="#aEyjsPoot" opacity="1" fill="#000000" fill-opacity="1"></use><g><use xlink:href="#aEyjsPoot" opacity="1" fill-opacity="0" stroke="#000000" stroke-width="1" stroke-opacity="0"></use></g></g><g><use xlink:href="#g133Tdm5t1" opacity="1" fill="#407bff" fill-opacity="1"></use><g><use xlink:href="#g133Tdm5t1" opacity="1" fill-opacity="0" stroke="#000000" stroke-width="1" stroke-opacity="0"></use></g></g><g><use xlink:href="#d13qTwqNsE" opacity="1" fill="#000000" fill-opacity="1"></use><g><use xlink:href="#d13qTwqNsE" opacity="1" fill-opacity="0" stroke="#000000" stroke-width="1" stroke-opacity="0"></use></g></g><g><use xlink:href="#aen5dGj9" opacity="1" fill="#407bff" fill-opacity="1"></use><g><use xlink:href="#aen5dGj9" opacity="1" fill-opacity="0" stroke="#000000" stroke-width="1" stroke-opacity="0"></use></g></g><g><use xlink:href="#e3h7qg7NPG" opacity="1" fill="#000000" fill-opacity="1"></use><g><use xlink:href="#e3h7qg7NPG" opacity="1" fill-opacity="0" stroke="#000000" stroke-width="1" stroke-opacity="0"></use></g></g><g><use xlink:href="#fst6J6ysn" opacity="1" fill="#407bff" fill-opacity="1"></use><g><use xlink:href="#fst6J6ysn" opacity="1" fill-opacity="0" stroke="#000000" stroke-width="1" stroke-opacity="0"></use></g></g><g><use xlink:href="#bRlV31R7W" opacity="1" fill="#000000" fill-opacity="1"></use><g><use xlink:href="#bRlV31R7W" opacity="1" fill-opacity="0" stroke="#000000" stroke-width="1" stroke-opacity="0"></use></g></g><g><use xlink:href="#cavK3xtSq" opacity="1" fill="#407bff" fill-opacity="1"></use><g><use xlink:href="#cavK3xtSq" opacity="1" fill-opacity="0" stroke="#000000" stroke-width="1" stroke-opacity="0"></use></g></g><g><use xlink:href="#b3ekjd3e7L" opacity="1" fill="#000000" fill-opacity="1"></use><g><use xlink:href="#b3ekjd3e7L" opacity="1" fill-opacity="0" stroke="#000000" stroke-width="1" stroke-opacity="0"></use></g></g><g><use xlink:href="#b2kBpvrRb0" opacity="1" fill="#407bff" fill-opacity="1"></use><g><use xlink:href="#b2kBpvrRb0" opacity="1" fill-opacity="0" stroke="#000000" stroke-width="1" stroke-opacity="0"></use></g></g><g><use xlink:href="#a229Zw2Bgw" opacity="1" fill="#000000" fill-opacity="1"></use><g><use xlink:href="#a229Zw2Bgw" opacity="1" fill-opacity="0" stroke="#000000" stroke-width="1" stroke-opacity="0"></use></g></g><g><use xlink:href="#a1qQ5IzIJU" opacity="1" fill="#407bff" fill-opacity="1"></use><g><use xlink:href="#a1qQ5IzIJU" opacity="1" fill-opacity="0" stroke="#000000" stroke-width="1" stroke-opacity="0"></use></g></g><g><use xlink:href="#hcG5Yto7" opacity="1" fill="#ffffff" fill-opacity="1"></use><g><use xlink:href="#hcG5Yto7" opacity="1" fill-opacity="0" stroke="#000000" stroke-width="1" stroke-opacity="0"></use></g></g><g><use xlink:href="#a16Nqk7Uq0" opacity="1" fill="#407bff" fill-opacity="1"></use><g><use xlink:href="#a16Nqk7Uq0" opacity="1" fill-opacity="0" stroke="#000000" stroke-width="1" stroke-opacity="0"></use></g></g><g><use xlink:href="#efOxJsNB9" opacity="1" fill="#ffffff" fill-opacity="1"></use><g><use xlink:href="#efOxJsNB9" opacity="1" fill-opacity="0" stroke="#000000" stroke-width="1" stroke-opacity="0"></use></g></g><g><use xlink:href="#a11X1qaXa" opacity="1" fill="#407bff" fill-opacity="1"></use><g><use xlink:href="#a11X1qaXa" opacity="1" fill-opacity="0" stroke="#000000" stroke-width="1" stroke-opacity="0"></use></g></g><g><use xlink:href="#b3lg2bLgVY" opacity="1" fill="#000000" fill-opacity="1"></use><g><use xlink:href="#b3lg2bLgVY" opacity="1" fill-opacity="0" stroke="#000000" stroke-width="1" stroke-opacity="0"></use></g></g><g><use xlink:href="#c2DcBqmxb" opacity="1" fill="#407bff" fill-opacity="1"></use><g><use xlink:href="#c2DcBqmxb" opacity="1" fill-opacity="0" stroke="#000000" stroke-width="1" stroke-opacity="0"></use></g></g><g><use xlink:href="#c3m67mhUkg" opacity="1" fill="#000000" fill-opacity="1"></use><g><use xlink:href="#c3m67mhUkg" opacity="1" fill-opacity="0" stroke="#000000" stroke-width="1" stroke-opacity="0"></use></g></g><g><use xlink:href="#aocjVmyxE" opacity="1" fill="#407bff" fill-opacity="1"></use><g><use xlink:href="#aocjVmyxE" opacity="1" fill-opacity="0" stroke="#000000" stroke-width="1" stroke-opacity="0"></use></g></g><g><use xlink:href="#c2d0xD2XdC" opacity="1" fill="#407bff" fill-opacity="1"></use><g><use xlink:href="#c2d0xD2XdC" opacity="1" fill-opacity="0" stroke="#000000" stroke-width="1" stroke-opacity="0"></use></g></g><g><use xlink:href="#h26vVanRpU" opacity="1" fill="#000000" fill-opacity="1"></use><g><use xlink:href="#h26vVanRpU" opacity="1" fill-opacity="0" stroke="#000000" stroke-width="1" stroke-opacity="0"></use></g></g><g><use xlink:href="#c2gVPAIOhU" opacity="1" fill="#407bff" fill-opacity="1"></use><g><use xlink:href="#c2gVPAIOhU" opacity="1" fill-opacity="0" stroke="#000000" stroke-width="1" stroke-opacity="0"></use></g></g><g><use xlink:href="#a1UH3g9ldn" opacity="1" fill="#000000" fill-opacity="1"></use><g><use xlink:href="#a1UH3g9ldn" opacity="1" fill-opacity="0" stroke="#000000" stroke-width="1" stroke-opacity="0"></use></g></g><g><use xlink:href="#hhkpGg30G" opacity="1" fill="#407bff" fill-opacity="1"></use><g><use xlink:href="#hhkpGg30G" opacity="1" fill-opacity="0" stroke="#000000" stroke-width="1" stroke-opacity="0"></use></g></g><g><use xlink:href="#amBJP9Pl5" opacity="1" fill="#407bff" fill-opacity="1"></use><g><use xlink:href="#amBJP9Pl5" opacity="1" fill-opacity="0" stroke="#000000" stroke-width="1" stroke-opacity="0"></use></g></g><g><use xlink:href="#a1T2PZccbG" opacity="1" fill="#407bff" fill-opacity="1"></use><g><use xlink:href="#a1T2PZccbG" opacity="1" fill-opacity="0" stroke="#000000" stroke-width="1" stroke-opacity="0"></use></g></g><g><use xlink:href="#ergCzg03" opacity="1" fill="#ffffff" fill-opacity="1"></use><g><use xlink:href="#ergCzg03" opacity="1" fill-opacity="0" stroke="#000000" stroke-width="1" stroke-opacity="0"></use></g></g><g><use xlink:href="#kbn7diH8d" opacity="1" fill="#407bff" fill-opacity="1"></use><g><use xlink:href="#kbn7diH8d" opacity="1" fill-opacity="0" stroke="#000000" stroke-width="1" stroke-opacity="0"></use></g></g><g><use xlink:href="#a9AGL8P7fv" opacity="1" fill="#000000" fill-opacity="1"></use><g><use xlink:href="#a9AGL8P7fv" opacity="1" fill-opacity="0" stroke="#000000" stroke-width="1" stroke-opacity="0"></use></g></g><g><use xlink:href="#dlRDm8rEQ" opacity="1" fill="#263238" fill-opacity="1"></use><g><use xlink:href="#dlRDm8rEQ" opacity="1" fill-opacity="0" stroke="#000000" stroke-width="1" stroke-opacity="0"></use></g></g><g><use xlink:href="#b31JcthBPt" opacity="1" fill="#407bff" fill-opacity="1"></use><g><use xlink:href="#b31JcthBPt" opacity="1" fill-opacity="0" stroke="#000000" stroke-width="1" stroke-opacity="0"></use></g></g><g><use xlink:href="#c4lbDEObYW" opacity="1" fill="#407bff" fill-opacity="1"></use><g><use xlink:href="#c4lbDEObYW" opacity="1" fill-opacity="0" stroke="#000000" stroke-width="1" stroke-opacity="0"></use></g></g><g><use xlink:href="#c1oYmli06D" opacity="1" fill="#407bff" fill-opacity="1"></use><g><use xlink:href="#c1oYmli06D" opacity="1" fill-opacity="0" stroke="#000000" stroke-width="1" stroke-opacity="0"></use></g></g><g><use xlink:href="#d1BhBlFrOj" opacity="1" fill="#407bff" fill-opacity="1"></use><g><use xlink:href="#d1BhBlFrOj" opacity="1" fill-opacity="0" stroke="#000000" stroke-width="1" stroke-opacity="0"></use></g></g><g><use xlink:href="#a2uwXrj6Bw" opacity="1" fill="#407bff" fill-opacity="1"></use><g><use xlink:href="#a2uwXrj6Bw" opacity="1" fill-opacity="0" stroke="#000000" stroke-width="1" stroke-opacity="0"></use></g></g><g><use xlink:href="#fnBX3sAWl" opacity="1" fill="#407bff" fill-opacity="1"></use><g><use xlink:href="#fnBX3sAWl" opacity="1" fill-opacity="0" stroke="#000000" stroke-width="1" stroke-opacity="0"></use></g></g><g><use xlink:href="#a3kPacf66O" opacity="1" fill="#407bff" fill-opacity="1"></use><g><use xlink:href="#a3kPacf66O" opacity="1" fill-opacity="0" stroke="#000000" stroke-width="1" stroke-opacity="0"></use></g></g><g><use xlink:href="#i3XDV9tmMy" opacity="1" fill="#407bff" fill-opacity="1"></use><g><use xlink:href="#i3XDV9tmMy" opacity="1" fill-opacity="0" stroke="#000000" stroke-width="1" stroke-opacity="0"></use></g></g><g><use xlink:href="#e1rYeP4dN" opacity="1" fill="#407bff" fill-opacity="1"></use><g><use xlink:href="#e1rYeP4dN" opacity="1" fill-opacity="0" stroke="#000000" stroke-width="1" stroke-opacity="0"></use></g></g><g><use xlink:href="#b4yb1g6Y7" opacity="1" fill="#407bff" fill-opacity="1"></use><g><use xlink:href="#b4yb1g6Y7" opacity="1" fill-opacity="0" stroke="#000000" stroke-width="1" stroke-opacity="0"></use></g></g><g><use xlink:href="#aAiC1MM8z" opacity="1" fill="#407bff" fill-opacity="1"></use><g><use xlink:href="#aAiC1MM8z" opacity="1" fill-opacity="0" stroke="#000000" stroke-width="1" stroke-opacity="0"></use></g></g><g><use xlink:href="#b43rtCl4n9" opacity="1" fill="#407bff" fill-opacity="1"></use><g><use xlink:href="#b43rtCl4n9" opacity="1" fill-opacity="0" stroke="#000000" stroke-width="1" stroke-opacity="0"></use></g></g><g><use xlink:href="#bDc5JgGff" opacity="1" fill="#407bff" fill-opacity="1"></use><g><use xlink:href="#bDc5JgGff" opacity="1" fill-opacity="0" stroke="#000000" stroke-width="1" stroke-opacity="0"></use></g></g><g><use xlink:href="#aBtRxRyqQ" opacity="1" fill="#407bff" fill-opacity="1"></use><g><use xlink:href="#aBtRxRyqQ" opacity="1" fill-opacity="0" stroke="#000000" stroke-width="1" stroke-opacity="0"></use></g></g><g><use xlink:href="#f1hCeOZSm" opacity="1" fill="#ffffff" fill-opacity="1"></use><g><use xlink:href="#f1hCeOZSm" opacity="1" fill-opacity="0" stroke="#000000" stroke-width="1" stroke-opacity="0"></use></g></g><g><use xlink:href="#a1oP7cfq9g" opacity="1" fill="#ffffff" fill-opacity="1"></use><g><use xlink:href="#a1oP7cfq9g" opacity="1" fill-opacity="0" stroke="#000000" stroke-width="1" stroke-opacity="0"></use></g></g><g><use xlink:href="#e24cXRLsyh" opacity="1" fill="#ffffff" fill-opacity="1"></use><g><use xlink:href="#e24cXRLsyh" opacity="1" fill-opacity="0" stroke="#000000" stroke-width="1" stroke-opacity="0"></use></g></g><g><use xlink:href="#b3SVEMFSmr" opacity="1" fill="#ffffff" fill-opacity="1"></use><g><use xlink:href="#b3SVEMFSmr" opacity="1" fill-opacity="0" stroke="#000000" stroke-width="1" stroke-opacity="0"></use></g></g><g><use xlink:href="#d2zm5p40Pw" opacity="1" fill="#407bff" fill-opacity="1"></use><g><use xlink:href="#d2zm5p40Pw" opacity="1" fill-opacity="0" stroke="#000000" stroke-width="1" stroke-opacity="0"></use></g></g><g><use xlink:href="#bovRrBgOr" opacity="1" fill="#ffffff" fill-opacity="1"></use><g><use xlink:href="#bovRrBgOr" opacity="1" fill-opacity="0" stroke="#000000" stroke-width="1" stroke-opacity="0"></use></g></g><g><use xlink:href="#a2tdIyGoI8" opacity="1" fill="#407bff" fill-opacity="1"></use><g><use xlink:href="#a2tdIyGoI8" opacity="1" fill-opacity="0" stroke="#000000" stroke-width="1" stroke-opacity="0"></use></g></g><g><use xlink:href="#ebk5WgLQf" opacity="1" fill="#407bff" fill-opacity="1"></use><g><use xlink:href="#ebk5WgLQf" opacity="1" fill-opacity="0" stroke="#000000" stroke-width="1" stroke-opacity="0"></use></g></g><g><use xlink:href="#aqzfy6Huf" opacity="1" fill="#407bff" fill-opacity="1"></use><g><use xlink:href="#aqzfy6Huf" opacity="1" fill-opacity="0" stroke="#000000" stroke-width="1" stroke-opacity="0"></use></g></g><g><use xlink:href="#a4gQerZk4b" opacity="1" fill="#407bff" fill-opacity="1"></use><g><use xlink:href="#a4gQerZk4b" opacity="1" fill-opacity="0" stroke="#000000" stroke-width="1" stroke-opacity="0"></use></g></g><g><use xlink:href="#n1jerKuH2x" opacity="1" fill="#000000" fill-opacity="1"></use><g><use xlink:href="#n1jerKuH2x" opacity="1" fill-opacity="0" stroke="#000000" stroke-width="1" stroke-opacity="0"></use></g></g><g><use xlink:href="#cSMNicNHg" opacity="1" fill="#000000" fill-opacity="1"></use><g><use xlink:href="#cSMNicNHg" opacity="1" fill-opacity="0" stroke="#000000" stroke-width="1" stroke-opacity="0"></use></g></g><g><use xlink:href="#c3ZcjuHSNN" opacity="1" fill="#000000" fill-opacity="1"></use><g><use xlink:href="#c3ZcjuHSNN" opacity="1" fill-opacity="0" stroke="#000000" stroke-width="1" stroke-opacity="0"></use></g></g><g><use xlink:href="#fv3kzuy85" opacity="1" fill="#000000" fill-opacity="1"></use></g></g></g></svg>