<svg width="640" height="640" viewBox="0 0 640 640" fill="none" xmlns="http://www.w3.org/2000/svg">
<path d="M133.18 357.2C133.18 357.2 133.18 351.65 125.43 343.9C117.67 336.14 112.64 331.71 112.64 331.71C112.64 331.71 108.8 344.51 115.96 352.19C121.26 357.64 127 362.64 133.13 367.14C133.14 365.15 133.17 359.19 133.18 357.2Z" fill="#407BFF"/>
<path d="M143.06 331.85C143.06 331.85 143.65 326.34 152.18 319.46L166.13 308.68C166.13 308.68 168.69 321.76 160.66 328.71C154.82 333.58 148.59 337.94 142.01 341.77C142.22 339.78 142.85 333.83 143.06 331.85Z" fill="#407BFF"/>
<path d="M130.36 372.89C130.36 372.89 131.51 367.48 140.72 361.52L155.72 352.27C155.72 352.27 156.85 365.54 148.19 371.61C141.86 375.84 135.2 379.53 128.26 382.64C128.68 380.69 129.94 374.84 130.36 372.89Z" fill="#407BFF"/>
<path d="M132.9 417.43C132.9 417.43 132.9 411.89 140.66 404.13L153.46 391.95C153.46 391.95 157.3 404.75 150.14 412.43C144.84 417.89 139.1 422.89 132.97 427.39C132.95 425.4 132.92 419.43 132.9 417.43Z" fill="#407BFF"/>
<path d="M132.77 428.3C132.77 428.3 133.57 422.82 126.99 414.04L116.11 400.17C116.11 400.17 110.46 412.24 116.49 420.93C120.96 427.08 125.93 432.85 131.37 438.17C131.65 436.2 132.49 430.27 132.77 428.3Z" fill="#407BFF"/>
<path d="M125.13 460.53C125.13 460.53 125.13 454.99 132.89 447.23L145.69 435.05C145.69 435.05 149.53 447.78 142.36 455.53C137.07 460.98 131.33 465.98 125.2 470.48C125.18 468.49 125.15 462.52 125.13 460.53Z" fill="#407BFF"/>
<path d="M130.3 489.74C130.3 489.74 128.91 484.38 134.4 474.88C139.89 465.38 143.64 459.87 143.64 459.87C143.64 459.87 150.62 471.21 145.63 480.52C141.89 487.14 137.61 493.44 132.83 499.34C132.32 497.42 130.81 491.66 130.3 489.74Z" fill="#407BFF"/>
<path d="M145.14 321.19C144.74 326.95 144.03 332.69 143.01 338.38C139.94 354.21 132.29 364.44 129.22 378.74C126.14 393.04 134.95 411.48 132.6 429.85C130.24 448.22 123.08 458.44 125.13 470.71C127.18 482.97 137.93 516.17 137.93 516.17" stroke="#263238" stroke-width="1.03"/>
<path d="M143.87 335.72L152.23 329.31" stroke="#263238" stroke-width="1.03"/>
<path d="M144.26 328.33L140.76 322.11" stroke="#263238" stroke-width="1.03"/>
<path d="M129.68 378.09C129.68 378.09 136.68 372.84 143.87 367.59" stroke="#263238" stroke-width="1.03"/>
<path d="M133.18 367.17C133.18 367.17 127.35 355.74 120.74 348.16" stroke="#263238" stroke-width="1.03"/>
<path d="M133.18 425.32C137.17 417.95 142.21 411.21 148.15 405.3" stroke="#263238" stroke-width="1.03"/>
<path d="M131.84 433.09C129.71 428.09 127.17 423.28 124.25 418.7C120.18 412.68 119.59 411.9 119.59 411.9" stroke="#263238" stroke-width="1.03"/>
<path d="M125.13 470.71C126.9 466.29 129.01 462.01 131.43 457.91C133.85 454.13 136.58 450.55 139.6 447.22" stroke="#263238" stroke-width="1.03"/>
<path d="M132.84 499.38C132.43 495.18 133.15 490.95 134.92 487.12C137.84 481.47 141.15 474.1 142.52 471.18" stroke="#263238" stroke-width="1.03"/>
<path d="M93.66 396.6C93.66 396.6 93.06 393.13 97.08 387.42L103.74 378.39C103.74 378.39 107.58 385.97 103.88 391.62C101.15 395.61 98.09 399.37 94.72 402.85C94.51 401.6 93.87 397.85 93.66 396.6Z" fill="#407BFF"/>
<path d="M104.46 417.08C104.46 417.08 103.87 413.59 107.89 407.9L114.55 398.87C114.55 398.87 118.39 406.44 114.69 412.08C111.96 416.08 108.9 419.84 105.55 423.32C105.33 422.07 104.68 418.32 104.46 417.08Z" fill="#407BFF"/>
<path d="M94.99 402.47C94.99 402.47 94.02 399.08 87.92 395.67C81.83 392.27 78 390.4 78 390.4C78 390.4 77.85 398.87 83.61 402.37C87.8 404.78 92.18 406.84 96.72 408.52C96.37 407.31 95.33 403.68 94.99 402.47Z" fill="#407BFF"/>
<path d="M107.94 426.61C107.94 426.61 106.66 423.33 100.26 420.6L89.84 416.44C89.84 416.44 90.59 424.87 96.68 427.74C101.1 429.7 105.68 431.29 110.36 432.5C109.88 431.32 108.43 427.79 107.94 426.61Z" fill="#407BFF"/>
<path d="M111.18 454.81C111.18 454.81 110.58 451.34 104.87 447.32L95.56 441.06C95.56 441.06 94.52 449.47 99.87 453.56C103.78 456.4 107.92 458.91 112.26 461.07C112.04 459.82 111.4 456.06 111.18 454.81Z" fill="#407BFF"/>
<path d="M112.44 461.62C112.44 461.62 111.36 458.24 114.52 452.04C117.68 445.85 119.83 442.16 119.83 442.16C119.83 442.16 124.68 449.11 121.86 455.23C119.72 459.57 117.22 463.72 114.39 467.65C114 466.44 112.83 462.82 112.44 461.62Z" fill="#407BFF"/>
<path d="M122.18 489.64C122.18 489.64 122.57 486.13 128.04 481.79L137 475.02C137 475.02 138.53 483.35 133.41 487.73C129.67 490.79 125.67 493.54 121.47 495.94C121.61 494.68 122.04 490.9 122.18 489.64Z" fill="#407BFF"/>
<path d="M120.73 481C120.73 481 120.13 477.52 114.43 473.5C108.74 469.48 105.11 467.2 105.11 467.2C105.11 467.2 104.06 475.61 109.43 479.69C113.34 482.54 117.48 485.05 121.82 487.21C121.6 485.96 120.95 482.24 120.73 481Z" fill="#407BFF"/>
<path d="M120.65 499.88C120.65 499.88 120.96 496.36 116.45 491.03L109.03 482.61C109.03 482.61 105.88 490.48 110.04 495.8C113.11 499.54 116.47 503.02 120.12 506.2C120.22 504.94 120.55 501.14 120.65 499.88Z" fill="#407BFF"/>
<path d="M93.06 395.79C93.94 399.36 95 402.88 96.26 406.34C99.9 415.94 105.82 421.52 109.29 430.16C112.76 438.8 109.29 451.3 112.72 462.57C116.15 473.83 121.79 479.46 121.83 487.37C121.87 495.28 118.76 517.27 118.76 517.27" stroke="#263238" stroke-width="1.03"/>
<path d="M95.44 404.76L89.5 401.65" stroke="#263238" stroke-width="1.03"/>
<path d="M94.39 400.18L95.91 395.89" stroke="#263238" stroke-width="1.03"/>
<path d="M108.93 429.8C108.93 429.8 103.97 427.24 98.89 424.76" stroke="#263238" stroke-width="1.03"/>
<path d="M105.55 423.32C107.01 418.71 108.93 414.27 111.28 410.05" stroke="#263238" stroke-width="1.03"/>
<path d="M111.86 459.79C108.57 455.61 104.69 451.92 100.34 448.86" stroke="#263238" stroke-width="1.03"/>
<path d="M113.56 464.51C114.35 461.15 115.41 457.86 116.75 454.67C118.66 450.46 118.94 449.89 118.94 449.89" stroke="#263238" stroke-width="1.03"/>
<path d="M121.6 493.38C123.53 490.98 125.68 488.76 128 486.75C129.48 485.66 130.86 484.46 132.15 483.15" stroke="#263238" stroke-width="1.03"/>
<path d="M121.83 487.37C120.25 484.81 118.47 482.37 116.51 480.08C114.58 477.96 112.47 476.02 110.22 474.25" stroke="#263238" stroke-width="1.03"/>
<path d="M120.12 506.2C119.91 503.52 119 500.94 117.48 498.73C115.03 495.51 112.15 491.24 110.99 489.56" stroke="#263238" stroke-width="1.03"/>
<path d="M153.6 513.45C153.6 536.34 153.6 549.06 153.6 551.6C153.6 553.72 151.88 555.44 149.76 555.44C145.47 555.44 111.11 555.44 106.82 555.44C104.7 555.44 102.98 553.72 102.98 551.6C102.98 549.06 102.98 536.34 102.98 513.45H153.6Z" fill="#263238"/>
<path d="M102.92 520.06C100.73 520.06 98.96 518.29 98.96 516.1C98.96 516.09 98.96 516.09 98.96 516.08C98.96 513.89 100.73 512.12 102.92 512.12C107.95 512.12 148.18 512.12 153.2 512.12C155.39 512.12 157.17 513.89 157.17 516.08C157.18 518.27 155.41 520.06 153.22 520.06C153.21 520.06 153.21 520.06 153.2 520.06C153.2 520.06 107.95 520.06 102.92 520.06Z" fill="#263238"/>
<path d="M168.96 542.72C168.96 542.72 166.21 553.32 166.21 555.99C166.21 555.99 165.54 560.46 171.33 561.57C171.33 561.57 180.93 562.02 181.82 559.35L183.39 543.26C182.45 543.08 177.75 542.18 169.31 540.57C169.12 541.72 169.01 542.43 168.96 542.72Z" fill="white"/>
<path d="M168.96 542.72C168.96 542.72 166.21 553.32 166.21 555.99C166.21 555.99 165.54 560.46 171.33 561.57C171.33 561.57 180.93 562.02 181.82 559.35L183.39 543.26C182.45 543.08 177.75 542.18 169.31 540.57C169.12 541.72 169.01 542.43 168.96 542.72Z" stroke="#263238" stroke-width="1.03"/>
<path d="M182.22 557.02C176.85 557.05 171.49 556.62 166.2 555.74C166.2 558.3 165.7 560.03 171.32 561.1C176.94 562.18 180.98 561.56 181.84 558.89C182.02 558.28 182.15 557.65 182.22 557.02Z" fill="black"/>
<path d="M182.22 557.02C176.85 557.05 171.49 556.62 166.2 555.74C166.2 558.3 165.7 560.03 171.32 561.1C176.94 562.18 180.98 561.56 181.84 558.89C182.02 558.28 182.15 557.65 182.22 557.02Z" stroke="#263238" stroke-width="1.03"/>
<path d="M315.66 547.29C322.15 549.3 335.36 551.54 336.64 551.76C337.92 551.97 337.92 554.66 336.86 555.79C335.8 556.92 329.93 560.26 323.01 562.04C316.08 563.81 292.61 565.39 290.6 564.06C288.92 562.93 289.48 551.99 290.15 549.53C290.82 547.07 304.7 543.72 304.7 543.72C306.9 544.43 309.17 545.28 315.66 547.29Z" fill="white"/>
<path d="M315.66 547.29C322.15 549.3 335.36 551.54 336.64 551.76C337.92 551.97 337.92 554.66 336.86 555.79C335.8 556.92 329.93 560.26 323.01 562.04C316.08 563.81 292.61 565.39 290.6 564.06C288.92 562.93 289.48 551.99 290.15 549.53C290.82 547.07 304.7 543.72 304.7 543.72C306.9 544.43 309.17 545.28 315.66 547.29Z" stroke="#263238" stroke-width="1.03"/>
<path d="M337.55 552.65C333.02 556.26 323.97 560.23 314.76 561.15C306.41 561.75 298.02 561.7 289.68 561.02C289.84 562.56 290.14 563.72 290.62 564.06C292.63 565.34 316.1 563.83 323.03 562.04C329.97 560.24 335.77 556.9 336.88 555.79C337.62 554.93 337.88 553.74 337.55 552.65Z" fill="black"/>
<path d="M337.55 552.65C333.02 556.26 323.97 560.23 314.76 561.15C306.41 561.75 298.02 561.7 289.68 561.02C289.84 562.56 290.14 563.72 290.62 564.06C292.63 565.34 316.1 563.83 323.03 562.04C329.97 560.24 335.77 556.9 336.88 555.79C337.62 554.93 337.88 553.74 337.55 552.65Z" stroke="#263238" stroke-width="1.03"/>
<path d="M195.74 385.24C195.74 385.24 190.12 436.72 189.25 459.66C189.25 459.66 177.14 499.9 175.4 512.45C173.76 522.64 171.61 532.74 168.96 542.72C171.65 544.21 174.58 545.24 177.61 545.75C183.68 547.03 184.54 542.28 184.54 542.28C184.54 542.28 217.82 465.7 220.45 454.45C223.09 443.2 231.68 402.98 231.68 402.98C235.26 409.56 263.94 462.17 267.52 468.75C267.52 468.75 269.26 491.25 274.44 504.23L289.59 553.11C293.53 553.33 297.48 552.9 301.27 551.83C306.47 550.11 306.47 547.51 306.47 547.51C306.47 547.51 298.68 518.52 298.68 509C298.68 499.49 295.65 467.03 293.49 457.95C291.33 448.86 276.61 401.27 274.44 396.07C272.28 390.87 267.52 374.44 267.52 374.44C267.22 371.88 264.8 351.46 264.5 348.9C264.5 348.9 227.33 359.28 196.61 348.89C196.43 356.16 192.77 372.26 195.74 385.24Z" fill="#263238"/>
<path d="M195.74 385.24C195.74 385.24 190.12 436.72 189.25 459.66C189.25 459.66 177.14 499.9 175.4 512.45C173.76 522.64 171.61 532.74 168.96 542.72C171.65 544.21 174.58 545.24 177.61 545.75C183.68 547.03 184.54 542.28 184.54 542.28C184.54 542.28 217.82 465.7 220.45 454.45C223.09 443.2 231.68 402.98 231.68 402.98C235.26 409.56 263.94 462.17 267.52 468.75C267.52 468.75 269.26 491.25 274.44 504.23L289.59 553.11C293.53 553.33 297.48 552.9 301.27 551.83C306.47 550.11 306.47 547.51 306.47 547.51C306.47 547.51 298.68 518.52 298.68 509C298.68 499.49 295.65 467.03 293.49 457.95C291.33 448.86 276.61 401.27 274.44 396.07C272.28 390.87 267.52 374.44 267.52 374.44C267.22 371.88 264.8 351.46 264.5 348.9C264.5 348.9 227.33 359.28 196.61 348.89C196.43 356.16 192.77 372.26 195.74 385.24Z" stroke="#263238" stroke-width="1.03"/>
<path d="M222.99 238.62C222.99 238.62 220.99 234.3 220.99 231.65L219.71 216.41C219.71 216.41 238.91 181.63 244.22 175C247.69 170.76 251.57 166.87 255.82 163.4C255.82 163.4 268.75 160.76 271.4 160.76C271.4 160.76 277.03 159.48 277.03 157.77C277.03 157.77 272.71 156.49 270.06 156.49L264.1 154.18C264.1 154.18 268.41 141.82 269.73 136.95C270.44 134.39 272.71 129 271.01 129C269.31 129 269.03 130.28 268.03 132.31C267.03 134.35 262.73 140.93 262.73 140.93C262.83 139.47 263.62 127.81 263.72 126.35C263.72 126.35 262.44 124.36 261.4 126.68C260.09 130.26 258.98 133.91 258.08 137.61C257.78 138.77 257.21 139.85 256.43 140.76C256.3 139.67 255.28 130.98 255.15 129.89C255.15 129.89 252.9 127.5 252.5 131.65C252.29 133.95 252.5 141.59 252.5 142.91C252.5 144.23 251.22 141.03 251.22 141.03C251.22 141.03 250.44 137.43 249.57 136.95C248.7 136.46 247.92 137.61 248.29 140.26C248.66 142.91 247.96 153.84 247.96 153.84C247.96 153.84 245.98 156.49 242.99 160.14C240.01 163.79 216.11 185.32 207.15 192.28C198.19 199.24 197.22 204.88 195.89 211.83C194.56 218.78 193.24 259.19 193.24 273.79C193.24 288.4 194.52 311.55 195.56 319.18C196.59 326.81 194.76 336.64 193.48 341.99C192.2 347.34 193.48 351.92 197.13 354.57C200.78 357.22 216.33 358.89 229.26 358.89C242.19 358.89 255.43 357.61 259.42 356.24C263.4 354.87 266.44 354.56 266.44 349.27C266.44 343.99 263.79 333.38 263.79 330.39C263.79 327.41 269.1 296.6 269.1 296.6C269.1 296.6 302.9 306.84 309.19 304.55C315.49 302.26 368.16 252.53 368.16 252.53C368.16 252.53 376.45 249.22 380.76 248.55C385.07 247.88 391.69 244.92 392.02 243.92C392.36 242.92 391.36 243.25 388.71 243.25C386.35 243.41 384.01 243.84 381.74 244.53C381.74 244.53 390.79 238.8 392.36 238.23C393.43 237.84 395.29 235.39 392.69 235.92C389.42 236.57 381.42 238.9 381.42 238.9C382.48 238.24 390.96 232.93 392.02 232.27C392.02 232.27 393.67 229.62 391.69 229.62L379.76 235.58C380.53 234.86 386.67 229.11 387.44 228.39C388.94 227.01 387.68 225.05 385.92 226.07C385.02 226.59 377.85 230.68 376.96 231.19C374.77 232.47 372.46 233.51 370.05 234.28C369.88 234.38 368.56 235.18 368.39 235.28C368.72 233.53 368.95 231.76 369.06 229.98C369.06 228.31 368.06 224.01 365.74 223.68C363.43 223.35 365.41 226.66 365.41 228.31C365.41 229.96 362.1 238.55 362.1 239.91C362.1 240.31 362.1 243.49 362.1 243.89C362.1 243.89 350.83 253.82 340.57 259.14L307.1 282C307.1 282 280.6 268.4 274.63 263.44C274.63 263.44 262.04 252.51 255.43 247.21C252 244.35 248.35 241.79 244.5 239.53C240.2 239.34 227.29 238.8 222.99 238.62Z" fill="#EAC2AD"/>
<path d="M222.99 238.62C222.99 238.62 220.99 234.3 220.99 231.65L219.71 216.41C219.71 216.41 238.91 181.63 244.22 175C247.69 170.76 251.57 166.87 255.82 163.4C255.82 163.4 268.75 160.76 271.4 160.76C271.4 160.76 277.03 159.48 277.03 157.77C277.03 157.77 272.71 156.49 270.06 156.49L264.1 154.18C264.1 154.18 268.41 141.82 269.73 136.95C270.44 134.39 272.71 129 271.01 129C269.31 129 269.03 130.28 268.03 132.31C267.03 134.35 262.73 140.93 262.73 140.93C262.83 139.47 263.62 127.81 263.72 126.35C263.72 126.35 262.44 124.36 261.4 126.68C260.09 130.26 258.98 133.91 258.08 137.61C257.78 138.77 257.21 139.85 256.43 140.76C256.3 139.67 255.28 130.98 255.15 129.89C255.15 129.89 252.9 127.5 252.5 131.65C252.29 133.95 252.5 141.59 252.5 142.91C252.5 144.23 251.22 141.03 251.22 141.03C251.22 141.03 250.44 137.43 249.57 136.95C248.7 136.46 247.92 137.61 248.29 140.26C248.66 142.91 247.96 153.84 247.96 153.84C247.96 153.84 245.98 156.49 242.99 160.14C240.01 163.79 216.11 185.32 207.15 192.28C198.19 199.24 197.22 204.88 195.89 211.83C194.56 218.78 193.24 259.19 193.24 273.79C193.24 288.4 194.52 311.55 195.56 319.18C196.59 326.81 194.76 336.64 193.48 341.99C192.2 347.34 193.48 351.92 197.13 354.57C200.78 357.22 216.33 358.89 229.26 358.89C242.19 358.89 255.43 357.61 259.42 356.24C263.4 354.87 266.44 354.56 266.44 349.27C266.44 343.99 263.79 333.38 263.79 330.39C263.79 327.41 269.1 296.6 269.1 296.6C269.1 296.6 302.9 306.84 309.19 304.55C315.49 302.26 368.16 252.53 368.16 252.53C368.16 252.53 376.45 249.22 380.76 248.55C385.07 247.88 391.69 244.92 392.02 243.92C392.36 242.92 391.36 243.25 388.71 243.25C386.35 243.41 384.01 243.84 381.74 244.53C381.74 244.53 390.79 238.8 392.36 238.23C393.43 237.84 395.29 235.39 392.69 235.92C389.42 236.57 381.42 238.9 381.42 238.9C382.48 238.24 390.96 232.93 392.02 232.27C392.02 232.27 393.67 229.62 391.69 229.62L379.76 235.58C380.53 234.86 386.67 229.11 387.44 228.39C388.94 227.01 387.68 225.05 385.92 226.07C385.02 226.59 377.85 230.68 376.96 231.19C374.77 232.47 372.46 233.51 370.05 234.28C369.88 234.38 368.56 235.18 368.39 235.28C368.72 233.53 368.95 231.76 369.06 229.98C369.06 228.31 368.06 224.01 365.74 223.68C363.43 223.35 365.41 226.66 365.41 228.31C365.41 229.96 362.1 238.55 362.1 239.91C362.1 240.31 362.1 243.49 362.1 243.89C362.1 243.89 350.83 253.82 340.57 259.14L307.1 282C307.1 282 280.6 268.4 274.63 263.44C274.63 263.44 262.04 252.51 255.43 247.21C252 244.35 248.35 241.79 244.5 239.53C240.2 239.34 227.29 238.8 222.99 238.62Z" stroke="#263238" stroke-width="1.03"/>
<path d="M308.21 282.02C308.21 282.02 281.72 268.43 275.75 263.46C269.79 258.5 263.16 252.53 256.55 247.23C253.12 244.38 249.47 241.81 245.62 239.55C243.47 239.45 226.24 238.66 224.09 238.57C224.09 238.57 222.09 234.25 222.09 231.6L220.81 216.36C220.81 216.36 230.73 198.44 238.28 185.83C238.22 185.77 237.74 185.28 237.68 185.22C233.97 181.52 228.84 179.52 224.36 178.43C218.11 183.97 211.9 189.31 208.22 192.18C199.26 199.13 198.28 204.77 196.95 211.72C195.62 218.68 194.3 259.08 194.3 273.69C194.3 288.29 195.58 311.45 196.62 319.08C197.66 326.71 195.84 336.64 194.56 341.99C193.28 347.34 194.56 351.92 198.21 354.57C201.86 357.22 217.41 358.89 230.34 358.89C243.26 358.89 256.51 357.61 260.49 356.24C264.47 354.87 267.52 354.56 267.52 349.27C267.52 343.99 264.87 333.38 264.87 330.39C264.87 327.41 270.18 296.6 270.18 296.6C270.18 296.6 303.97 306.84 310.27 304.55C313.63 303.27 330.24 288.55 344.97 275.11C342.29 270.59 338.84 266.57 334.78 263.23C323.53 270.43 313.53 278.26 308.21 282.02Z" fill="#407BFF"/>
<path d="M308.21 282.02C308.21 282.02 281.72 268.43 275.75 263.46C269.79 258.5 263.16 252.53 256.55 247.23C253.12 244.38 249.47 241.81 245.62 239.55C243.47 239.45 226.24 238.66 224.09 238.57C224.09 238.57 222.09 234.25 222.09 231.6L220.81 216.36C220.81 216.36 230.73 198.44 238.28 185.83C238.22 185.77 237.74 185.28 237.68 185.22C233.97 181.52 228.84 179.52 224.36 178.43C218.11 183.97 211.9 189.31 208.22 192.18C199.26 199.13 198.28 204.77 196.95 211.72C195.62 218.68 194.3 259.08 194.3 273.69C194.3 288.29 195.58 311.45 196.62 319.08C197.66 326.71 195.84 336.64 194.56 341.99C193.28 347.34 194.56 351.92 198.21 354.57C201.86 357.22 217.41 358.89 230.34 358.89C243.26 358.89 256.51 357.61 260.49 356.24C264.47 354.87 267.52 354.56 267.52 349.27C267.52 343.99 264.87 333.38 264.87 330.39C264.87 327.41 270.18 296.6 270.18 296.6C270.18 296.6 303.97 306.84 310.27 304.55C313.63 303.27 330.24 288.55 344.97 275.11C342.29 270.59 338.84 266.57 334.78 263.23C323.53 270.43 313.53 278.26 308.21 282.02Z" stroke="#263238" stroke-width="1.03"/>
<path d="M259.84 253.13C259.84 253.13 246.5 256.77 245.76 266.87" stroke="#263238" stroke-width="1.03"/>
<path d="M270.08 296.6C270.08 296.6 254.54 292.33 246.46 284.24" stroke="#263238" stroke-width="1.03"/>
<path d="M261.45 294.4C261.45 294.4 248.12 298.04 235.99 293.2" stroke="#263238" stroke-width="1.03"/>
<path d="M205.18 272.93C205.18 272.93 209.4 302.37 229.7 317.04" stroke="#263238" stroke-width="1.03"/>
<path d="M236.1 325.12C237.64 325.54 239.24 325.91 240.9 326.21" stroke="#263238" stroke-width="1.03"/>
<path d="M205.18 302.34C210.86 310.8 218.71 317.59 227.9 322" stroke="#263238" stroke-width="1.03"/>
<path d="M201.25 236.98C201.25 236.98 214.18 230.58 221.86 236.57" stroke="#263238" stroke-width="1.03"/>
<path d="M204.89 207.49C204.89 207.49 216.61 211.53 219.84 219.61" stroke="#263238" stroke-width="1.03"/>
<path d="M212.57 204.66C215.37 206.92 217.36 210.04 218.23 213.54" stroke="#263238" stroke-width="1.03"/>
<path d="M269.79 199.85C269.79 199.85 266.47 203.83 267.79 207.8C267.79 207.8 272.1 212.11 271.44 215.48L266.47 220.77C266.47 220.77 264.15 230.05 261.82 234.02L250.89 235.02C250.83 236.08 250.29 244.56 250.23 245.62C250.23 245.62 247.24 249.93 236.31 248.6C230.02 247.91 223.87 246.23 218.1 243.64C217.93 243.4 216.6 241.55 216.44 241.32C216.44 241.32 225.05 237 225.4 234.02C225.4 234.02 225.4 224.09 225.4 214.14C225.4 214.14 222.41 184.99 238.64 180.02C254.87 175.05 267.79 185.6 267.79 185.6C268.19 188.45 269.79 196.86 269.79 199.85Z" fill="#EAC2AD"/>
<path d="M269.79 199.85C269.79 199.85 266.47 203.83 267.79 207.8C267.79 207.8 272.1 212.11 271.44 215.48L266.47 220.77C266.47 220.77 264.15 230.05 261.82 234.02L250.89 235.02C250.83 236.08 250.29 244.56 250.23 245.62C250.23 245.62 247.24 249.93 236.31 248.6C230.02 247.91 223.87 246.23 218.1 243.64C217.93 243.4 216.6 241.55 216.44 241.32C216.44 241.32 225.05 237 225.4 234.02C225.4 234.02 225.4 224.09 225.4 214.14C225.4 214.14 222.41 184.99 238.64 180.02C254.87 175.05 267.79 185.6 267.79 185.6C268.19 188.45 269.79 196.86 269.79 199.85Z" stroke="#263238" stroke-width="1.03"/>
<path d="M239.63 209.13C236.92 212.31 240.29 221.72 241.95 223.04C243.6 224.36 247.24 223.71 247.24 223.71C247.24 223.71 241.95 229 236.31 229C230.68 229 225.72 223.71 222.07 214.43C218.42 205.15 215.77 189.25 219.75 179.64C223.73 170.02 244.28 169.7 248.91 169.7C253.54 169.7 260.51 172.35 260.51 172.35C260.51 172.35 275.42 171.07 275.75 176C276.08 180.93 273.75 181.3 273.75 181.3C273.75 181.3 284.36 186.93 279.39 189.25C274.41 191.56 266.8 190.25 261.82 190.25C259.1 190.09 256.53 191.5 255.21 193.88C255.21 193.88 259.84 196.86 258.19 198.2C258.19 198.2 250.51 202.16 249.91 204.49C249.91 204.49 252.22 210.46 250.23 212.17C248.23 213.89 247.55 212.8 247.55 212.8C245.97 212.07 243.81 204.22 239.63 209.13Z" fill="#263238"/>
<path d="M239.63 209.13C236.92 212.31 240.29 221.72 241.95 223.04C243.6 224.36 247.24 223.71 247.24 223.71C247.24 223.71 241.95 229 236.31 229C230.68 229 225.72 223.71 222.07 214.43C218.42 205.15 215.77 189.25 219.75 179.64C223.73 170.02 244.28 169.7 248.91 169.7C253.54 169.7 260.51 172.35 260.51 172.35C260.51 172.35 275.42 171.07 275.75 176C276.08 180.93 273.75 181.3 273.75 181.3C273.75 181.3 284.36 186.93 279.39 189.25C274.41 191.56 266.8 190.25 261.82 190.25C259.1 190.09 256.53 191.5 255.21 193.88C255.21 193.88 259.84 196.86 258.19 198.2C258.19 198.2 250.51 202.16 249.91 204.49C249.91 204.49 252.22 210.46 250.23 212.17C248.23 213.89 247.55 212.8 247.55 212.8C245.97 212.07 243.81 204.22 239.63 209.13Z" stroke="#263238" stroke-width="1.03"/>
<path d="M264.42 211.85C263.56 211.85 262.87 210.48 262.87 208.79C262.87 207.1 263.58 205.73 264.42 205.73C265.27 205.73 265.98 207.1 265.98 208.79C265.98 210.48 265.28 211.85 264.42 211.85Z" fill="#263238"/>
<path d="M260.56 204.89C260.56 204.89 262.69 199.9 266.09 202.57" stroke="#263238" stroke-width="1.03"/>
<path d="M231.65 402.98L228.62 397.35L213.48 393.46" stroke="white" stroke-width="1.03"/>
</svg>
