<?xml version="1.0" encoding="UTF-8" standalone="no"?>
<!DOCTYPE svg PUBLIC "-//W3C//DTD SVG 1.1//EN" "http://www.w3.org/Graphics/SVG/1.1/DTD/svg11.dtd">
<svg version="1.1" xmlns="http://www.w3.org/2000/svg" xmlns:xlink="http://www.w3.org/1999/xlink" preserveAspectRatio="xMidYMid meet" viewBox="0 0 640 640" width="640" height="640"><defs><path d="M0 488.47C0 488.47 0 488.47 0 488.47C0 488.66 0 488.77 0 488.79C0 488.79 0 488.79 0 488.79C384 488.79 597.33 488.79 640 488.79C640 488.79 640 488.79 640 488.79C640 488.6 640 488.49 640 488.47C640 488.47 640 488.47 640 488.47C256 488.47 42.67 488.47 0 488.47Z" id="d1ATU6iw4V"></path><path d="M494.26 498.74C494.26 498.74 494.26 498.74 494.26 498.74C494.26 498.93 494.26 499.04 494.26 499.06C494.26 499.06 494.26 499.06 494.26 499.06C520.68 499.06 535.36 499.06 538.29 499.06C538.29 499.06 538.29 499.06 538.29 499.06C538.29 498.87 538.29 498.76 538.29 498.74C538.29 498.74 538.29 498.74 538.29 498.74C511.87 498.74 497.19 498.74 494.26 498.74Z" id="b13fgEM1A6"></path><path d="M472.67 498.74C472.67 498.74 472.67 498.74 472.67 498.74C472.67 498.93 472.67 499.04 472.67 499.06C472.67 499.06 472.67 499.06 472.67 499.06C480.56 499.06 484.95 499.06 485.82 499.06C485.82 499.06 485.82 499.06 485.82 499.06C485.82 498.87 485.82 498.76 485.82 498.74C485.82 498.74 485.82 498.74 485.82 498.74C477.93 498.74 473.54 498.74 472.67 498.74Z" id="c2RmCI9OIJ"></path><path d="M407.74 492.45C407.74 492.45 407.74 492.45 407.74 492.45C407.74 492.64 407.74 492.75 407.74 492.77C407.74 492.77 407.74 492.77 407.74 492.77C422.61 492.77 430.87 492.77 432.52 492.77C432.52 492.77 432.52 492.77 432.52 492.77C432.52 492.58 432.52 492.47 432.52 492.45C432.52 492.45 432.52 492.45 432.52 492.45C417.66 492.45 409.4 492.45 407.74 492.45Z" id="b1Tqc1h6sN"></path><path d="M88.82 505.84C88.82 505.84 88.82 505.84 88.82 505.84C88.82 506.03 88.82 506.14 88.82 506.16C88.82 506.16 88.82 506.16 88.82 506.16C121.99 506.16 140.42 506.16 144.1 506.16C144.1 506.16 144.1 506.16 144.1 506.16C144.1 505.97 144.1 505.86 144.1 505.84C144.1 505.84 144.1 505.84 144.1 505.84C110.93 505.84 92.5 505.84 88.82 505.84Z" id="e1mqDe8A3Z"></path><path d="M69.31 505.84C69.31 505.84 69.31 505.84 69.31 505.84C69.31 506.03 69.31 506.14 69.31 506.16C69.31 506.16 69.31 506.16 69.31 506.16C74.17 506.16 76.87 506.16 77.41 506.16C77.41 506.16 77.41 506.16 77.41 506.16C77.41 505.97 77.41 505.86 77.41 505.84C77.41 505.84 77.41 505.84 77.41 505.84C72.55 505.84 69.85 505.84 69.31 505.84Z" id="a1iYyoRv9Y"></path><path d="M130.11 494.6C130.11 494.6 130.11 494.6 130.11 494.6C130.11 494.8 130.11 494.9 130.11 494.92C130.11 494.92 130.11 494.92 130.11 494.92C202.06 494.92 242.03 494.92 250.02 494.92C250.02 494.92 250.02 494.92 250.02 494.92C250.02 494.73 250.02 494.62 250.02 494.6C250.02 494.6 250.02 494.6 250.02 494.6C178.08 494.6 138.11 494.6 130.11 494.6Z" id="b4y7CJk0h3"></path><path d="M583.8 431.38C587.83 431.38 591.09 428.11 591.09 424.08C591.09 389.33 591.09 111.39 591.09 76.64C591.06 72.64 587.8 69.41 583.8 69.4C559.08 69.4 361.36 69.4 336.64 69.4C332.6 69.4 329.33 72.67 329.33 76.71C329.33 76.71 329.33 76.71 329.33 76.71C329.33 111.45 329.33 389.34 329.33 424.08C329.33 428.11 332.6 431.38 336.64 431.38C336.64 431.38 336.64 431.38 336.64 431.38C386.07 431.38 559.08 431.38 583.8 431.38ZM583.8 69.66C587.65 69.66 590.77 72.79 590.77 76.64C590.77 111.39 590.77 389.33 590.77 424.08C590.77 427.93 587.65 431.06 583.8 431.06C559.08 431.06 361.36 431.06 336.64 431.06C332.78 431.06 329.66 427.93 329.65 424.08C329.65 389.33 329.65 111.39 329.65 76.64C329.66 72.79 332.78 69.66 336.64 69.66C386.07 69.66 534.36 69.66 583.8 69.66Z" id="cOdjA5e9B"></path><path d="M306.93 431.38C310.96 431.38 314.23 428.11 314.24 424.08C314.24 389.33 314.24 111.39 314.24 76.64C314.2 72.64 310.94 69.41 306.93 69.4C282.21 69.4 84.48 69.4 59.76 69.4C55.76 69.41 52.52 72.64 52.48 76.64C52.48 111.39 52.48 389.33 52.48 424.08C52.48 428.1 55.74 431.37 59.76 431.38C59.76 431.38 282.21 431.38 306.93 431.38ZM306.93 69.66C310.79 69.66 313.91 72.79 313.92 76.64C313.92 111.39 313.92 389.33 313.92 424.08C313.91 427.93 310.79 431.06 306.93 431.06C282.21 431.06 84.48 431.06 59.76 431.06C55.91 431.06 52.78 427.93 52.77 424.08C52.77 389.33 52.77 111.39 52.77 76.64C52.78 72.79 55.91 69.66 59.76 69.66C109.2 69.66 257.5 69.66 306.93 69.66Z" id="a1scqZeEQh"></path><path d="M103.65 314.02C103.65 314.02 103.65 314.02 103.65 314.02C103.65 418.69 103.65 476.84 103.65 488.47C103.65 488.47 103.65 488.47 103.65 488.47C157.47 488.47 187.36 488.47 193.34 488.47C193.34 488.47 193.34 488.47 193.34 488.47C193.34 383.8 193.34 325.65 193.34 314.02C193.34 314.02 193.34 314.02 193.34 314.02C139.53 314.02 109.63 314.02 103.65 314.02Z" id="bk7s6SB6d"></path><path d="M103.65 314.02C103.65 314.02 103.65 314.02 103.65 314.02C103.65 418.69 103.65 476.84 103.65 488.47C103.65 488.47 103.65 488.47 103.65 488.47C108.09 488.47 110.56 488.47 111.05 488.47C111.05 488.47 111.05 488.47 111.05 488.47C111.05 383.8 111.05 325.65 111.05 314.02C111.05 314.02 111.05 314.02 111.05 314.02C106.61 314.02 104.15 314.02 103.65 314.02Z" id="a49cyW7HD"></path><path d="M392.93 356.68C392.93 356.68 392.93 356.68 392.93 356.68C392.93 334.07 392.93 321.51 392.93 319C392.93 319 392.93 319 392.93 319C269.03 319 200.2 319 186.43 319C186.43 319 186.43 319 186.43 319C186.43 341.61 186.43 354.17 186.43 356.68C186.43 356.68 186.43 356.68 186.43 356.68C310.33 356.68 379.17 356.68 392.93 356.68Z" id="b8jYQcked"></path><path d="M395.37 488.6C396.07 488.6 396.65 488.03 396.65 487.32C396.65 486.61 396.07 486.04 395.37 486.04C386.51 486.04 315.68 486.04 306.83 486.04C294.03 486.04 292.33 482.3 292.33 467.48C292.33 448.79 292.33 299.29 292.33 280.6C292.33 279.89 291.75 279.32 291.05 279.32C290.34 279.32 289.77 279.89 289.77 280.6C289.77 299.29 289.77 448.79 289.77 467.48C289.77 483.33 292.22 488.6 306.83 488.6C324.54 488.6 386.51 488.6 395.37 488.6Z" id="c2y2jTyBhY"></path><path d="M385 327.78C385 327.78 385 327.78 385 327.78C385 319.93 385 315.57 385 314.7C385 314.7 385 314.7 385 314.7C217.41 314.7 124.3 314.7 105.68 314.7C105.68 314.7 105.68 314.7 105.68 314.7C105.68 322.55 105.68 326.91 105.68 327.78C105.68 327.78 105.68 327.78 105.68 327.78C273.27 327.78 366.38 327.78 385 327.78Z" id="a2Jhj1rGCH"></path><path d="M382.98 314.02C382.98 314.02 382.98 314.02 382.98 314.02C382.98 418.69 382.98 476.84 382.98 488.47C382.98 488.47 382.98 488.47 382.98 488.47C436.79 488.47 466.69 488.47 472.67 488.47C472.67 488.47 472.67 488.47 472.67 488.47C472.67 383.8 472.67 325.65 472.67 314.02C472.67 314.02 472.67 314.02 472.67 314.02C418.85 314.02 388.96 314.02 382.98 314.02Z" id="a472elhvu6"></path><path d="M382.99 314.02C382.99 314.02 382.99 314.02 382.99 314.02C382.99 418.69 382.99 476.84 382.99 488.47C382.99 488.47 382.99 488.47 382.99 488.47C387.43 488.47 389.89 488.47 390.39 488.47C390.39 488.47 390.39 488.47 390.39 488.47C390.39 383.8 390.39 325.65 390.39 314.02C390.39 314.02 390.39 314.02 390.39 314.02C385.95 314.02 383.48 314.02 382.99 314.02Z" id="d2fQKkgNbV"></path><path d="M446.49 488.47C446.49 488.47 446.49 488.47 446.49 488.47C492.67 488.47 518.32 488.47 523.46 488.47C523.46 488.47 523.46 488.47 523.46 488.47C523.46 302.08 523.46 198.53 523.46 177.82C523.46 177.82 523.46 177.82 523.46 177.82C477.28 177.82 451.62 177.82 446.49 177.82C446.49 177.82 446.49 177.82 446.49 177.82C446.49 364.21 446.49 467.76 446.49 488.47Z" id="i2Wk4LiWN"></path><path d="M450.71 255.41C450.71 255.41 450.71 255.41 450.71 255.41C491.82 255.41 514.66 255.41 519.23 255.41C519.23 255.41 519.23 255.41 519.23 255.41C519.23 214.3 519.23 191.46 519.23 186.89C519.23 186.89 519.23 186.89 519.23 186.89C478.12 186.89 455.28 186.89 450.71 186.89C450.71 186.89 450.71 186.89 450.71 186.89C450.71 228 450.71 250.84 450.71 255.41Z" id="awLPysEWQ"></path><path d="M469.76 185.97C469.76 189.89 472.94 193.07 476.86 193.07C476.86 193.07 476.86 193.07 476.86 193.07C478.48 193.07 491.38 193.07 492.99 193.07C496.92 193.1 500.12 189.94 500.15 186.02C500.15 186 500.15 185.99 500.15 185.97C494.07 185.97 472.8 185.97 469.76 185.97Z" id="b626FrtaLv"></path><path d="M450.73 330.07C450.73 330.07 450.73 330.07 450.73 330.07C491.84 330.07 514.68 330.07 519.24 330.07C519.24 330.07 519.24 330.07 519.24 330.07C519.24 288.96 519.24 266.12 519.24 261.55C519.24 261.55 519.24 261.55 519.24 261.55C478.13 261.55 455.29 261.55 450.73 261.55C450.73 261.55 450.73 261.55 450.73 261.55C450.73 302.66 450.73 325.5 450.73 330.07Z" id="b1lr0Jm0eJ"></path><path d="M450.71 404.73C450.71 404.73 450.71 404.73 450.71 404.73C491.82 404.73 514.66 404.73 519.23 404.73C519.23 404.73 519.23 404.73 519.23 404.73C519.23 363.62 519.23 340.78 519.23 336.22C519.23 336.22 519.23 336.22 519.23 336.22C478.12 336.22 455.28 336.22 450.71 336.22C450.71 336.22 450.71 336.22 450.71 336.22C450.71 377.33 450.71 400.17 450.71 404.73Z" id="azszAQNWK"></path><path d="M450.71 479.41C450.71 479.41 450.71 479.41 450.71 479.41C491.82 479.41 514.66 479.41 519.23 479.41C519.23 479.41 519.23 479.41 519.23 479.41C519.23 438.3 519.23 415.46 519.23 410.89C519.23 410.89 519.23 410.89 519.23 410.89C478.12 410.89 455.28 410.89 450.71 410.89C450.71 410.89 450.71 410.89 450.71 410.89C450.71 452 450.71 474.84 450.71 479.41Z" id="bkYcCPWzv"></path><path d="M469.76 260.64C469.77 264.57 472.94 267.74 476.86 267.75C478.48 267.75 491.38 267.75 492.99 267.75C496.92 267.77 500.13 264.6 500.15 260.67C500.15 260.66 500.15 260.65 500.15 260.64C494.07 260.64 472.8 260.64 469.76 260.64Z" id="c81lmS89uK"></path><path d="M469.76 335.31C469.76 339.23 472.94 342.41 476.86 342.41C476.86 342.41 476.86 342.41 476.86 342.41C478.48 342.41 491.38 342.41 492.99 342.41C496.92 342.44 500.12 339.28 500.15 335.36C500.15 335.34 500.15 335.32 500.15 335.31C494.07 335.31 472.8 335.31 469.76 335.31Z" id="cquC5Ebyk"></path><path d="M469.76 409.97C469.76 413.89 472.94 417.07 476.86 417.07C476.86 417.07 476.86 417.07 476.86 417.07C478.48 417.07 491.38 417.07 492.99 417.07C496.92 417.1 500.12 413.94 500.15 410.02C500.15 410 500.15 409.99 500.15 409.97C494.07 409.97 472.8 409.97 469.76 409.97Z" id="exdBb0Qdi"></path><path d="M523.46 488.47C523.46 488.47 523.46 488.47 523.46 488.47C546.52 488.47 559.33 488.47 561.89 488.47C561.89 488.47 561.89 488.47 561.89 488.47C561.89 302.08 561.89 198.53 561.89 177.82C561.89 177.82 561.89 177.82 561.89 177.82C538.83 177.82 526.02 177.82 523.46 177.82C523.46 177.82 523.46 177.82 523.46 177.82C523.46 364.21 523.46 467.76 523.46 488.47Z" id="enQWYiiia"></path><path d="M320.92 314.02L316.22 276.36L296.87 276.36L301.58 314.02L301.58 314.02L320.92 314.02Z" id="f2QURd5Xgr"></path><path d="M316.65 314.02L311.94 276.36L292.6 276.36L297.29 314.02L297.29 314.02L316.65 314.02Z" id="eAcCeblD0"></path><path d="M269.79 314.02L272.46 309.76L258.48 309.76L255.8 314.02L255.8 314.02L269.79 314.02Z" id="d30YC7PXYX"></path><path d="M265.51 314.02L268.19 309.76L192.26 309.76L180.84 314.02L180.84 314.02L265.51 314.02Z" id="b1nCqYpisT"></path><path d="M356.81 303.22C350.85 303.22 346.01 308.05 346.01 314.02C348.78 314.02 370.98 314.02 373.76 314.02C373.76 308.05 368.92 303.22 362.96 303.22C362.95 303.22 362.94 303.22 362.93 303.22C362.93 303.22 357.42 303.22 356.81 303.22Z" id="aWiKTrI92"></path><path d="M314.29 295.19L311.94 276.36L292.6 276.36L294.95 295.19L294.95 295.19L314.29 295.19Z" id="c6v6GQUVGZ"></path><path d="M229.12 290.69C228.07 290.69 227.22 289.84 227.22 288.79C227.22 288.71 227.23 288.63 227.24 288.55C228.29 280.11 236.73 212.61 237.79 204.17C237.9 203.22 238.71 202.51 239.67 202.51C253.36 202.51 362.9 202.51 376.59 202.51C377.64 202.51 378.48 203.35 378.48 204.4C378.48 204.48 378.48 204.56 378.47 204.63C377.42 213.07 368.98 280.58 367.92 289.02C367.81 289.96 367.02 290.67 366.08 290.69C338.69 290.69 242.82 290.69 229.12 290.69Z" id="d1EOfeUvsx"></path><path d="M227.14 290.69C226.09 290.69 225.24 289.84 225.24 288.79C225.24 288.71 225.24 288.63 225.25 288.55C226.31 280.11 234.75 212.61 235.8 204.17C235.92 203.22 236.73 202.51 237.68 202.51C251.37 202.51 360.87 202.51 374.55 202.51C375.6 202.51 376.45 203.35 376.45 204.4C376.45 204.48 376.44 204.56 376.44 204.63C375.38 213.07 366.94 280.58 365.89 289.02C365.77 289.97 364.96 290.69 364.01 290.69C336.63 290.69 240.82 290.69 227.14 290.69Z" id="cp74WyOji"></path><path d="M239.54 207.04C239.58 206.77 239.81 206.58 240.07 206.58C253.22 206.58 358.35 206.58 371.49 206.58C371.78 206.57 372.01 206.79 372.02 207.07C372.02 207.1 372.02 207.13 372.02 207.17C371.03 215.07 363.14 278.26 362.15 286.16C362.12 286.42 361.89 286.62 361.62 286.62C348.48 286.62 243.34 286.62 230.19 286.62C229.9 286.61 229.66 286.37 229.66 286.07C229.67 286.05 229.67 286.03 229.67 286.01C231.64 270.22 238.55 214.94 239.54 207.04Z" id="b3F8kZ1k41"></path><path d="M311.21 314.02C311.21 313.78 311.21 313.65 311.21 313.62C311.21 311.89 309.8 310.49 308.07 310.49C305.55 310.49 285.35 310.49 282.83 310.49C281.1 310.49 279.69 311.89 279.69 313.62C279.69 313.65 279.69 313.78 279.69 314.02L311.21 314.02Z" id="b42i7mliE8"></path><path d="M328.91 314.02C328.91 313.78 328.91 313.65 328.91 313.62C328.91 311.89 327.5 310.49 325.77 310.49C324.26 310.49 312.18 310.49 310.67 310.49C308.94 310.49 307.53 311.89 307.53 313.62C307.53 313.65 307.53 313.78 307.53 314.02L328.91 314.02Z" id="e2nx5OAAtY"></path><path d="M490.93 142.73C490.93 142.69 490.93 142.67 490.93 142.67C490.64 141.68 490.36 140.68 490.11 139.68C489.23 141.08 487.74 141.98 486.09 142.1C486.06 142.1 485.78 142.1 485.75 142.1C483.61 141.9 481.56 139.83 480.27 136.56C480.22 136.44 480.22 136.31 480.27 136.19C480.33 136.07 480.44 135.99 480.56 135.95C483.67 135.16 486.96 135.73 489.61 137.52C489.42 136.57 489.25 135.61 489.11 134.67C488.78 134.73 488.43 134.77 488.09 134.77C484.61 134.77 482.05 131.66 481.92 131.51C481.76 131.31 481.79 131.02 481.99 130.86C482.03 130.83 482.07 130.81 482.11 130.79C483.75 129.98 485.65 129.9 487.35 130.58C488.24 131.04 488.96 131.77 489.41 132.67C490.74 128.59 494.24 125.59 498.48 124.91C498.61 124.88 498.75 124.92 498.85 125C498.96 125.08 499.03 125.2 499.03 125.34C499.21 128.5 499.11 132.38 496.74 134.22C495.75 134.95 494.54 135.32 493.31 135.27C492.21 135.24 491.12 135.07 490.06 134.76C490.4 137.04 490.89 139.31 491.53 141.53C493.85 138.37 497.14 136.06 500.89 134.95C501.14 134.89 501.38 135.04 501.45 135.28C502.17 138.01 501.8 140.22 500.39 141.68C498.94 142.98 497.03 143.64 495.09 143.5C494.06 143.49 493.03 143.39 492.02 143.18C492.61 145.05 493.3 146.88 493.95 148.62C495.37 147.34 499.56 144.16 504.12 145.5C504.24 145.54 504.34 145.62 504.4 145.74C504.45 145.86 504.45 145.99 504.4 146.11C503.12 149.13 501.75 150.81 499.98 151.38C499.51 151.54 499.02 151.62 498.52 151.61C497.17 151.56 495.85 151.17 494.68 150.49C495.65 152.8 496.69 154.97 497.68 156.89C500.06 154.46 503.58 153.52 506.85 154.46C507.08 154.5 507.24 154.71 507.21 154.94C506.98 156.91 505.72 158.61 503.9 159.4C503.22 159.69 502.49 159.84 501.76 159.83C500.74 159.82 499.74 159.56 498.84 159.08C499.84 160.93 500.76 162.48 501.48 163.66C502.35 163.66 509.31 163.66 510.18 163.66C511.56 161.29 513.16 158.35 514.73 155.04C514 155.26 513.25 155.38 512.49 155.39C509.13 155.43 506.37 152.74 506.33 149.39C506.32 148.85 506.39 148.32 506.52 147.8C506.58 147.58 506.8 147.45 507.02 147.48C510.63 147.83 513.84 149.92 515.62 153.07C516.65 150.77 517.64 148.32 518.52 145.8C517.41 146.43 516.17 146.79 514.89 146.85C514.39 146.86 513.89 146.78 513.41 146.61C510.85 145.76 509.38 142.68 508.12 139.48C508.06 139.36 508.06 139.23 508.12 139.11C508.18 138.99 508.29 138.9 508.42 138.87C513.54 137.43 517.75 142.36 519.05 144.13C519.74 142 520.3 139.83 520.76 137.64C519.68 137.85 518.59 137.96 517.49 137.97C515.29 138.13 513.12 137.37 511.5 135.87C509.95 134.23 509.58 131.77 510.41 128.78C510.47 128.54 510.72 128.39 510.96 128.45C510.96 128.46 510.97 128.46 510.98 128.46C515.06 129.73 518.62 132.31 521.1 135.79C521.12 135.68 521.27 134.75 521.29 134.63C521.31 134.53 521.35 134.43 521.42 134.36C521.85 132.83 522.9 131.55 524.33 130.84C526.19 130.12 528.28 130.23 530.06 131.15C530.2 131.21 530.3 131.32 530.34 131.47C530.37 131.61 530.34 131.76 530.24 131.86C530.11 132.03 527.3 135.36 523.51 135.36C523.1 135.35 522.69 135.31 522.29 135.23C522.12 136.32 521.92 137.41 521.69 138.48C524.64 136.54 528.29 135.95 531.7 136.87C531.83 136.91 531.93 137 531.99 137.11C532.04 137.23 532.04 137.37 531.99 137.5C530.52 141.05 528.24 143.31 525.89 143.5C525.86 143.5 525.6 143.5 525.57 143.5C524.38 143.5 522.76 142.95 521.13 140.76C520.48 143.25 519.7 145.7 518.8 148.11C521.01 147.06 525.99 145.25 529.55 148C529.75 148.15 529.79 148.43 529.65 148.63C529.65 148.64 529.64 148.64 529.64 148.64C527.33 151.78 525.21 153.3 523.12 153.3C523.12 153.3 523.12 153.3 523.12 153.3C521.4 153.3 519.74 152.22 518.09 150.07C517.15 152.42 516.12 154.67 515.11 156.75C517.32 155.38 519.76 155.6 522.62 157.4C522.76 157.48 522.84 157.63 522.84 157.78C522.85 157.94 522.78 158.08 522.65 158.17C520.94 159.4 518.93 160.13 516.83 160.28C515.74 160.3 514.68 159.98 513.79 159.36C512.97 160.93 512.17 162.38 511.42 163.67C511.69 163.67 513.01 163.67 515.38 163.67L515.38 165.92L513.95 165.92L512.76 177.85L495.23 177.85L494.05 165.92L492.61 165.92L492.61 163.67C497.33 163.67 499.96 163.67 500.48 163.67C499.61 162.23 498.5 160.29 497.31 158.03C497.27 157.98 497.24 157.93 497.23 157.87C496.92 157.3 496.63 156.71 496.32 156.09C495.26 157.69 493.5 158.68 491.58 158.74C491.39 158.76 491.19 158.76 491 158.74C488.87 158.5 487.06 157.09 486.31 155.08C486.23 154.87 486.32 154.64 486.52 154.53C489.24 152.99 492.53 152.86 495.37 154.17C494.71 152.78 494.09 151.28 493.43 149.73C493.38 149.68 493.35 149.6 493.34 149.53C493.16 149.09 492.99 148.66 492.81 148.25C491.29 150.17 489.78 151.12 488.2 151.12C488.2 151.12 488.2 151.12 488.2 151.12C486.3 151.12 484.36 149.71 482.29 146.8C482.14 146.6 482.18 146.31 482.38 146.16C485.64 143.72 490.06 145.39 492.13 146.37C491.71 145.21 491.33 144.05 490.97 142.86C490.96 142.84 490.95 142.8 490.93 142.73Z" id="cqkvW0mzH"></path><path d="M124.84 137.33C124.84 137.33 124.84 137.33 124.84 137.33C124.84 180.45 124.84 204.41 124.84 209.2C124.84 209.2 124.84 209.2 124.84 209.2C164.11 209.2 185.93 209.2 190.3 209.2C190.3 209.2 190.3 209.2 190.3 209.2C190.3 166.08 190.3 142.12 190.3 137.33C190.3 137.33 190.3 137.33 190.3 137.33C151.02 137.33 129.2 137.33 124.84 137.33Z" id="a4GlVBFPhz"></path><path d="M133.08 140.27C133.24 140.17 148.7 130.98 153.56 130.98C158.43 130.98 173.21 140.17 173.36 140.26C173.5 140.35 173.7 140.32 173.79 140.17C173.79 140.17 173.8 140.16 173.8 140.16C173.89 140.01 173.84 139.82 173.7 139.72C173.08 139.34 158.66 130.34 153.56 130.34C148.47 130.34 133.34 139.3 132.7 139.72C132.55 139.81 132.5 140 132.59 140.14C132.59 140.15 132.59 140.15 132.6 140.16C132.67 140.26 132.8 140.3 132.92 140.27C132.97 140.29 133.03 140.29 133.08 140.27Z" id="d2tOxbp0L0"></path><path d="M117.76 137.33C117.76 137.33 117.76 137.33 117.76 137.33C117.76 180.45 117.76 204.41 117.76 209.2C117.76 209.2 117.76 209.2 117.76 209.2C158.33 209.2 180.86 209.2 185.37 209.2C185.37 209.2 185.37 209.2 185.37 209.2C185.37 166.08 185.37 142.12 185.37 137.33C185.37 137.33 185.37 137.33 185.37 137.33C144.8 137.33 122.27 137.33 117.76 137.33Z" id="d2TffVDVzx"></path><path d="M123.42 203.53C123.42 203.53 123.42 203.53 123.42 203.53C157.19 203.53 175.95 203.53 179.7 203.53C179.7 203.53 179.7 203.53 179.7 203.53C179.7 167.2 179.7 147.02 179.7 142.99C179.7 142.99 179.7 142.99 179.7 142.99C145.93 142.99 127.17 142.99 123.42 142.99C123.42 142.99 123.42 142.99 123.42 142.99C123.42 179.31 123.42 199.49 123.42 203.53Z" id="a1zQBbgngq"></path><path d="M162.47 162.35C168.49 168.38 168.49 178.14 162.47 184.17C156.45 190.19 146.68 190.19 140.66 184.17C134.63 178.14 134.63 168.38 140.66 162.35C146.68 156.33 156.45 156.33 162.47 162.35Z" id="cSE20mZD4"></path><path d="M152.87 401.24C118.45 401.24 99.33 401.24 95.5 401.24C84.55 401.25 75.61 392.49 75.39 381.54C75.18 371.04 73.46 287.01 73.24 276.5C73.08 268.41 79.51 261.72 87.6 261.56C87.7 261.55 87.8 261.55 87.9 261.55C91.49 261.55 120.27 261.55 123.87 261.55C131.32 261.55 137.58 267.14 138.42 274.55C140.35 291.44 145.16 333.67 152.87 401.24Z" id="a17u4h1tzw"></path><path d="M182.69 401.24C184.28 401.24 185.56 399.96 185.56 398.37C185.56 398.37 185.56 398.37 185.56 398.37C185.56 398.35 185.56 398.13 185.56 398.1C185.56 393.76 182.04 390.24 177.7 390.24C173.96 390.24 155.25 390.24 121.56 390.24L121.56 401.24C158.24 401.24 178.62 401.24 182.69 401.24Z" id="b5MuXLh8j"></path><path d="M127.67 488.89C128.86 483.14 134.84 454.34 145.59 402.52L176.82 402.52C187.57 454.34 193.54 483.14 194.74 488.89C194.88 489.6 195.57 490.06 196.28 489.91C196.99 489.77 197.44 489.08 197.3 488.37C195.48 479.63 180.96 409.72 179.15 400.98C179.03 400.38 178.49 399.95 177.87 399.96C174.54 399.96 147.92 399.96 144.59 399.96C143.97 399.95 143.43 400.38 143.31 400.98C141.5 409.72 126.98 479.63 125.17 488.37C125.03 489.06 125.47 489.73 126.16 489.88C126.23 489.9 126.31 489.91 126.39 489.91C127 489.92 127.54 489.49 127.67 488.89Z" id="a5htBqhWRT"></path><path d="M146.11 489.91C146.8 489.76 147.25 489.09 147.11 488.4C147.11 488.4 147.11 488.4 147.11 488.4C145.3 479.66 130.78 409.75 128.96 401.01C128.84 400.4 128.3 399.97 127.68 399.99C124.35 399.99 97.73 399.99 94.4 399.99C93.78 399.97 93.24 400.4 93.12 401.01C91.31 409.75 76.8 479.66 74.98 488.4C74.84 489.1 75.29 489.79 76 489.94C76.71 490.08 77.4 489.63 77.54 488.92C78.74 483.16 84.71 454.37 95.46 402.55L126.72 402.55C137.47 454.37 143.45 483.16 144.64 488.92C144.77 489.49 145.27 489.89 145.86 489.91C145.94 489.92 146.03 489.92 146.11 489.91Z" id="a1O5DSC1KF"></path><path d="M71.82 531.79C71.82 539.79 182.93 546.28 320 546.28C457.07 546.28 568.18 539.79 568.18 531.79C568.18 523.78 457.07 517.3 320 517.3C182.93 517.3 71.82 523.78 71.82 531.79Z" id="b1fusE2UCY"></path><path d="M302.09 332.34L339.33 332.34L338.94 329.24L301.71 329.24L301.71 329.24L302.09 332.34Z" id="a2spjgbRvv"></path><path d="M302.09 332.34L339.33 332.34L338.94 329.24L301.71 329.24L301.71 329.24L302.09 332.34Z" id="g47cBoG5sg"></path></defs><g><g><g><use xlink:href="#d1ATU6iw4V" opacity="1" fill="#e6e6e6" fill-opacity="1"></use><g><use xlink:href="#d1ATU6iw4V" opacity="1" fill-opacity="0" stroke="#000000" stroke-width="1" stroke-opacity="0"></use></g></g><g><use xlink:href="#b13fgEM1A6" opacity="1" fill="#e6e6e6" fill-opacity="1"></use><g><use xlink:href="#b13fgEM1A6" opacity="1" fill-opacity="0" stroke="#000000" stroke-width="1" stroke-opacity="0"></use></g></g><g><use xlink:href="#c2RmCI9OIJ" opacity="1" fill="#e6e6e6" fill-opacity="1"></use><g><use xlink:href="#c2RmCI9OIJ" opacity="1" fill-opacity="0" stroke="#000000" stroke-width="1" stroke-opacity="0"></use></g></g><g><use xlink:href="#b1Tqc1h6sN" opacity="1" fill="#e6e6e6" fill-opacity="1"></use><g><use xlink:href="#b1Tqc1h6sN" opacity="1" fill-opacity="0" stroke="#000000" stroke-width="1" stroke-opacity="0"></use></g></g><g><use xlink:href="#e1mqDe8A3Z" opacity="1" fill="#e6e6e6" fill-opacity="1"></use><g><use xlink:href="#e1mqDe8A3Z" opacity="1" fill-opacity="0" stroke="#000000" stroke-width="1" stroke-opacity="0"></use></g></g><g><use xlink:href="#a1iYyoRv9Y" opacity="1" fill="#e6e6e6" fill-opacity="1"></use><g><use xlink:href="#a1iYyoRv9Y" opacity="1" fill-opacity="0" stroke="#000000" stroke-width="1" stroke-opacity="0"></use></g></g><g><use xlink:href="#b4y7CJk0h3" opacity="1" fill="#e6e6e6" fill-opacity="1"></use><g><use xlink:href="#b4y7CJk0h3" opacity="1" fill-opacity="0" stroke="#000000" stroke-width="1" stroke-opacity="0"></use></g></g><g><use xlink:href="#cOdjA5e9B" opacity="1" fill="#e6e6e6" fill-opacity="1"></use><g><use xlink:href="#cOdjA5e9B" opacity="1" fill-opacity="0" stroke="#000000" stroke-width="1" stroke-opacity="0"></use></g></g><g><use xlink:href="#a1scqZeEQh" opacity="1" fill="#e6e6e6" fill-opacity="1"></use><g><use xlink:href="#a1scqZeEQh" opacity="1" fill-opacity="0" stroke="#000000" stroke-width="1" stroke-opacity="0"></use></g></g><g><use xlink:href="#bk7s6SB6d" opacity="1" fill="#f5f5f5" fill-opacity="1"></use><g><use xlink:href="#bk7s6SB6d" opacity="1" fill-opacity="0" stroke="#000000" stroke-width="1" stroke-opacity="0"></use></g></g><g><use xlink:href="#a49cyW7HD" opacity="1" fill="#f0f0f0" fill-opacity="1"></use><g><use xlink:href="#a49cyW7HD" opacity="1" fill-opacity="0" stroke="#000000" stroke-width="1" stroke-opacity="0"></use></g></g><g><use xlink:href="#b8jYQcked" opacity="1" fill="#e0e0e0" fill-opacity="1"></use><g><use xlink:href="#b8jYQcked" opacity="1" fill-opacity="0" stroke="#000000" stroke-width="1" stroke-opacity="0"></use></g></g><g><use xlink:href="#c2y2jTyBhY" opacity="1" fill="#e0e0e0" fill-opacity="1"></use><g><use xlink:href="#c2y2jTyBhY" opacity="1" fill-opacity="0" stroke="#000000" stroke-width="1" stroke-opacity="0"></use></g></g><g><use xlink:href="#a2Jhj1rGCH" opacity="1" fill="#f0f0f0" fill-opacity="1"></use><g><use xlink:href="#a2Jhj1rGCH" opacity="1" fill-opacity="0" stroke="#000000" stroke-width="1" stroke-opacity="0"></use></g></g><g><use xlink:href="#a472elhvu6" opacity="1" fill="#f5f5f5" fill-opacity="1"></use><g><use xlink:href="#a472elhvu6" opacity="1" fill-opacity="0" stroke="#000000" stroke-width="1" stroke-opacity="0"></use></g></g><g><use xlink:href="#d2fQKkgNbV" opacity="1" fill="#f0f0f0" fill-opacity="1"></use><g><use xlink:href="#d2fQKkgNbV" opacity="1" fill-opacity="0" stroke="#000000" stroke-width="1" stroke-opacity="0"></use></g></g><g><use xlink:href="#i2Wk4LiWN" opacity="1" fill="#fafafa" fill-opacity="1"></use><g><use xlink:href="#i2Wk4LiWN" opacity="1" fill-opacity="0" stroke="#000000" stroke-width="1" stroke-opacity="0"></use></g></g><g><use xlink:href="#awLPysEWQ" opacity="1" fill="#f5f5f5" fill-opacity="1"></use><g><use xlink:href="#awLPysEWQ" opacity="1" fill-opacity="0" stroke="#000000" stroke-width="1" stroke-opacity="0"></use></g></g><g><use xlink:href="#b626FrtaLv" opacity="1" fill="#e0e0e0" fill-opacity="1"></use><g><use xlink:href="#b626FrtaLv" opacity="1" fill-opacity="0" stroke="#000000" stroke-width="1" stroke-opacity="0"></use></g></g><g><use xlink:href="#b1lr0Jm0eJ" opacity="1" fill="#f5f5f5" fill-opacity="1"></use><g><use xlink:href="#b1lr0Jm0eJ" opacity="1" fill-opacity="0" stroke="#000000" stroke-width="1" stroke-opacity="0"></use></g></g><g><use xlink:href="#azszAQNWK" opacity="1" fill="#f5f5f5" fill-opacity="1"></use><g><use xlink:href="#azszAQNWK" opacity="1" fill-opacity="0" stroke="#000000" stroke-width="1" stroke-opacity="0"></use></g></g><g><use xlink:href="#bkYcCPWzv" opacity="1" fill="#f5f5f5" fill-opacity="1"></use><g><use xlink:href="#bkYcCPWzv" opacity="1" fill-opacity="0" stroke="#000000" stroke-width="1" stroke-opacity="0"></use></g></g><g><use xlink:href="#c81lmS89uK" opacity="1" fill="#e0e0e0" fill-opacity="1"></use><g><use xlink:href="#c81lmS89uK" opacity="1" fill-opacity="0" stroke="#000000" stroke-width="1" stroke-opacity="0"></use></g></g><g><use xlink:href="#cquC5Ebyk" opacity="1" fill="#e0e0e0" fill-opacity="1"></use><g><use xlink:href="#cquC5Ebyk" opacity="1" fill-opacity="0" stroke="#000000" stroke-width="1" stroke-opacity="0"></use></g></g><g><use xlink:href="#exdBb0Qdi" opacity="1" fill="#e0e0e0" fill-opacity="1"></use><g><use xlink:href="#exdBb0Qdi" opacity="1" fill-opacity="0" stroke="#000000" stroke-width="1" stroke-opacity="0"></use></g></g><g><use xlink:href="#enQWYiiia" opacity="1" fill="#f0f0f0" fill-opacity="1"></use><g><use xlink:href="#enQWYiiia" opacity="1" fill-opacity="0" stroke="#000000" stroke-width="1" stroke-opacity="0"></use></g></g><g><use xlink:href="#f2QURd5Xgr" opacity="1" fill="#f0f0f0" fill-opacity="1"></use><g><use xlink:href="#f2QURd5Xgr" opacity="1" fill-opacity="0" stroke="#000000" stroke-width="1" stroke-opacity="0"></use></g></g><g><use xlink:href="#eAcCeblD0" opacity="1" fill="#f5f5f5" fill-opacity="1"></use><g><use xlink:href="#eAcCeblD0" opacity="1" fill-opacity="0" stroke="#000000" stroke-width="1" stroke-opacity="0"></use></g></g><g><use xlink:href="#d30YC7PXYX" opacity="1" fill="#f0f0f0" fill-opacity="1"></use><g><use xlink:href="#d30YC7PXYX" opacity="1" fill-opacity="0" stroke="#000000" stroke-width="1" stroke-opacity="0"></use></g></g><g><use xlink:href="#b1nCqYpisT" opacity="1" fill="#fafafa" fill-opacity="1"></use><g><use xlink:href="#b1nCqYpisT" opacity="1" fill-opacity="0" stroke="#000000" stroke-width="1" stroke-opacity="0"></use></g></g><g><use xlink:href="#aWiKTrI92" opacity="1" fill="#f0f0f0" fill-opacity="1"></use><g><use xlink:href="#aWiKTrI92" opacity="1" fill-opacity="0" stroke="#000000" stroke-width="1" stroke-opacity="0"></use></g></g><g><use xlink:href="#c6v6GQUVGZ" opacity="1" fill="#f0f0f0" fill-opacity="1"></use><g><use xlink:href="#c6v6GQUVGZ" opacity="1" fill-opacity="0" stroke="#000000" stroke-width="1" stroke-opacity="0"></use></g></g><g><use xlink:href="#d1EOfeUvsx" opacity="1" fill="#f0f0f0" fill-opacity="1"></use><g><use xlink:href="#d1EOfeUvsx" opacity="1" fill-opacity="0" stroke="#000000" stroke-width="1" stroke-opacity="0"></use></g></g><g><use xlink:href="#cp74WyOji" opacity="1" fill="#f5f5f5" fill-opacity="1"></use><g><use xlink:href="#cp74WyOji" opacity="1" fill-opacity="0" stroke="#000000" stroke-width="1" stroke-opacity="0"></use></g></g><g><use xlink:href="#b3F8kZ1k41" opacity="1" fill="#e0e0e0" fill-opacity="1"></use><g><use xlink:href="#b3F8kZ1k41" opacity="1" fill-opacity="0" stroke="#000000" stroke-width="1" stroke-opacity="0"></use></g></g><g><use xlink:href="#b42i7mliE8" opacity="1" fill="#fafafa" fill-opacity="1"></use><g><use xlink:href="#b42i7mliE8" opacity="1" fill-opacity="0" stroke="#000000" stroke-width="1" stroke-opacity="0"></use></g></g><g><use xlink:href="#e2nx5OAAtY" opacity="1" fill="#f0f0f0" fill-opacity="1"></use><g><use xlink:href="#e2nx5OAAtY" opacity="1" fill-opacity="0" stroke="#000000" stroke-width="1" stroke-opacity="0"></use></g></g><g><use xlink:href="#cqkvW0mzH" opacity="1" fill="#e0e0e0" fill-opacity="1"></use><g><use xlink:href="#cqkvW0mzH" opacity="1" fill-opacity="0" stroke="#000000" stroke-width="1" stroke-opacity="0"></use></g></g><g><use xlink:href="#a4GlVBFPhz" opacity="1" fill="#e0e0e0" fill-opacity="1"></use><g><use xlink:href="#a4GlVBFPhz" opacity="1" fill-opacity="0" stroke="#000000" stroke-width="1" stroke-opacity="0"></use></g></g><g><use xlink:href="#d2tOxbp0L0" opacity="1" fill="#ebebeb" fill-opacity="1"></use><g><use xlink:href="#d2tOxbp0L0" opacity="1" fill-opacity="0" stroke="#000000" stroke-width="1" stroke-opacity="0"></use></g></g><g><use xlink:href="#d2TffVDVzx" opacity="1" fill="#f5f5f5" fill-opacity="1"></use><g><use xlink:href="#d2TffVDVzx" opacity="1" fill-opacity="0" stroke="#000000" stroke-width="1" stroke-opacity="0"></use></g></g><g><use xlink:href="#a1zQBbgngq" opacity="1" fill="#ffffff" fill-opacity="1"></use><g><use xlink:href="#a1zQBbgngq" opacity="1" fill-opacity="0" stroke="#000000" stroke-width="1" stroke-opacity="0"></use></g></g><g><use xlink:href="#cSE20mZD4" opacity="1" fill="#e0e0e0" fill-opacity="1"></use><g><use xlink:href="#cSE20mZD4" opacity="1" fill-opacity="0" stroke="#000000" stroke-width="1" stroke-opacity="0"></use></g></g><g><use xlink:href="#a17u4h1tzw" opacity="1" fill="#e6e6e6" fill-opacity="1"></use><g><use xlink:href="#a17u4h1tzw" opacity="1" fill-opacity="0" stroke="#000000" stroke-width="1" stroke-opacity="0"></use></g></g><g><use xlink:href="#b5MuXLh8j" opacity="1" fill="#e6e6e6" fill-opacity="1"></use><g><use xlink:href="#b5MuXLh8j" opacity="1" fill-opacity="0" stroke="#000000" stroke-width="1" stroke-opacity="0"></use></g></g><g><use xlink:href="#a5htBqhWRT" opacity="1" fill="#e6e6e6" fill-opacity="1"></use><g><use xlink:href="#a5htBqhWRT" opacity="1" fill-opacity="0" stroke="#000000" stroke-width="1" stroke-opacity="0"></use></g></g><g><use xlink:href="#a1O5DSC1KF" opacity="1" fill="#e6e6e6" fill-opacity="1"></use><g><use xlink:href="#a1O5DSC1KF" opacity="1" fill-opacity="0" stroke="#000000" stroke-width="1" stroke-opacity="0"></use></g></g><g><use xlink:href="#b1fusE2UCY" opacity="1" fill="#f5f5f5" fill-opacity="1"></use><g><use xlink:href="#b1fusE2UCY" opacity="1" fill-opacity="0" stroke="#000000" stroke-width="1" stroke-opacity="0"></use></g></g><g><use xlink:href="#a2spjgbRvv" opacity="1" fill="#407bff" fill-opacity="1"></use><g><use xlink:href="#a2spjgbRvv" opacity="1" fill-opacity="0" stroke="#000000" stroke-width="1" stroke-opacity="0"></use></g></g><g><use xlink:href="#g47cBoG5sg" opacity="1" fill="#ffffff" fill-opacity="1"></use><g><use xlink:href="#g47cBoG5sg" opacity="1" fill-opacity="0" stroke="#000000" stroke-width="1" stroke-opacity="0"></use></g></g></g></g></svg>