<?xml version="1.0" encoding="UTF-8" standalone="no"?>
<!DOCTYPE svg PUBLIC "-//W3C//DTD SVG 1.1//EN" "http://www.w3.org/Graphics/SVG/1.1/DTD/svg11.dtd">
<svg version="1.1" xmlns="http://www.w3.org/2000/svg" xmlns:xlink="http://www.w3.org/1999/xlink" preserveAspectRatio="xMidYMid meet" viewBox="0 0 640 640" width="640" height="640"><defs><path d="M70.31 506.84C70.31 506.84 70.31 506.84 70.31 506.84C70.31 507.03 70.31 507.14 70.31 507.16C70.31 507.16 70.31 507.16 70.31 507.16C75.17 507.16 77.87 507.16 78.41 507.16C78.41 507.16 78.41 507.16 78.41 507.16C78.41 506.97 78.41 506.86 78.41 506.84C78.41 506.84 78.41 506.84 78.41 506.84C73.55 506.84 70.85 506.84 70.31 506.84Z" id="b4nOILa2lb"></path><path d="M270.79 315.02L273.46 310.76L259.48 310.76L256.8 315.02L256.8 315.02L270.79 315.02Z" id="b1qdPALMfb"></path><path d="M266.51 315.02L269.19 310.76L193.26 310.76L181.84 315.02L181.84 315.02L266.51 315.02Z" id="a3uCQ7GCD2"></path><path d="M357.81 304.22C351.85 304.22 347.01 309.05 347.01 315.02C349.78 315.02 371.98 315.02 374.76 315.02C374.76 309.05 369.92 304.22 363.96 304.22C363.95 304.22 363.94 304.22 363.93 304.22C363.93 304.22 358.42 304.22 357.81 304.22Z" id="d4K4DgzVu"></path><path d="M312.21 315.02C312.21 314.78 312.21 314.65 312.21 314.62C312.21 312.89 310.8 311.49 309.07 311.49C306.55 311.49 286.35 311.49 283.83 311.49C282.1 311.49 280.69 312.89 280.69 314.62C280.69 314.65 280.69 314.78 280.69 315.02L312.21 315.02Z" id="igdnxd1W"></path><path d="M299.1 520.96C299.93 520.96 300.64 520.38 300.8 519.56C302.42 511.58 310.53 471.66 325.12 399.81L367.48 399.81C382.07 471.66 390.18 511.58 391.8 519.56C392.05 520.49 393.01 521.04 393.93 520.79C394.78 520.56 395.32 519.74 395.2 518.87C392.74 506.76 373.06 409.84 370.6 397.72C370.43 396.91 369.72 396.33 368.9 396.33C364.38 396.33 328.23 396.33 323.71 396.33C322.89 396.33 322.18 396.91 322.01 397.72C319.55 409.84 299.86 506.76 297.4 518.87C297.21 519.81 297.81 520.73 298.75 520.92C298.82 520.93 299.03 520.95 299.1 520.96Z" id="ag5f706QU"></path><path d="M367.08 520.96C367.91 520.95 368.61 520.37 368.78 519.56C370.4 511.58 378.51 471.66 393.1 399.81L435.46 399.81C450.05 471.66 458.16 511.58 459.78 519.56C459.91 520.52 460.78 521.18 461.74 521.05C462.69 520.93 463.36 520.05 463.23 519.1C463.22 519.02 463.2 518.95 463.18 518.87C460.72 506.76 441.03 409.84 438.57 397.72C438.4 396.91 437.69 396.33 436.87 396.33C432.35 396.33 396.2 396.33 391.68 396.33C390.86 396.33 390.15 396.91 389.99 397.72C387.53 409.84 367.84 506.76 365.38 518.87C365.19 519.81 365.8 520.73 366.73 520.92C366.8 520.93 367.01 520.95 367.08 520.96Z" id="aaCn3l66m"></path><path d="M357.57 398.08C404.26 398.08 430.21 398.08 435.39 398.08C450.25 398.08 462.38 386.2 462.68 371.34C462.97 359.51 465.29 264.9 465.58 253.07C465.8 242.09 457.09 233.01 446.11 232.79C445.98 232.78 445.84 232.78 445.71 232.78C440.83 232.78 401.8 232.78 396.92 232.78C386.81 232.79 378.31 240.38 377.17 250.42C374.55 270.11 368.02 319.33 357.57 398.08Z" id="aFZDNWZYW"></path><path d="M323.85 383.1C317.97 383.1 313.19 387.88 313.19 393.77C313.19 393.8 313.19 394.1 313.19 394.14C313.19 396.26 314.91 397.98 317.03 397.98C322.56 397.98 350.22 397.98 400.01 397.98L400.01 383.1C354.32 383.1 328.93 383.1 323.85 383.1Z" id="d1XrfdimTO"></path><path d="M299.1 520.96C299.93 520.96 300.64 520.38 300.8 519.56C302.42 511.58 310.53 471.66 325.12 399.81L367.48 399.81C382.07 471.66 390.18 511.58 391.8 519.56C392.05 520.49 393.01 521.04 393.93 520.79C394.78 520.56 395.32 519.74 395.2 518.87C392.74 506.76 373.06 409.84 370.6 397.72C370.43 396.91 369.72 396.33 368.9 396.33C364.38 396.33 328.23 396.33 323.71 396.33C322.89 396.33 322.18 396.91 322.01 397.72C319.55 409.84 299.86 506.76 297.4 518.87C297.21 519.81 297.81 520.73 298.75 520.92C298.82 520.93 299.03 520.95 299.1 520.96Z" id="e1mrF68GWk"></path><path d="M367.08 520.96C367.91 520.95 368.61 520.37 368.78 519.56C370.4 511.58 378.51 471.66 393.1 399.81L435.46 399.81C450.05 471.66 458.16 511.58 459.78 519.56C459.91 520.52 460.78 521.18 461.74 521.05C462.69 520.93 463.36 520.05 463.23 519.1C463.22 519.02 463.2 518.95 463.18 518.87C460.72 506.76 441.03 409.84 438.57 397.72C438.4 396.91 437.69 396.33 436.87 396.33C432.35 396.33 396.2 396.33 391.68 396.33C390.86 396.33 390.15 396.91 389.99 397.72C387.53 409.84 367.84 506.76 365.38 518.87C365.19 519.81 365.8 520.73 366.73 520.92C366.8 520.93 367.01 520.95 367.08 520.96Z" id="j1sJspvOAv"></path><path d="M357.57 398.08C404.26 398.08 430.21 398.08 435.39 398.08C450.25 398.08 462.38 386.2 462.68 371.34C462.97 359.51 465.29 264.9 465.58 253.07C465.8 242.09 457.09 233.01 446.11 232.79C445.98 232.78 445.84 232.78 445.71 232.78C440.83 232.78 401.8 232.78 396.92 232.78C386.81 232.79 378.31 240.38 377.17 250.42C374.55 270.11 368.02 319.33 357.57 398.08Z" id="eLLAs80UB"></path><path d="M323.85 383.1C317.97 383.1 313.19 387.88 313.19 393.77C313.19 393.8 313.19 394.1 313.19 394.14C313.19 396.26 314.91 397.98 317.03 397.98C322.56 397.98 350.22 397.98 400.01 397.98L400.01 383.1C354.32 383.1 328.93 383.1 323.85 383.1Z" id="a4HSjGmgR5"></path><path d="M327.48 280.78C327.35 281.36 327.13 282.25 326.93 283.01C326.86 283.25 326.37 285.17 326.31 285.41C325.88 287.03 325.4 288.64 324.9 290.25C323.96 293.5 322.91 296.74 321.81 299.98C320.71 303.22 319.58 306.38 318.35 309.66C317.75 311.26 317.15 312.87 316.51 314.47C316.43 314.66 315.84 316.2 315.76 316.39C315.62 316.72 315.42 317.02 315.19 317.3C313.37 319.14 311.15 320.54 308.7 321.4C305.71 322.6 302.63 323.56 299.48 324.26C296.23 325.02 292.89 325.64 289.51 326.17C286.13 326.69 282.66 327.12 279.34 327.45C279.32 328.14 279.23 333.65 279.22 334.34C286.52 335.09 293.88 335.09 301.19 334.34C305 333.94 308.78 333.21 312.46 332.15C314.46 331.54 316.4 330.78 318.27 329.86C320.43 328.81 322.4 327.42 324.11 325.75C325.1 324.76 325.96 323.64 326.67 322.43C326.86 322.12 327.03 321.78 327.21 321.46C327.23 321.41 327.34 321.18 327.54 320.77C327.89 320 328.09 319.57 328.13 319.49C328.92 317.86 329.72 316.24 330.45 314.59C331.93 311.28 333.38 307.96 334.67 304.56C335.96 301.17 337.23 297.75 338.31 294.32C338.83 292.56 339.34 290.8 339.82 289C339.89 288.73 340.45 286.57 340.52 286.3C340.72 285.32 340.92 284.52 341.12 283.37C338.39 282.85 330.21 281.3 327.48 280.78Z" id="dEfXl4TA3"></path><path d="M322.51 290.21C324.02 291.24 336.12 299.43 337.63 300.45C337.63 300.45 352.13 277.67 347.87 271.64C343.5 265.45 339.84 264.24 331.83 266.24C326.34 267.64 324.37 285.42 322.51 290.21Z" id="axC1fgPlV"></path><path d="M320.78 296.19C322.29 297.22 336.12 299.43 337.63 300.45C337.63 300.45 352.13 277.67 347.87 271.64C343.5 265.45 339.84 264.24 331.83 266.24C326.34 267.64 322.64 291.4 320.78 296.19Z" id="bBzBvjiTB"></path><path d="M333.8 271.92C341.69 278.17 346.07 281.65 346.95 282.34C344.39 288.67 341.27 294.76 337.64 300.54C336.94 300.07 333.45 297.69 327.16 293.41L333.8 271.92Z" id="b2KLnJgaT"></path><path d="M338.23 346.59C343.63 346.59 386.87 346.59 392.27 346.59C391.36 324.58 391.34 311.01 401.84 265.84C394.28 264.28 386.61 263.27 378.89 262.82C370.72 262.24 362.51 262.24 354.33 262.82C343.78 263.83 331.83 266.24 331.83 266.24C333.11 282.31 325.43 268.47 338.23 346.59Z" id="a1myiQdlN"></path><path d="M338.23 346.59C343.12 352.09 365.58 349.78 380.14 347.97C386.08 347.24 390.7 346.59 392.27 346.59C391.36 324.58 391.34 311.01 401.84 265.84C394.28 264.28 386.61 263.27 378.89 262.82C370.72 262.24 362.51 262.24 354.33 262.82C343.78 263.83 331.83 266.24 331.83 266.24C333.11 282.31 331.34 338.83 338.23 346.59Z" id="cfyZrEiZt"></path><path d="M281.32 327.39L271.89 317.81C271.12 325.91 270.69 330.4 270.61 331.3C270.61 331.3 277.68 336.09 282.57 333.52C282.41 332.7 281.99 330.66 281.32 327.39Z" id="a5736YFc7i"></path><path d="M260.33 327.73L270.62 331.3L271.86 317.81L260.75 316.39L260.75 316.39L260.33 327.73Z" id="aoPoDyYra"></path><path d="M263.58 508.54L261.53 477.71L274.84 477.71L276.89 508.54L276.89 508.54L263.58 508.54Z" id="b22lp9AnDp"></path><path d="M315.1 508.54L310.82 477.71L324.14 477.71L328.41 508.54L328.41 508.54L315.1 508.54Z" id="cscTdUDWM"></path><path d="M329.23 507C329.76 506.98 330.22 507.37 330.29 507.9C330.46 509.09 331.82 518.56 332 519.74C332.12 520.93 331.25 521.98 330.07 522.1C330 522.11 329.93 522.11 329.86 522.11C324.65 522.02 322.18 521.72 315.56 521.72C311.52 521.72 301.13 522.14 295.54 522.14C289.95 522.14 289.65 516.61 291.98 516.11C302.41 513.86 308.53 510.77 312.05 507.81C312.67 507.29 313.46 507 314.27 507C317.26 507 327.73 507 329.23 507Z" id="c7HtfuHkZt"></path><path d="M277.48 507C278.01 506.99 278.47 507.38 278.54 507.9C278.71 509.09 280.07 518.56 280.24 519.74C280.36 520.93 279.5 521.98 278.32 522.1C278.25 522.11 278.18 522.11 278.11 522.11C272.9 522.02 270.43 521.72 263.81 521.72C259.75 521.72 251.39 522.14 245.8 522.14C240.21 522.14 239.91 516.61 242.24 516.11C252.67 513.86 256.78 510.77 260.29 507.81C260.92 507.28 261.72 506.99 262.54 507C265.53 507 275.99 507 277.48 507Z" id="a1zel5esI8"></path><path d="M349.26 231.21C363.3 229.81 342.44 208.28 342.44 208.28C337.65 208.59 335.22 232.6 349.26 231.21Z" id="a49JLNFm9"></path><path d="M262.59 493.61L275.91 493.61L274.86 477.71L261.53 477.71L261.53 477.71L262.59 493.61Z" id="b1VYvZe4c1"></path><path d="M310.81 477.71L313.03 493.61L326.35 493.61L324.14 477.71L324.14 477.71L310.81 477.71Z" id="eslobiFAr"></path><path d="M396.44 290.96C395.16 297.51 394.25 303.17 393.56 308.26C393.35 306.63 392.3 298.48 390.4 283.8C393.62 287.62 395.64 290 396.44 290.96Z" id="aahUkvy27"></path><path d="M376.46 235.23C374.91 243.12 373.36 257.6 378.89 262.87C378.89 262.87 376.73 270.89 362.05 270.89C345.91 270.89 354.37 262.87 354.37 262.87C363.19 260.77 362.96 254.23 361.42 248.1C364.43 245.53 373.45 237.8 376.46 235.23Z" id="bXCK3y1Gp"></path><path d="M360.05 270.84L360.71 269.49L364.97 272.6L364.97 272.6L360.05 270.84Z" id="j1d49I2X7J"></path><path d="M360.05 270.84L359.05 269.34L355.43 271.58L355.43 271.58L360.05 270.84Z" id="d2vAXsunWO"></path><path d="M380.44 262.4C380.65 262.61 380.65 262.95 380.44 263.17C379.04 264.77 367.77 277.6 366.36 279.21C365.69 275.4 363.65 271.96 360.63 269.56C372.28 265.15 375.31 260.6 376.35 259.32C376.42 259.08 376.68 258.95 376.91 259.03C376.98 259.05 377.05 259.09 377.1 259.15C377.77 259.8 380.11 262.07 380.44 262.4Z" id="d1cxovQJ48"></path><path d="M352.83 262.73C352.58 262.8 352.39 263 352.32 263.26C351.15 268.52 351.37 273.99 352.96 279.14C353.55 276.97 355.52 271.76 359.05 269.34C355.21 266.69 356.76 263.27 357.31 261.98C357.37 261.83 357.29 261.67 357.15 261.62C357.09 261.6 357.04 261.59 356.98 261.61C356.15 261.83 353.25 262.62 352.83 262.73Z" id="g4XtBy2sKl"></path><path d="M361.35 248.09C361.72 249.52 361.97 250.97 362.1 252.44C365.47 251.96 370.09 248.27 370.45 244.76C370.67 243.34 370.62 241.88 370.31 240.47C368.51 242 362.24 247.33 361.35 248.09Z" id="dbIOCWvb0"></path><path d="M374.4 240.9C366.34 252.68 349.88 251.69 344.46 239.28C339.59 228.12 337.92 208.56 349.7 201.09C358.09 195.73 369.23 198.19 374.59 206.58C376.09 208.94 377.03 211.63 377.32 214.41C378.84 227.53 379.78 233.06 374.4 240.9Z" id="bFNI58mQC"></path><path d="M388.67 207.58C393.96 228.9 377.08 230.4 377.08 230.4C376.87 229.85 375.18 225.49 374.96 224.95C371.93 226.78 363.44 225.97 366 210.14C367.52 201.18 356.17 213.66 341.79 212.26C337.96 211.89 332.72 198.5 347.32 192.74C369.01 184.18 385.31 193.84 388.67 207.58Z" id="d1BKtFYaL"></path><path d="M360.72 188.08C360.72 188.08 354.43 189.5 352.4 194.1C350.36 198.69 336.49 203.3 339.93 198.02C342.79 193.63 348.62 189.86 360.72 188.08Z" id="a74j1AzlC"></path><path d="M379.32 232.43C377.08 234.99 374.13 233.42 373.21 230.35C372.39 227.57 372.56 222.91 375.55 221.5C378.55 220.09 381.42 222.32 381.66 225.44C381.84 227.99 380.99 230.51 379.32 232.43Z" id="a2Y0wZK0cP"></path><path d="M343.29 348.88C341.45 348.52 340.17 346.05 338.55 346.05C338.55 346.05 251.27 357.76 251.96 397.16C252.68 438.17 259.84 489.38 259.84 489.38C261.3 489.38 272.98 489.38 274.44 489.38C274.44 489.38 275.69 446.04 276.11 405.67C276.32 384.65 344.62 380.44 344.62 380.44C345.2 378.39 351.31 368.14 362.93 349.7C352.78 349.73 346.24 349.46 343.29 348.88Z" id="g6cRu4cNco"></path><path d="M351.58 350.69C351.58 350.69 294.64 365.77 293.18 389.45C290.5 433.05 309.67 490.57 309.67 490.57C311.48 490.57 326.01 490.57 327.83 490.57C327.83 490.57 326.79 452.43 324.63 412.93C321.89 363.29 409.47 412.24 392.12 346.68C384.16 346.67 359.54 350.7 351.58 350.69Z" id="d9e1qZhZw"></path><path d="M357.43 223.71C356.74 223.83 356.03 223.07 355.84 222.02C355.65 220.97 356.06 219.99 356.75 219.88C357.44 219.76 358.12 220.51 358.34 221.57C358.53 222.62 358.12 223.58 357.43 223.71Z" id="dWQxtbEub"></path><path d="M345.49 225.84C344.8 225.97 344.08 225.2 343.89 224.15C343.69 223.1 344.1 222.13 344.8 222.02C345.49 221.9 346.2 222.64 346.4 223.71C346.59 224.76 346.18 225.72 345.49 225.84Z" id="b30Vd8p1kp"></path><path d="M352.56 238.79C355.41 238.34 357.87 236.55 359.19 233.99C359.24 233.89 359.19 233.77 359.09 233.72C358.98 233.68 358.87 233.73 358.82 233.84C357.57 236.26 355.25 237.95 352.56 238.39C352.45 238.42 352.38 238.52 352.39 238.64C352.41 238.72 352.48 238.78 352.56 238.79C352.56 238.79 352.56 238.79 352.56 238.79Z" id="a7NuwaPCb7"></path><path d="M361.44 216.72C361.59 216.57 361.6 216.33 361.46 216.17C361.45 216.17 361.44 216.16 361.44 216.15C360.04 214.79 358.06 214.18 356.14 214.54C355.93 214.6 355.8 214.82 355.85 215.03C355.9 215.24 356.12 215.37 356.33 215.32C356.33 215.32 356.34 215.32 356.34 215.32C358 215.03 359.7 215.56 360.9 216.74C360.97 216.8 361.05 216.84 361.14 216.84C361.25 216.85 361.36 216.8 361.44 216.72Z" id="e7Vy8rTUWa"></path><path d="M339.87 218.94C340.03 218.95 340.18 218.85 340.24 218.7C340.87 217.14 342.21 215.98 343.85 215.58C344.06 215.54 344.21 215.33 344.18 215.12C344.14 214.89 343.93 214.75 343.71 214.78C341.8 215.22 340.24 216.57 339.51 218.38C339.42 218.59 339.51 218.83 339.71 218.92C339.74 218.92 339.84 218.94 339.87 218.94Z" id="h4wqQ7PrG"></path><path d="M393.77 285.16C394.93 289 396.19 292.84 397.3 296.78C398.41 300.72 399.59 304.56 400.6 308.47C401.61 312.37 402.57 316.24 403.29 319.99C403.64 321.88 403.96 323.76 404.14 325.53C404.24 326.41 404.29 327.24 404.3 328.01C404.3 328.19 404.3 328.01 404.43 327.72C404.59 327.37 404.8 327.06 405.07 326.78C405.72 326.22 405.97 326.32 405.67 326.41C405.14 326.54 404.58 326.6 404.03 326.58C402.31 326.52 400.6 326.3 398.91 325.93C395.1 325.09 391.34 324.01 387.66 322.71C380.1 320.15 372.42 317.03 364.94 313.84C364.61 314.45 361.97 319.27 361.64 319.87C368.73 324.52 376.14 328.66 383.82 332.26C387.8 334.14 391.9 335.73 396.1 337.04C398.43 337.75 400.84 338.23 403.27 338.48C404.78 338.64 406.31 338.6 407.82 338.37C408.82 338.22 409.8 337.94 410.73 337.54C411.93 337.02 413.01 336.27 413.93 335.33C415.7 333.46 416.72 331 416.78 328.42C416.85 327.14 416.86 325.86 416.78 324.71C416.69 322.34 416.48 320.1 416.18 317.91C415.57 313.54 414.77 309.31 413.8 305.11C412.83 300.92 411.79 296.86 410.65 292.79C409.51 288.72 408.28 284.72 406.81 280.65C404.2 281.55 396.38 284.26 393.77 285.16Z" id="a1IJvguo1"></path><path d="M313.2 508.75C313.32 508.73 313.4 508.61 313.38 508.49C313.37 508.44 313.33 508.38 313.28 508.35C312.83 508.06 308.84 505.47 307.32 506.15C306.99 506.3 306.77 506.61 306.75 506.97C306.62 507.55 306.81 508.15 307.24 508.56C307.96 509.07 308.83 509.31 309.71 509.24C310.89 509.21 312.06 509.04 313.2 508.75ZM307.55 508.22C307.23 507.92 307.09 507.47 307.19 507.03C307.2 506.83 307.32 506.65 307.51 506.56C308.48 506.12 311.18 507.57 312.59 508.44C310.12 508.95 308.26 508.89 307.55 508.22Z" id="a1MUbn7e7B"></path><path d="M313.15 508.76C313.22 508.76 313.26 508.76 313.27 508.76C313.34 508.72 313.39 508.64 313.38 508.56C313.38 508.4 313.38 504.61 311.95 503.36C311.61 503.03 311.14 502.89 310.67 502.96C310.19 502.96 309.78 503.29 309.68 503.76C309.42 505.14 311.64 507.97 313.04 508.76C313.05 508.76 313.09 508.76 313.15 508.76ZM310.9 503.36C311.18 503.36 311.45 503.47 311.66 503.67C312.67 504.56 312.87 507.1 312.94 508.11C311.66 507.19 309.94 504.86 310.16 503.82C310.16 503.65 310.29 503.44 310.75 503.37C310.78 503.37 310.87 503.36 310.9 503.36Z" id="dE056TfzK"></path><path d="M261.72 508.76C261.82 508.74 261.89 508.66 261.9 508.57C261.92 508.47 261.86 508.38 261.77 508.34C261.19 508.03 255.92 505.34 254.32 506.21C254.04 506.37 253.86 506.66 253.84 506.98C253.77 507.52 253.97 508.07 254.38 508.43C255.31 509.05 256.42 509.34 257.54 509.24C258.94 509.2 260.35 509.05 261.72 508.76ZM254.68 508.11C254.39 507.83 254.24 507.43 254.29 507.02C254.29 506.84 254.39 506.68 254.54 506.6C255.59 506.04 259.12 507.53 260.98 508.44C259.27 508.74 255.86 509.16 254.68 508.11Z" id="cbsYInRo2"></path><path d="M261.8 508.76C261.86 508.71 261.9 508.64 261.9 508.56C261.9 508.4 261.58 504.86 259.94 503.44C259.48 503.04 258.87 502.86 258.27 502.92C257.45 503 257.22 503.41 257.15 503.73C256.92 505.2 260.02 508.02 261.58 508.72C261.71 508.77 261.76 508.77 261.8 508.76ZM258.51 503.36C258.93 503.36 259.34 503.51 259.65 503.8C260.85 504.79 261.28 507.19 261.4 508.15C259.73 507.21 257.44 504.81 257.56 503.82C257.56 503.72 257.56 503.44 258.27 503.37C258.32 503.37 258.46 503.36 258.51 503.36Z" id="e1hULToTP"></path><path d="M365.25 314.05L352.63 310.85C356.24 318.12 358.24 322.16 358.64 322.97C358.64 322.97 367.18 323.34 370 318.58C369.37 317.98 367.78 316.46 365.25 314.05Z" id="acgD1DwIO"></path><path d="M348.01 325.32L358.64 322.97L352.63 310.85L342.43 315.44L342.43 315.44L348.01 325.32Z" id="e3WOsQpzC"></path><path d="M410.42 289.5C408.67 291.21 398.05 301.55 396.3 303.26C396.3 303.26 385.09 285.66 387.34 278.66C389.74 271.36 395.66 264.03 401.84 265.89C407.27 267.55 408.03 285.44 410.42 289.5Z" id="cZx1dC62B"></path><path d="M413.77 301.09C412.03 302.8 398.05 301.55 396.3 303.26C396.3 303.26 385.09 285.66 387.34 278.66C389.74 271.36 395.66 264.03 401.84 265.89C407.27 267.55 411.39 297.03 413.77 301.09Z" id="g1VRVmwwB"></path><path d="M107.7 333.34C107.7 333.34 107.7 333.34 107.7 333.34C107.7 452.19 107.7 518.21 107.7 531.42C107.7 531.42 107.7 531.42 107.7 531.42C112.74 531.42 115.54 531.42 116.1 531.42C116.1 531.42 116.1 531.42 116.1 531.42C116.1 412.57 116.1 346.54 116.1 333.34C116.1 333.34 116.1 333.34 116.1 333.34C111.06 333.34 108.26 333.34 107.7 333.34Z" id="eNw3j0CPC"></path><path d="M107.7 333.34C107.7 333.34 107.7 333.34 107.7 333.34C107.7 452.19 107.7 518.21 107.7 531.42C107.7 531.42 107.7 531.42 107.7 531.42C112.74 531.42 115.54 531.42 116.1 531.42C116.1 531.42 116.1 531.42 116.1 531.42C116.1 412.57 116.1 346.54 116.1 333.34C116.1 333.34 116.1 333.34 116.1 333.34C111.06 333.34 108.26 333.34 107.7 333.34Z" id="dad74zwuP"></path><path d="M307.59 348.2C307.59 348.2 307.59 348.2 307.59 348.2C307.59 339.28 307.59 334.33 307.59 333.34C307.59 333.34 307.59 333.34 307.59 333.34C186.1 333.34 118.6 333.34 105.1 333.34C105.1 333.34 105.1 333.34 105.1 333.34C105.1 342.25 105.1 347.21 105.1 348.2C105.1 348.2 105.1 348.2 105.1 348.2C226.59 348.2 294.09 348.2 307.59 348.2Z" id="b4Qcfdp7N8"></path><path d="M307.59 348.2C307.59 348.2 307.59 348.2 307.59 348.2C307.59 339.28 307.59 334.33 307.59 333.34C307.59 333.34 307.59 333.34 307.59 333.34C186.1 333.34 118.6 333.34 105.1 333.34C105.1 333.34 105.1 333.34 105.1 333.34C105.1 342.25 105.1 347.21 105.1 348.2C105.1 348.2 105.1 348.2 105.1 348.2C226.59 348.2 294.09 348.2 307.59 348.2Z" id="c1kPjkzUz5"></path><path d="M304.97 333.34C304.97 333.34 304.97 333.34 304.97 333.34C304.97 452.19 304.97 518.21 304.97 531.42C304.97 531.42 304.97 531.42 304.97 531.42C310.01 531.42 312.81 531.42 313.37 531.42C313.37 531.42 313.37 531.42 313.37 531.42C313.37 412.57 313.37 346.54 313.37 333.34C313.37 333.34 313.37 333.34 313.37 333.34C308.33 333.34 305.53 333.34 304.97 333.34Z" id="d7n8yI4kvY"></path><path d="M304.97 333.34C304.97 333.34 304.97 333.34 304.97 333.34C304.97 452.19 304.97 518.21 304.97 531.42C304.97 531.42 304.97 531.42 304.97 531.42C310.01 531.42 312.81 531.42 313.37 531.42C313.37 531.42 313.37 531.42 313.37 531.42C313.37 412.57 313.37 346.54 313.37 333.34C313.37 333.34 313.37 333.34 313.37 333.34C308.33 333.34 305.53 333.34 304.97 333.34Z" id="i5ku3dunxT"></path><path d="M308.07 380.72C308.07 380.72 308.07 380.72 308.07 380.72C308.07 355.05 308.07 340.79 308.07 337.93C308.07 337.93 308.07 337.93 308.07 337.93C190.37 337.93 124.98 337.93 111.9 337.93C111.9 337.93 111.9 337.93 111.9 337.93C111.9 363.61 111.9 377.87 111.9 380.72C111.9 380.72 111.9 380.72 111.9 380.72C229.6 380.72 294.99 380.72 308.07 380.72Z" id="ic8T6BfSA"></path><path d="M308.07 380.72C308.07 380.72 308.07 380.72 308.07 380.72C308.07 355.05 308.07 340.79 308.07 337.93C308.07 337.93 308.07 337.93 308.07 337.93C190.37 337.93 124.98 337.93 111.9 337.93C111.9 337.93 111.9 337.93 111.9 337.93C111.9 363.61 111.9 377.87 111.9 380.72C111.9 380.72 111.9 380.72 111.9 380.72C229.6 380.72 294.99 380.72 308.07 380.72Z" id="apeCWPmMq"></path><path d="M168 537.18C175.99 537.17 182.47 530.69 182.48 522.7C182.48 504.86 182.48 362.16 182.48 344.32C182.48 337.25 188.21 331.52 195.28 331.52C196.41 331.52 202.05 331.52 212.2 331.52L212.2 330.24C202.05 330.24 196.42 330.24 195.29 330.24C187.52 330.24 181.21 336.54 181.21 344.32C181.21 362.16 181.21 504.86 181.21 522.7C181.2 529.99 175.3 535.89 168.01 535.9C162.36 535.9 117.12 535.9 111.46 535.9C108.94 535.9 106.89 533.86 106.89 531.34C106.88 529.88 107.57 528.52 108.74 527.65C108.66 527.55 108.06 526.73 107.98 526.63C105.39 528.56 104.85 532.22 106.77 534.81C107.87 536.3 109.61 537.18 111.46 537.18C122.77 537.18 162.35 537.18 168 537.18Z" id="e44qkiDnHN"></path><path d="M168 537.18C175.99 537.17 182.47 530.69 182.48 522.7C182.48 504.86 182.48 362.16 182.48 344.32C182.48 337.25 188.21 331.52 195.28 331.52C196.41 331.52 202.05 331.52 212.2 331.52L212.2 330.24C202.05 330.24 196.42 330.24 195.29 330.24C187.52 330.24 181.21 336.54 181.21 344.32C181.21 362.16 181.21 504.86 181.21 522.7C181.2 529.99 175.3 535.89 168.01 535.9C162.36 535.9 117.12 535.9 111.46 535.9C108.94 535.9 106.89 533.86 106.89 531.34C106.88 529.88 107.57 528.52 108.74 527.65C108.66 527.55 108.06 526.73 107.98 526.63C105.39 528.56 104.85 532.22 106.77 534.81C107.87 536.3 109.61 537.18 111.46 537.18C122.77 537.18 162.35 537.18 168 537.18Z" id="b4RZEXFQG5"></path><path d="M291.87 274.2L305.61 330.24L210.73 330.24L196.97 274.2L196.97 274.2L291.87 274.2Z" id="a1C9tr5SVU"></path><path d="M291.87 274.2L305.61 330.24L210.73 330.24L196.97 274.2L196.97 274.2L291.87 274.2Z" id="bDfalFZIa"></path><path d="M303.09 333.34L340.33 333.34L339.94 330.24L302.71 330.24L302.71 330.24L303.09 333.34Z" id="d112MTLpL"></path><path d="M303.09 333.34L340.33 333.34L339.94 330.24L302.71 330.24L302.71 330.24L303.09 333.34Z" id="afMBOPZnT"></path><path d="M208.19 333.34L303.09 333.34L302.71 330.24L207.81 330.24L207.81 330.24L208.19 333.34Z" id="eCnlGcPyQ"></path><path d="M208.19 333.34L303.09 333.34L302.71 330.24L207.81 330.24L207.81 330.24L208.19 333.34Z" id="d2xLZE2biL"></path><path d="M288.95 274.2L302.7 330.24L207.81 330.24L194.05 274.2L194.05 274.2L288.95 274.2Z" id="d3kgh8mNLw"></path><path d="M288.95 274.2L302.7 330.24L207.81 330.24L194.05 274.2L194.05 274.2L288.95 274.2Z" id="f1FlRAxkkx"></path><path d="M152.04 275.98C152.04 275.98 146.98 279.28 147.06 283.66C147.14 288.04 152.48 289.22 151.34 292.9C150.2 296.59 145.14 300.24 148.46 303.3C151.77 306.36 147.92 309.07 148.15 312.81C148.38 316.54 157.4 319.22 157.4 319.22C156.33 310.57 171.37 295.14 152.04 275.98Z" id="b6J3FEooi"></path><path d="M175.11 282.1C175.11 282.1 178.87 286.82 177.4 291.06C175.92 295.3 170.51 294.62 170.43 298.5C170.36 302.37 173.99 307.39 169.88 309.25C165.77 311.1 168.6 314.91 167.18 318.39C165.76 321.87 156.34 321.42 156.34 321.42C160.09 313.56 150.68 294.17 175.11 282.1Z" id="e3GA2Sfha"></path><path d="M175.11 282.1C175.11 282.1 178.87 286.82 177.4 291.06C175.92 295.3 170.51 294.62 170.43 298.5C170.36 302.37 173.99 307.39 169.88 309.25C165.77 311.1 168.6 314.91 167.18 318.39C165.76 321.87 156.34 321.42 156.34 321.42C160.09 313.56 150.68 294.17 175.11 282.1Z" id="b1Bs2MR3F0"></path><path d="M177.74 315.38C177.74 315.38 177.27 333.3 159.46 333.3C159.46 333.3 141.2 315.38 141.2 315.38C148.51 315.38 170.43 315.38 177.74 315.38Z" id="c2Pzt4SgBl"></path><path d="M177.74 315.38C177.74 315.38 177.27 333.3 159.46 333.3C159.46 333.3 141.2 315.38 141.2 315.38C148.51 315.38 170.43 315.38 177.74 315.38Z" id="b3N7GFZwd"></path><path d="M307.65 178.32L322.86 197.96L315.71 197.96L315.71 223.4L299.6 223.4L299.6 197.96L292.45 197.96L292.45 197.96L307.65 178.32Z" id="gF8nGBlFj"></path><path d="M229.84 221.07C229.84 201.27 213.79 185.23 194 185.23C194 186.16 194 193.63 194 194.56C208.63 194.55 220.49 206.4 220.5 221.03C220.5 221.03 220.5 221.04 220.5 221.04C222.36 221.05 227.97 221.06 229.84 221.07Z" id="a48mosfYVV"></path><path d="M219.5 221.07C219.5 235.7 207.63 247.56 193 247.56C188.35 247.57 183.78 246.35 179.76 244.01C179.3 244.82 175.55 251.34 175.08 252.16C192.22 262.06 214.14 256.18 224.04 239.04C227.18 233.59 228.84 227.41 228.84 221.12C228.84 221.11 220.43 221.07 219.5 221.07Z" id="bvEzAsKmS"></path><path d="M219.5 221.07C219.5 235.7 207.63 247.56 193 247.56C188.35 247.57 183.78 246.35 179.76 244.01C179.3 244.82 175.55 251.34 175.08 252.16C192.22 262.06 214.14 256.18 224.04 239.04C227.18 233.59 228.84 227.41 228.84 221.12C228.84 221.11 220.43 221.07 219.5 221.07Z" id="afIadFTfc"></path><path d="M193 185.2C173.21 185.13 157.1 201.11 157.02 220.91C156.97 233.82 163.87 245.75 175.08 252.16C175.55 251.35 179.28 244.87 179.75 244.06C167.04 236.82 162.6 220.65 169.84 207.94C174.58 199.62 183.43 194.51 193 194.56C193 192.69 193 186.14 193 185.2Z" id="afA4TF3nq"></path><path d="M193 185.2C173.21 185.13 157.1 201.11 157.02 220.91C156.97 233.82 163.87 245.75 175.08 252.16C175.55 251.35 179.28 244.87 179.75 244.06C167.04 236.82 162.6 220.65 169.84 207.94C174.58 199.62 183.43 194.51 193 194.56C193 192.69 193 186.14 193 185.2Z" id="b5CMvo4u4I"></path><path d="M245.65 133.12C265.24 133.12 276.13 133.12 278.3 133.12C280.73 133.12 282.69 135.09 282.69 137.51C282.69 137.51 282.69 137.51 282.69 137.51C282.69 143.55 282.69 191.85 282.69 197.89C282.67 200.3 280.71 202.24 278.3 202.24C274.12 202.24 240.69 202.24 236.51 202.24C234.09 202.23 232.13 200.27 232.13 197.85C232.13 194.44 232.13 177.37 232.13 146.65L245.65 133.12Z" id="dgAQp538I"></path><path d="M274.72 196.24C275.78 196.24 276.64 195.38 276.64 194.32C276.64 194.32 276.64 194.32 276.64 194.32C276.63 193.26 275.78 192.41 274.72 192.41C272 192.41 250.27 192.41 247.56 192.41C246.5 192.41 245.65 193.26 245.64 194.32C245.64 194.32 245.64 194.32 245.64 194.32C245.65 195.38 246.51 196.24 247.57 196.24C253 196.24 272.01 196.24 274.72 196.24Z" id="h8HIRI7o0U"></path><path d="M274.72 143.01C275.78 143.01 276.63 142.16 276.64 141.11C276.64 141.11 276.64 141.11 276.64 141.11C276.64 140.05 275.78 139.19 274.72 139.19C273.28 139.19 261.79 139.19 260.36 139.19C259.3 139.19 258.44 140.05 258.44 141.11C258.44 141.11 258.44 141.11 258.44 141.11C258.45 142.17 259.31 143.02 260.37 143.01C260.37 143.01 260.37 143.01 260.37 143.01C263.24 143.01 273.29 143.01 274.72 143.01Z" id="a5bSDhvVy"></path><path d="M274.72 150.62C275.78 150.62 276.63 149.77 276.64 148.71C276.64 148.71 276.64 148.71 276.64 148.71C276.64 147.65 275.78 146.79 274.72 146.79C272.35 146.79 253.35 146.79 250.98 146.79C249.92 146.8 249.07 147.65 249.07 148.71C249.07 148.71 249.07 148.71 249.07 148.71C249.07 149.76 249.92 150.62 250.98 150.62C250.98 150.62 250.98 150.62 250.99 150.62C250.99 150.62 272.35 150.62 274.72 150.62Z" id="h136eP7LCT"></path><path d="M274.72 158.22C275.78 158.22 276.63 157.37 276.64 156.31C276.64 156.31 276.64 156.31 276.64 156.31C276.64 155.25 275.78 154.39 274.72 154.39C271.26 154.39 243.54 154.39 240.07 154.39C239.01 154.39 238.15 155.25 238.15 156.31C238.15 156.31 238.15 156.31 238.15 156.31C238.16 157.37 239.02 158.23 240.08 158.22C240.08 158.22 240.08 158.22 240.08 158.22C247.01 158.22 271.26 158.22 274.72 158.22Z" id="cBthqZpwr"></path><path d="M260.23 165.82C261.29 165.82 262.14 164.97 262.15 163.92C262.15 163.92 262.15 163.92 262.15 163.92C262.15 162.86 261.29 162 260.23 162C258.22 162 242.1 162 240.08 162C239.02 162 238.16 162.86 238.16 163.92C238.16 163.92 238.16 163.92 238.16 163.92C238.17 164.97 239.03 165.82 240.08 165.82C244.11 165.82 258.22 165.82 260.23 165.82Z" id="dhtXRo6t2"></path><path d="M274.72 165.82C275.78 165.82 276.63 164.97 276.64 163.92C276.64 163.92 276.64 163.92 276.64 163.92C276.64 162.86 275.78 162 274.72 162C274.19 162 269.99 162 269.46 162C268.4 162 267.54 162.86 267.54 163.92C267.54 163.92 267.54 163.92 267.54 163.92C267.55 164.98 268.41 165.83 269.47 165.82C269.47 165.82 269.47 165.82 269.47 165.82C270.52 165.82 274.2 165.82 274.72 165.82Z" id="a2EO3WJtTT"></path><path d="M274.72 173.43C275.78 173.43 276.64 172.57 276.64 171.51C276.64 171.51 276.64 171.51 276.64 171.51C276.63 170.45 275.78 169.6 274.72 169.6C271.26 169.6 243.54 169.6 240.07 169.6C239.01 169.6 238.16 170.45 238.15 171.51C238.15 171.51 238.15 171.51 238.15 171.51C238.15 172.57 239.01 173.43 240.07 173.43C240.07 173.43 240.08 173.43 240.08 173.43C240.08 173.43 271.26 173.43 274.72 173.43Z" id="awUMn9lRq"></path><path d="M274.72 181.03C275.78 181.03 276.64 180.17 276.64 179.11C276.64 179.11 276.64 179.11 276.64 179.11C276.63 178.06 275.78 177.2 274.72 177.2C272.59 177.2 255.57 177.2 253.45 177.2C252.39 177.2 251.53 178.06 251.53 179.11C251.53 179.11 251.53 179.11 251.53 179.11C251.53 180.17 252.39 181.03 253.45 181.03C253.45 181.03 253.45 181.03 253.46 181.03C253.46 181.03 272.59 181.03 274.72 181.03Z" id="dXq6veyul"></path><path d="M245.77 181.03C246.82 181.02 247.67 180.17 247.67 179.11C247.67 179.11 247.67 179.11 247.67 179.11C247.67 178.06 246.82 177.2 245.77 177.2C245.77 177.2 245.77 177.2 245.77 177.2C245.2 177.2 240.65 177.2 240.08 177.2C239.03 177.2 238.17 178.06 238.16 179.11C238.16 179.11 238.16 179.11 238.16 179.11C238.16 180.17 239.02 181.03 240.08 181.03C241.22 181.03 245.2 181.03 245.77 181.03Z" id="b8i3aKlJG"></path><path d="M274.72 188.63C275.78 188.63 276.64 187.77 276.64 186.71C276.64 186.71 276.64 186.71 276.64 186.71C276.63 185.66 275.78 184.81 274.72 184.81C271.26 184.81 243.54 184.81 240.07 184.81C239.01 184.81 238.16 185.66 238.15 186.71C238.15 186.71 238.15 186.71 238.15 186.71C238.15 187.77 239.01 188.63 240.07 188.63C240.07 188.63 240.08 188.63 240.08 188.63C240.08 188.63 271.26 188.63 274.72 188.63Z" id="hTWOP062d"></path><path d="M274.72 196.24C275.78 196.24 276.64 195.38 276.64 194.32C276.64 194.32 276.64 194.32 276.64 194.32C276.63 193.26 275.78 192.41 274.72 192.41C272 192.41 250.27 192.41 247.56 192.41C246.5 192.41 245.65 193.26 245.64 194.32C245.64 194.32 245.64 194.32 245.64 194.32C245.65 195.38 246.51 196.24 247.57 196.24C253 196.24 272.01 196.24 274.72 196.24Z" id="i1922pAZwi"></path><path d="M274.72 143.01C275.78 143.01 276.63 142.16 276.64 141.11C276.64 141.11 276.64 141.11 276.64 141.11C276.64 140.05 275.78 139.19 274.72 139.19C273.28 139.19 261.79 139.19 260.36 139.19C259.3 139.19 258.44 140.05 258.44 141.11C258.44 141.11 258.44 141.11 258.44 141.11C258.45 142.17 259.31 143.02 260.37 143.01C260.37 143.01 260.37 143.01 260.37 143.01C263.24 143.01 273.29 143.01 274.72 143.01Z" id="cQVvMwB6T"></path><path d="M274.72 150.62C275.78 150.62 276.63 149.77 276.64 148.71C276.64 148.71 276.64 148.71 276.64 148.71C276.64 147.65 275.78 146.79 274.72 146.79C272.35 146.79 253.35 146.79 250.98 146.79C249.92 146.8 249.07 147.65 249.07 148.71C249.07 148.71 249.07 148.71 249.07 148.71C249.07 149.76 249.92 150.62 250.98 150.62C250.98 150.62 250.98 150.62 250.99 150.62C250.99 150.62 272.35 150.62 274.72 150.62Z" id="ayz1pylfx"></path><path d="M274.72 158.22C275.78 158.22 276.63 157.37 276.64 156.31C276.64 156.31 276.64 156.31 276.64 156.31C276.64 155.25 275.78 154.39 274.72 154.39C271.26 154.39 243.54 154.39 240.07 154.39C239.01 154.39 238.15 155.25 238.15 156.31C238.15 156.31 238.15 156.31 238.15 156.31C238.16 157.37 239.02 158.23 240.08 158.22C240.08 158.22 240.08 158.22 240.08 158.22C247.01 158.22 271.26 158.22 274.72 158.22Z" id="auz3TCR2o"></path><path d="M260.23 165.82C261.29 165.82 262.14 164.97 262.15 163.92C262.15 163.92 262.15 163.92 262.15 163.92C262.15 162.86 261.29 162 260.23 162C258.22 162 242.1 162 240.08 162C239.02 162 238.16 162.86 238.16 163.92C238.16 163.92 238.16 163.92 238.16 163.92C238.17 164.97 239.03 165.82 240.08 165.82C244.11 165.82 258.22 165.82 260.23 165.82Z" id="e5FyTPzRGt"></path><path d="M274.72 165.82C275.78 165.82 276.63 164.97 276.64 163.92C276.64 163.92 276.64 163.92 276.64 163.92C276.64 162.86 275.78 162 274.72 162C274.19 162 269.99 162 269.46 162C268.4 162 267.54 162.86 267.54 163.92C267.54 163.92 267.54 163.92 267.54 163.92C267.55 164.98 268.41 165.83 269.47 165.82C269.47 165.82 269.47 165.82 269.47 165.82C270.52 165.82 274.2 165.82 274.72 165.82Z" id="ajo9WXV59"></path><path d="M274.72 173.43C275.78 173.43 276.64 172.57 276.64 171.51C276.64 171.51 276.64 171.51 276.64 171.51C276.63 170.45 275.78 169.6 274.72 169.6C271.26 169.6 243.54 169.6 240.07 169.6C239.01 169.6 238.16 170.45 238.15 171.51C238.15 171.51 238.15 171.51 238.15 171.51C238.15 172.57 239.01 173.43 240.07 173.43C240.07 173.43 240.08 173.43 240.08 173.43C240.08 173.43 271.26 173.43 274.72 173.43Z" id="c107BMNuvD"></path><path d="M274.72 181.03C275.78 181.03 276.64 180.17 276.64 179.11C276.64 179.11 276.64 179.11 276.64 179.11C276.63 178.06 275.78 177.2 274.72 177.2C272.59 177.2 255.57 177.2 253.45 177.2C252.39 177.2 251.53 178.06 251.53 179.11C251.53 179.11 251.53 179.11 251.53 179.11C251.53 180.17 252.39 181.03 253.45 181.03C253.45 181.03 253.45 181.03 253.46 181.03C253.46 181.03 272.59 181.03 274.72 181.03Z" id="c95jnMYG6"></path><path d="M245.77 181.03C246.82 181.02 247.67 180.17 247.67 179.11C247.67 179.11 247.67 179.11 247.67 179.11C247.67 178.06 246.82 177.2 245.77 177.2C245.77 177.2 245.77 177.2 245.77 177.2C245.2 177.2 240.65 177.2 240.08 177.2C239.03 177.2 238.17 178.06 238.16 179.11C238.16 179.11 238.16 179.11 238.16 179.11C238.16 180.17 239.02 181.03 240.08 181.03C241.22 181.03 245.2 181.03 245.77 181.03Z" id="a2mp0y37nu"></path><path d="M274.72 188.63C275.78 188.63 276.64 187.77 276.64 186.71C276.64 186.71 276.64 186.71 276.64 186.71C276.63 185.66 275.78 184.81 274.72 184.81C271.26 184.81 243.54 184.81 240.07 184.81C239.01 184.81 238.16 185.66 238.15 186.71C238.15 186.71 238.15 186.71 238.15 186.71C238.15 187.77 239.01 188.63 240.07 188.63C240.07 188.63 240.08 188.63 240.08 188.63C240.08 188.63 271.26 188.63 274.72 188.63Z" id="a2tD4bF2lp"></path><path d="M245.65 133.12C245.65 138.6 245.65 141.65 245.65 142.26C245.66 144.68 243.7 146.64 241.29 146.65C241.28 146.65 241.27 146.65 241.26 146.65C240.65 146.65 237.61 146.65 232.13 146.65L245.65 133.12Z" id="e1fuxebzCU"></path><path d="M245.65 133.12C245.65 138.6 245.65 141.65 245.65 142.26C245.66 144.68 243.7 146.64 241.29 146.65C241.28 146.65 241.27 146.65 241.26 146.65C240.65 146.65 237.61 146.65 232.13 146.65L245.65 133.12Z" id="afh4zqtqx"></path><path d="M298.28 520.96C299.11 520.96 299.82 520.38 299.98 519.56C301.6 511.58 309.71 471.66 324.3 399.81L366.66 399.81C381.25 471.66 389.36 511.58 390.98 519.56C391.23 520.49 392.19 521.04 393.11 520.79C393.96 520.56 394.5 519.74 394.38 518.87C391.92 506.76 372.24 409.84 369.78 397.72C369.61 396.91 368.9 396.33 368.08 396.33C363.56 396.33 327.41 396.33 322.9 396.33C322.07 396.33 321.36 396.91 321.19 397.72C318.73 409.84 299.04 506.76 296.58 518.87C296.39 519.81 297 520.73 297.94 520.92C298 520.93 298.21 520.95 298.28 520.96Z" id="a4DlMcTQP"></path><path d="M366.26 520.96C367.09 520.95 367.8 520.37 367.96 519.56C369.59 511.58 377.69 471.66 392.28 399.81L434.64 399.81C449.23 471.66 457.34 511.58 458.96 519.56C459.09 520.52 459.97 521.18 460.92 521.05C461.87 520.93 462.54 520.05 462.41 519.1C462.4 519.02 462.38 518.95 462.36 518.87C459.9 506.76 440.21 409.84 437.75 397.72C437.59 396.91 436.87 396.33 436.05 396.33C431.53 396.33 395.38 396.33 390.86 396.33C390.04 396.33 389.33 396.91 389.17 397.72C386.71 409.84 367.02 506.76 364.56 518.87C364.37 519.81 364.98 520.73 365.92 520.92C365.99 520.93 366.19 520.95 366.26 520.96Z" id="bfVHPRjgn"></path><path d="M298.28 520.96C299.11 520.96 299.82 520.38 299.98 519.56C301.6 511.58 309.71 471.66 324.3 399.81L366.66 399.81C381.25 471.66 389.36 511.58 390.98 519.56C391.23 520.49 392.19 521.04 393.11 520.79C393.96 520.56 394.5 519.74 394.38 518.87C391.92 506.76 372.24 409.84 369.78 397.72C369.61 396.91 368.9 396.33 368.08 396.33C363.56 396.33 327.41 396.33 322.9 396.33C322.07 396.33 321.36 396.91 321.19 397.72C318.73 409.84 299.04 506.76 296.58 518.87C296.39 519.81 297 520.73 297.94 520.92C298 520.93 298.21 520.95 298.28 520.96Z" id="ctxGdbXSA"></path><path d="M366.26 520.96C367.09 520.95 367.8 520.37 367.96 519.56C369.59 511.58 377.69 471.66 392.28 399.81L434.64 399.81C449.23 471.66 457.34 511.58 458.96 519.56C459.09 520.52 459.97 521.18 460.92 521.05C461.87 520.93 462.54 520.05 462.41 519.1C462.4 519.02 462.38 518.95 462.36 518.87C459.9 506.76 440.21 409.84 437.75 397.72C437.59 396.91 436.87 396.33 436.05 396.33C431.53 396.33 395.38 396.33 390.86 396.33C390.04 396.33 389.33 396.91 389.17 397.72C386.71 409.84 367.02 506.76 364.56 518.87C364.37 519.81 364.98 520.73 365.92 520.92C365.99 520.93 366.19 520.95 366.26 520.96Z" id="a1J7HfbjTK"></path><path d="M365.64 540.28C373.63 540.27 380.11 533.79 380.11 525.8C380.11 507.96 380.11 365.26 380.11 347.42C380.11 340.35 385.84 334.62 392.91 334.62C394.04 334.62 399.68 334.62 409.84 334.62L409.84 333.34C399.69 333.34 394.05 333.34 392.93 333.34C385.15 333.34 378.85 339.64 378.85 347.42C378.85 365.26 378.85 507.96 378.85 525.8C378.84 533.08 372.94 538.99 365.65 539C359.99 539 314.75 539 309.1 539C306.58 539 304.53 536.96 304.52 534.43C304.52 532.98 305.21 531.62 306.37 530.75C306.3 530.65 305.69 529.83 305.62 529.73C303.02 531.65 302.48 535.32 304.41 537.91C305.51 539.4 307.25 540.27 309.1 540.28C320.41 540.28 359.98 540.28 365.64 540.28Z" id="c1gIWv87oF"></path><path d="M308.53 333.34L409.84 333.34L409.84 338.58L308.53 338.58L308.53 333.34Z" id="b16Sch7gjf"></path></defs><g><g><g><use xlink:href="#b4nOILa2lb" opacity="1" fill="#e6e6e6" fill-opacity="1"></use><g><use xlink:href="#b4nOILa2lb" opacity="1" fill-opacity="0" stroke="#000000" stroke-width="1" stroke-opacity="0"></use></g></g><g><use xlink:href="#b1qdPALMfb" opacity="1" fill="#f0f0f0" fill-opacity="1"></use><g><use xlink:href="#b1qdPALMfb" opacity="1" fill-opacity="0" stroke="#000000" stroke-width="1" stroke-opacity="0"></use></g></g><g><use xlink:href="#a3uCQ7GCD2" opacity="1" fill="#fafafa" fill-opacity="1"></use><g><use xlink:href="#a3uCQ7GCD2" opacity="1" fill-opacity="0" stroke="#000000" stroke-width="1" stroke-opacity="0"></use></g></g><g><use xlink:href="#d4K4DgzVu" opacity="1" fill="#f0f0f0" fill-opacity="1"></use><g><use xlink:href="#d4K4DgzVu" opacity="1" fill-opacity="0" stroke="#000000" stroke-width="1" stroke-opacity="0"></use></g></g><g><use xlink:href="#igdnxd1W" opacity="1" fill="#fafafa" fill-opacity="1"></use><g><use xlink:href="#igdnxd1W" opacity="1" fill-opacity="0" stroke="#000000" stroke-width="1" stroke-opacity="0"></use></g></g><g><use xlink:href="#ag5f706QU" opacity="1" fill="#407bff" fill-opacity="1"></use><g><use xlink:href="#ag5f706QU" opacity="1" fill-opacity="0" stroke="#000000" stroke-width="1" stroke-opacity="0"></use></g></g><g><use xlink:href="#aaCn3l66m" opacity="1" fill="#407bff" fill-opacity="1"></use><g><use xlink:href="#aaCn3l66m" opacity="1" fill-opacity="0" stroke="#000000" stroke-width="1" stroke-opacity="0"></use></g></g><g><use xlink:href="#aFZDNWZYW" opacity="1" fill="#407bff" fill-opacity="1"></use><g><use xlink:href="#aFZDNWZYW" opacity="1" fill-opacity="0" stroke="#000000" stroke-width="1" stroke-opacity="0"></use></g></g><g><use xlink:href="#d1XrfdimTO" opacity="1" fill="#407bff" fill-opacity="1"></use><g><use xlink:href="#d1XrfdimTO" opacity="1" fill-opacity="0" stroke="#000000" stroke-width="1" stroke-opacity="0"></use></g></g><g><use xlink:href="#e1mrF68GWk" opacity="1" fill="#000000" fill-opacity="1"></use><g><use xlink:href="#e1mrF68GWk" opacity="1" fill-opacity="0" stroke="#000000" stroke-width="1" stroke-opacity="0"></use></g></g><g><use xlink:href="#j1sJspvOAv" opacity="1" fill="#000000" fill-opacity="1"></use><g><use xlink:href="#j1sJspvOAv" opacity="1" fill-opacity="0" stroke="#000000" stroke-width="1" stroke-opacity="0"></use></g></g><g><use xlink:href="#eLLAs80UB" opacity="1" fill="#000000" fill-opacity="1"></use><g><use xlink:href="#eLLAs80UB" opacity="1" fill-opacity="0" stroke="#000000" stroke-width="1" stroke-opacity="0"></use></g></g><g><use xlink:href="#a4HSjGmgR5" opacity="1" fill="#000000" fill-opacity="1"></use><g><use xlink:href="#a4HSjGmgR5" opacity="1" fill-opacity="0" stroke="#000000" stroke-width="1" stroke-opacity="0"></use></g></g><g><use xlink:href="#dEfXl4TA3" opacity="1" fill="#eac2ad" fill-opacity="1"></use><g><use xlink:href="#dEfXl4TA3" opacity="1" fill-opacity="0" stroke="#000000" stroke-width="1" stroke-opacity="0"></use></g></g><g><use xlink:href="#axC1fgPlV" opacity="1" fill="#407bff" fill-opacity="1"></use><g><use xlink:href="#axC1fgPlV" opacity="1" fill-opacity="0" stroke="#000000" stroke-width="1" stroke-opacity="0"></use></g></g><g><use xlink:href="#bBzBvjiTB" opacity="1" fill="#407bff" fill-opacity="1"></use><g><use xlink:href="#bBzBvjiTB" opacity="1" fill-opacity="0" stroke="#000000" stroke-width="1" stroke-opacity="0"></use></g></g><g><use xlink:href="#b2KLnJgaT" opacity="1" fill="#407bff" fill-opacity="1"></use><g><use xlink:href="#b2KLnJgaT" opacity="1" fill-opacity="0" stroke="#000000" stroke-width="1" stroke-opacity="0"></use></g></g><g><use xlink:href="#a1myiQdlN" opacity="1" fill="#407bff" fill-opacity="1"></use><g><use xlink:href="#a1myiQdlN" opacity="1" fill-opacity="0" stroke="#000000" stroke-width="1" stroke-opacity="0"></use></g></g><g><use xlink:href="#cfyZrEiZt" opacity="1" fill="#407bff" fill-opacity="1"></use><g><use xlink:href="#cfyZrEiZt" opacity="1" fill-opacity="0" stroke="#000000" stroke-width="1" stroke-opacity="0"></use></g></g><g><use xlink:href="#a5736YFc7i" opacity="1" fill="#e58a7b" fill-opacity="1"></use><g><use xlink:href="#a5736YFc7i" opacity="1" fill-opacity="0" stroke="#000000" stroke-width="1" stroke-opacity="0"></use></g></g><g><use xlink:href="#aoPoDyYra" opacity="1" fill="#e58a7b" fill-opacity="1"></use><g><use xlink:href="#aoPoDyYra" opacity="1" fill-opacity="0" stroke="#000000" stroke-width="1" stroke-opacity="0"></use></g></g><g><use xlink:href="#b22lp9AnDp" opacity="1" fill="#eac2ad" fill-opacity="1"></use><g><use xlink:href="#b22lp9AnDp" opacity="1" fill-opacity="0" stroke="#000000" stroke-width="1" stroke-opacity="0"></use></g></g><g><use xlink:href="#cscTdUDWM" opacity="1" fill="#eac2ad" fill-opacity="1"></use><g><use xlink:href="#cscTdUDWM" opacity="1" fill-opacity="0" stroke="#000000" stroke-width="1" stroke-opacity="0"></use></g></g><g><use xlink:href="#c7HtfuHkZt" opacity="1" fill="#263238" fill-opacity="1"></use><g><use xlink:href="#c7HtfuHkZt" opacity="1" fill-opacity="0" stroke="#000000" stroke-width="1" stroke-opacity="0"></use></g></g><g><use xlink:href="#a1zel5esI8" opacity="1" fill="#263238" fill-opacity="1"></use><g><use xlink:href="#a1zel5esI8" opacity="1" fill-opacity="0" stroke="#000000" stroke-width="1" stroke-opacity="0"></use></g></g><g><use xlink:href="#a49JLNFm9" opacity="1" fill="#263238" fill-opacity="1"></use><g><use xlink:href="#a49JLNFm9" opacity="1" fill-opacity="0" stroke="#000000" stroke-width="1" stroke-opacity="0"></use></g></g><g><use xlink:href="#b1VYvZe4c1" opacity="1" fill="#cf6f64" fill-opacity="1"></use><g><use xlink:href="#b1VYvZe4c1" opacity="1" fill-opacity="0" stroke="#000000" stroke-width="1" stroke-opacity="0"></use></g></g><g><use xlink:href="#eslobiFAr" opacity="1" fill="#cf6f64" fill-opacity="1"></use><g><use xlink:href="#eslobiFAr" opacity="1" fill-opacity="0" stroke="#000000" stroke-width="1" stroke-opacity="0"></use></g></g><g><use xlink:href="#aahUkvy27" opacity="1" fill="#407bff" fill-opacity="1"></use><g><use xlink:href="#aahUkvy27" opacity="1" fill-opacity="0" stroke="#000000" stroke-width="1" stroke-opacity="0"></use></g></g><g><use xlink:href="#bXCK3y1Gp" opacity="1" fill="#eac2ad" fill-opacity="1"></use><g><use xlink:href="#bXCK3y1Gp" opacity="1" fill-opacity="0" stroke="#000000" stroke-width="1" stroke-opacity="0"></use></g></g><g><use xlink:href="#j1d49I2X7J" opacity="1" fill="#263238" fill-opacity="1"></use><g><use xlink:href="#j1d49I2X7J" opacity="1" fill-opacity="0" stroke="#000000" stroke-width="1" stroke-opacity="0"></use></g></g><g><use xlink:href="#d2vAXsunWO" opacity="1" fill="#263238" fill-opacity="1"></use><g><use xlink:href="#d2vAXsunWO" opacity="1" fill-opacity="0" stroke="#000000" stroke-width="1" stroke-opacity="0"></use></g></g><g><use xlink:href="#d1cxovQJ48" opacity="1" fill="#195ef9" fill-opacity="1"></use><g><use xlink:href="#d1cxovQJ48" opacity="1" fill-opacity="0" stroke="#000000" stroke-width="1" stroke-opacity="0"></use></g></g><g><use xlink:href="#g4XtBy2sKl" opacity="1" fill="#195ef9" fill-opacity="1"></use><g><use xlink:href="#g4XtBy2sKl" opacity="1" fill-opacity="0" stroke="#000000" stroke-width="1" stroke-opacity="0"></use></g></g><g><use xlink:href="#dbIOCWvb0" opacity="1" fill="#cf6f64" fill-opacity="1"></use><g><use xlink:href="#dbIOCWvb0" opacity="1" fill-opacity="0" stroke="#000000" stroke-width="1" stroke-opacity="0"></use></g></g><g><use xlink:href="#bFNI58mQC" opacity="1" fill="#eac2ad" fill-opacity="1"></use><g><use xlink:href="#bFNI58mQC" opacity="1" fill-opacity="0" stroke="#000000" stroke-width="1" stroke-opacity="0"></use></g></g><g><use xlink:href="#d1BKtFYaL" opacity="1" fill="#263238" fill-opacity="1"></use><g><use xlink:href="#d1BKtFYaL" opacity="1" fill-opacity="0" stroke="#000000" stroke-width="1" stroke-opacity="0"></use></g></g><g><use xlink:href="#a74j1AzlC" opacity="1" fill="#263238" fill-opacity="1"></use><g><use xlink:href="#a74j1AzlC" opacity="1" fill-opacity="0" stroke="#000000" stroke-width="1" stroke-opacity="0"></use></g></g><g><use xlink:href="#a2Y0wZK0cP" opacity="1" fill="#eac2ad" fill-opacity="1"></use><g><use xlink:href="#a2Y0wZK0cP" opacity="1" fill-opacity="0" stroke="#000000" stroke-width="1" stroke-opacity="0"></use></g></g><g><use xlink:href="#g6cRu4cNco" opacity="1" fill="#263238" fill-opacity="1"></use><g><use xlink:href="#g6cRu4cNco" opacity="1" fill-opacity="0" stroke="#000000" stroke-width="1" stroke-opacity="0"></use></g></g><g><use xlink:href="#d9e1qZhZw" opacity="1" fill="#263238" fill-opacity="1"></use><g><use xlink:href="#d9e1qZhZw" opacity="1" fill-opacity="0" stroke="#000000" stroke-width="1" stroke-opacity="0"></use></g></g><g><use xlink:href="#dWQxtbEub" opacity="1" fill="#263238" fill-opacity="1"></use><g><use xlink:href="#dWQxtbEub" opacity="1" fill-opacity="0" stroke="#000000" stroke-width="1" stroke-opacity="0"></use></g></g><g><use xlink:href="#b30Vd8p1kp" opacity="1" fill="#263238" fill-opacity="1"></use><g><use xlink:href="#b30Vd8p1kp" opacity="1" fill-opacity="0" stroke="#000000" stroke-width="1" stroke-opacity="0"></use></g></g><g><use xlink:href="#a7NuwaPCb7" opacity="1" fill="#263238" fill-opacity="1"></use><g><use xlink:href="#a7NuwaPCb7" opacity="1" fill-opacity="0" stroke="#000000" stroke-width="1" stroke-opacity="0"></use></g></g><g><use xlink:href="#e7Vy8rTUWa" opacity="1" fill="#263238" fill-opacity="1"></use><g><use xlink:href="#e7Vy8rTUWa" opacity="1" fill-opacity="0" stroke="#000000" stroke-width="1" stroke-opacity="0"></use></g></g><g><use xlink:href="#h4wqQ7PrG" opacity="1" fill="#263238" fill-opacity="1"></use><g><use xlink:href="#h4wqQ7PrG" opacity="1" fill-opacity="0" stroke="#000000" stroke-width="1" stroke-opacity="0"></use></g></g><g><use xlink:href="#a1IJvguo1" opacity="1" fill="#eac2ad" fill-opacity="1"></use><g><use xlink:href="#a1IJvguo1" opacity="1" fill-opacity="0" stroke="#000000" stroke-width="1" stroke-opacity="0"></use></g></g><g><use xlink:href="#a1MUbn7e7B" opacity="1" fill="#407bff" fill-opacity="1"></use><g><use xlink:href="#a1MUbn7e7B" opacity="1" fill-opacity="0" stroke="#000000" stroke-width="1" stroke-opacity="0"></use></g></g><g><use xlink:href="#dE056TfzK" opacity="1" fill="#407bff" fill-opacity="1"></use><g><use xlink:href="#dE056TfzK" opacity="1" fill-opacity="0" stroke="#000000" stroke-width="1" stroke-opacity="0"></use></g></g><g><use xlink:href="#cbsYInRo2" opacity="1" fill="#407bff" fill-opacity="1"></use><g><use xlink:href="#cbsYInRo2" opacity="1" fill-opacity="0" stroke="#000000" stroke-width="1" stroke-opacity="0"></use></g></g><g><use xlink:href="#e1hULToTP" opacity="1" fill="#407bff" fill-opacity="1"></use><g><use xlink:href="#e1hULToTP" opacity="1" fill-opacity="0" stroke="#000000" stroke-width="1" stroke-opacity="0"></use></g></g><g><use xlink:href="#acgD1DwIO" opacity="1" fill="#eac2ad" fill-opacity="1"></use><g><use xlink:href="#acgD1DwIO" opacity="1" fill-opacity="0" stroke="#000000" stroke-width="1" stroke-opacity="0"></use></g></g><g><use xlink:href="#e3WOsQpzC" opacity="1" fill="#eac2ad" fill-opacity="1"></use><g><use xlink:href="#e3WOsQpzC" opacity="1" fill-opacity="0" stroke="#000000" stroke-width="1" stroke-opacity="0"></use></g></g><g><use xlink:href="#cZx1dC62B" opacity="1" fill="#407bff" fill-opacity="1"></use><g><use xlink:href="#cZx1dC62B" opacity="1" fill-opacity="0" stroke="#000000" stroke-width="1" stroke-opacity="0"></use></g></g><g><use xlink:href="#g1VRVmwwB" opacity="1" fill="#407bff" fill-opacity="1"></use><g><use xlink:href="#g1VRVmwwB" opacity="1" fill-opacity="0" stroke="#000000" stroke-width="1" stroke-opacity="0"></use></g></g><g><use xlink:href="#eNw3j0CPC" opacity="1" fill="#407bff" fill-opacity="1"></use><g><use xlink:href="#eNw3j0CPC" opacity="1" fill-opacity="0" stroke="#000000" stroke-width="1" stroke-opacity="0"></use></g></g><g><use xlink:href="#dad74zwuP" opacity="1" fill="#000000" fill-opacity="1"></use><g><use xlink:href="#dad74zwuP" opacity="1" fill-opacity="0" stroke="#000000" stroke-width="1" stroke-opacity="0"></use></g></g><g><use xlink:href="#b4Qcfdp7N8" opacity="1" fill="#407bff" fill-opacity="1"></use><g><use xlink:href="#b4Qcfdp7N8" opacity="1" fill-opacity="0" stroke="#000000" stroke-width="1" stroke-opacity="0"></use></g></g><g><use xlink:href="#c1kPjkzUz5" opacity="1" fill="#000000" fill-opacity="1"></use><g><use xlink:href="#c1kPjkzUz5" opacity="1" fill-opacity="0" stroke="#000000" stroke-width="1" stroke-opacity="0"></use></g></g><g><use xlink:href="#d7n8yI4kvY" opacity="1" fill="#407bff" fill-opacity="1"></use><g><use xlink:href="#d7n8yI4kvY" opacity="1" fill-opacity="0" stroke="#000000" stroke-width="1" stroke-opacity="0"></use></g></g><g><use xlink:href="#i5ku3dunxT" opacity="1" fill="#000000" fill-opacity="1"></use><g><use xlink:href="#i5ku3dunxT" opacity="1" fill-opacity="0" stroke="#000000" stroke-width="1" stroke-opacity="0"></use></g></g><g><use xlink:href="#ic8T6BfSA" opacity="1" fill="#407bff" fill-opacity="1"></use><g><use xlink:href="#ic8T6BfSA" opacity="1" fill-opacity="0" stroke="#000000" stroke-width="1" stroke-opacity="0"></use></g></g><g><use xlink:href="#apeCWPmMq" opacity="1" fill="#000000" fill-opacity="1"></use><g><use xlink:href="#apeCWPmMq" opacity="1" fill-opacity="0" stroke="#000000" stroke-width="1" stroke-opacity="0"></use></g></g><g><use xlink:href="#e44qkiDnHN" opacity="1" fill="#407bff" fill-opacity="1"></use><g><use xlink:href="#e44qkiDnHN" opacity="1" fill-opacity="0" stroke="#000000" stroke-width="1" stroke-opacity="0"></use></g></g><g><use xlink:href="#b4RZEXFQG5" opacity="1" fill="#000000" fill-opacity="1"></use><g><use xlink:href="#b4RZEXFQG5" opacity="1" fill-opacity="0" stroke="#000000" stroke-width="1" stroke-opacity="0"></use></g></g><g><use xlink:href="#a1C9tr5SVU" opacity="1" fill="#407bff" fill-opacity="1"></use><g><use xlink:href="#a1C9tr5SVU" opacity="1" fill-opacity="0" stroke="#000000" stroke-width="1" stroke-opacity="0"></use></g></g><g><use xlink:href="#bDfalFZIa" opacity="1" fill="#ffffff" fill-opacity="1"></use><g><use xlink:href="#bDfalFZIa" opacity="1" fill-opacity="0" stroke="#000000" stroke-width="1" stroke-opacity="0"></use></g></g><g><use xlink:href="#d112MTLpL" opacity="1" fill="#407bff" fill-opacity="1"></use><g><use xlink:href="#d112MTLpL" opacity="1" fill-opacity="0" stroke="#000000" stroke-width="1" stroke-opacity="0"></use></g></g><g><use xlink:href="#afMBOPZnT" opacity="1" fill="#ffffff" fill-opacity="1"></use><g><use xlink:href="#afMBOPZnT" opacity="1" fill-opacity="0" stroke="#000000" stroke-width="1" stroke-opacity="0"></use></g></g><g><use xlink:href="#eCnlGcPyQ" opacity="1" fill="#407bff" fill-opacity="1"></use><g><use xlink:href="#eCnlGcPyQ" opacity="1" fill-opacity="0" stroke="#000000" stroke-width="1" stroke-opacity="0"></use></g></g><g><use xlink:href="#d2xLZE2biL" opacity="1" fill="#000000" fill-opacity="1"></use><g><use xlink:href="#d2xLZE2biL" opacity="1" fill-opacity="0" stroke="#000000" stroke-width="1" stroke-opacity="0"></use></g></g><g><use xlink:href="#d3kgh8mNLw" opacity="1" fill="#407bff" fill-opacity="1"></use><g><use xlink:href="#d3kgh8mNLw" opacity="1" fill-opacity="0" stroke="#000000" stroke-width="1" stroke-opacity="0"></use></g></g><g><use xlink:href="#f1FlRAxkkx" opacity="1" fill="#000000" fill-opacity="1"></use><g><use xlink:href="#f1FlRAxkkx" opacity="1" fill-opacity="0" stroke="#000000" stroke-width="1" stroke-opacity="0"></use></g></g><g><use xlink:href="#b6J3FEooi" opacity="1" fill="#407bff" fill-opacity="1"></use><g><use xlink:href="#b6J3FEooi" opacity="1" fill-opacity="0" stroke="#000000" stroke-width="1" stroke-opacity="0"></use></g></g><g><use xlink:href="#e3GA2Sfha" opacity="1" fill="#407bff" fill-opacity="1"></use><g><use xlink:href="#e3GA2Sfha" opacity="1" fill-opacity="0" stroke="#000000" stroke-width="1" stroke-opacity="0"></use></g></g><g><use xlink:href="#b1Bs2MR3F0" opacity="1" fill="#000000" fill-opacity="1"></use><g><use xlink:href="#b1Bs2MR3F0" opacity="1" fill-opacity="0" stroke="#000000" stroke-width="1" stroke-opacity="0"></use></g></g><g><use xlink:href="#c2Pzt4SgBl" opacity="1" fill="#407bff" fill-opacity="1"></use><g><use xlink:href="#c2Pzt4SgBl" opacity="1" fill-opacity="0" stroke="#000000" stroke-width="1" stroke-opacity="0"></use></g></g><g><use xlink:href="#b3N7GFZwd" opacity="1" fill="#000000" fill-opacity="1"></use><g><use xlink:href="#b3N7GFZwd" opacity="1" fill-opacity="0" stroke="#000000" stroke-width="1" stroke-opacity="0"></use></g></g><g><use xlink:href="#gF8nGBlFj" opacity="1" fill="#407bff" fill-opacity="1"></use><g><use xlink:href="#gF8nGBlFj" opacity="1" fill-opacity="0" stroke="#000000" stroke-width="1" stroke-opacity="0"></use></g></g><g><use xlink:href="#a48mosfYVV" opacity="1" fill="#407bff" fill-opacity="1"></use><g><use xlink:href="#a48mosfYVV" opacity="1" fill-opacity="0" stroke="#000000" stroke-width="1" stroke-opacity="0"></use></g></g><g><use xlink:href="#bvEzAsKmS" opacity="1" fill="#407bff" fill-opacity="1"></use><g><use xlink:href="#bvEzAsKmS" opacity="1" fill-opacity="0" stroke="#000000" stroke-width="1" stroke-opacity="0"></use></g></g><g><use xlink:href="#afIadFTfc" opacity="1" fill="#f5f5f5" fill-opacity="1"></use><g><use xlink:href="#afIadFTfc" opacity="1" fill-opacity="0" stroke="#000000" stroke-width="1" stroke-opacity="0"></use></g></g><g><use xlink:href="#afA4TF3nq" opacity="1" fill="#407bff" fill-opacity="1"></use><g><use xlink:href="#afA4TF3nq" opacity="1" fill-opacity="0" stroke="#000000" stroke-width="1" stroke-opacity="0"></use></g></g><g><use xlink:href="#b5CMvo4u4I" opacity="1" fill="#000000" fill-opacity="1"></use><g><use xlink:href="#b5CMvo4u4I" opacity="1" fill-opacity="0" stroke="#000000" stroke-width="1" stroke-opacity="0"></use></g></g><g><use xlink:href="#dgAQp538I" opacity="1" fill="#263238" fill-opacity="1"></use><g><use xlink:href="#dgAQp538I" opacity="1" fill-opacity="0" stroke="#000000" stroke-width="1" stroke-opacity="0"></use></g></g><g><use xlink:href="#h8HIRI7o0U" opacity="1" fill="#407bff" fill-opacity="1"></use><g><use xlink:href="#h8HIRI7o0U" opacity="1" fill-opacity="0" stroke="#000000" stroke-width="1" stroke-opacity="0"></use></g></g><g><use xlink:href="#a5bSDhvVy" opacity="1" fill="#407bff" fill-opacity="1"></use><g><use xlink:href="#a5bSDhvVy" opacity="1" fill-opacity="0" stroke="#000000" stroke-width="1" stroke-opacity="0"></use></g></g><g><use xlink:href="#h136eP7LCT" opacity="1" fill="#407bff" fill-opacity="1"></use><g><use xlink:href="#h136eP7LCT" opacity="1" fill-opacity="0" stroke="#000000" stroke-width="1" stroke-opacity="0"></use></g></g><g><use xlink:href="#cBthqZpwr" opacity="1" fill="#407bff" fill-opacity="1"></use><g><use xlink:href="#cBthqZpwr" opacity="1" fill-opacity="0" stroke="#000000" stroke-width="1" stroke-opacity="0"></use></g></g><g><use xlink:href="#dhtXRo6t2" opacity="1" fill="#407bff" fill-opacity="1"></use><g><use xlink:href="#dhtXRo6t2" opacity="1" fill-opacity="0" stroke="#000000" stroke-width="1" stroke-opacity="0"></use></g></g><g><use xlink:href="#a2EO3WJtTT" opacity="1" fill="#407bff" fill-opacity="1"></use><g><use xlink:href="#a2EO3WJtTT" opacity="1" fill-opacity="0" stroke="#000000" stroke-width="1" stroke-opacity="0"></use></g></g><g><use xlink:href="#awUMn9lRq" opacity="1" fill="#407bff" fill-opacity="1"></use><g><use xlink:href="#awUMn9lRq" opacity="1" fill-opacity="0" stroke="#000000" stroke-width="1" stroke-opacity="0"></use></g></g><g><use xlink:href="#dXq6veyul" opacity="1" fill="#407bff" fill-opacity="1"></use><g><use xlink:href="#dXq6veyul" opacity="1" fill-opacity="0" stroke="#000000" stroke-width="1" stroke-opacity="0"></use></g></g><g><use xlink:href="#b8i3aKlJG" opacity="1" fill="#407bff" fill-opacity="1"></use><g><use xlink:href="#b8i3aKlJG" opacity="1" fill-opacity="0" stroke="#000000" stroke-width="1" stroke-opacity="0"></use></g></g><g><use xlink:href="#hTWOP062d" opacity="1" fill="#407bff" fill-opacity="1"></use><g><use xlink:href="#hTWOP062d" opacity="1" fill-opacity="0" stroke="#000000" stroke-width="1" stroke-opacity="0"></use></g></g><g><use xlink:href="#i1922pAZwi" opacity="1" fill="#407bff" fill-opacity="1"></use><g><use xlink:href="#i1922pAZwi" opacity="1" fill-opacity="0" stroke="#000000" stroke-width="1" stroke-opacity="0"></use></g></g><g><use xlink:href="#cQVvMwB6T" opacity="1" fill="#407bff" fill-opacity="1"></use><g><use xlink:href="#cQVvMwB6T" opacity="1" fill-opacity="0" stroke="#000000" stroke-width="1" stroke-opacity="0"></use></g></g><g><use xlink:href="#ayz1pylfx" opacity="1" fill="#407bff" fill-opacity="1"></use><g><use xlink:href="#ayz1pylfx" opacity="1" fill-opacity="0" stroke="#000000" stroke-width="1" stroke-opacity="0"></use></g></g><g><use xlink:href="#auz3TCR2o" opacity="1" fill="#407bff" fill-opacity="1"></use><g><use xlink:href="#auz3TCR2o" opacity="1" fill-opacity="0" stroke="#000000" stroke-width="1" stroke-opacity="0"></use></g></g><g><use xlink:href="#e5FyTPzRGt" opacity="1" fill="#ffffff" fill-opacity="1"></use><g><use xlink:href="#e5FyTPzRGt" opacity="1" fill-opacity="0" stroke="#000000" stroke-width="1" stroke-opacity="0"></use></g></g><g><use xlink:href="#ajo9WXV59" opacity="1" fill="#ffffff" fill-opacity="1"></use><g><use xlink:href="#ajo9WXV59" opacity="1" fill-opacity="0" stroke="#000000" stroke-width="1" stroke-opacity="0"></use></g></g><g><use xlink:href="#c107BMNuvD" opacity="1" fill="#ffffff" fill-opacity="1"></use><g><use xlink:href="#c107BMNuvD" opacity="1" fill-opacity="0" stroke="#000000" stroke-width="1" stroke-opacity="0"></use></g></g><g><use xlink:href="#c95jnMYG6" opacity="1" fill="#407bff" fill-opacity="1"></use><g><use xlink:href="#c95jnMYG6" opacity="1" fill-opacity="0" stroke="#000000" stroke-width="1" stroke-opacity="0"></use></g></g><g><use xlink:href="#a2mp0y37nu" opacity="1" fill="#ffffff" fill-opacity="1"></use><g><use xlink:href="#a2mp0y37nu" opacity="1" fill-opacity="0" stroke="#000000" stroke-width="1" stroke-opacity="0"></use></g></g><g><use xlink:href="#a2tD4bF2lp" opacity="1" fill="#ffffff" fill-opacity="1"></use><g><use xlink:href="#a2tD4bF2lp" opacity="1" fill-opacity="0" stroke="#000000" stroke-width="1" stroke-opacity="0"></use></g></g><g><use xlink:href="#e1fuxebzCU" opacity="1" fill="#407bff" fill-opacity="1"></use><g><use xlink:href="#e1fuxebzCU" opacity="1" fill-opacity="0" stroke="#000000" stroke-width="1" stroke-opacity="0"></use></g></g><g><use xlink:href="#afh4zqtqx" opacity="1" fill="#407bff" fill-opacity="1"></use><g><use xlink:href="#afh4zqtqx" opacity="1" fill-opacity="0" stroke="#000000" stroke-width="1" stroke-opacity="0"></use></g></g><g><use xlink:href="#a4DlMcTQP" opacity="1" fill="#407bff" fill-opacity="1"></use><g><use xlink:href="#a4DlMcTQP" opacity="1" fill-opacity="0" stroke="#000000" stroke-width="1" stroke-opacity="0"></use></g></g><g><use xlink:href="#bfVHPRjgn" opacity="1" fill="#407bff" fill-opacity="1"></use><g><use xlink:href="#bfVHPRjgn" opacity="1" fill-opacity="0" stroke="#000000" stroke-width="1" stroke-opacity="0"></use></g></g><g><use xlink:href="#ctxGdbXSA" opacity="1" fill="#000000" fill-opacity="1"></use><g><use xlink:href="#ctxGdbXSA" opacity="1" fill-opacity="0" stroke="#000000" stroke-width="1" stroke-opacity="0"></use></g></g><g><use xlink:href="#a1J7HfbjTK" opacity="1" fill="#000000" fill-opacity="1"></use><g><use xlink:href="#a1J7HfbjTK" opacity="1" fill-opacity="0" stroke="#000000" stroke-width="1" stroke-opacity="0"></use></g></g><g><use xlink:href="#c1gIWv87oF" opacity="1" fill="#000000" fill-opacity="1"></use><g><use xlink:href="#c1gIWv87oF" opacity="1" fill-opacity="0" stroke="#000000" stroke-width="1" stroke-opacity="0"></use></g></g><g><use xlink:href="#b16Sch7gjf" opacity="1" fill="#000000" fill-opacity="1"></use></g></g></g></svg>