<svg width="640" height="640" viewBox="0 0 640 640" fill="none" xmlns="http://www.w3.org/2000/svg">
<path d="M206.3 464.05C206.3 464.05 376.22 497.33 452.75 490.84C529.28 484.35 580.94 432.64 579.84 366.46C578.74 300.29 517.94 290.09 475.28 221.08C432.61 152.08 431.71 127.4 358.4 92.16C285.09 56.92 185.24 100.61 142.59 186.66C99.94 272.72 115.6 339.89 115.6 339.89C133.74 364.72 130.53 420.39 206.3 464.05Z" fill="#92E3A9"/>
<path d="M206.3 464.05C206.3 464.05 376.22 497.33 452.75 490.84C529.28 484.35 580.94 432.64 579.84 366.46C578.74 300.29 517.94 290.09 475.28 221.08C432.61 152.08 431.71 127.4 358.4 92.16C285.09 56.92 185.24 100.61 142.59 186.66C99.94 272.72 115.6 339.89 115.6 339.89C133.74 364.72 130.53 420.39 206.3 464.05Z" fill="white"/>
<path d="M494.95 557.8C494.95 565.73 406.02 572.16 296.32 572.16C186.62 572.16 97.69 565.73 97.69 557.8C97.69 549.87 186.62 543.44 296.32 543.44C406.02 543.44 494.95 549.87 494.95 557.8Z" fill="#92E3A9"/>
<path d="M494.95 557.8C494.95 565.73 406.02 572.16 296.32 572.16C186.62 572.16 97.69 565.73 97.69 557.8C97.69 549.87 186.62 543.44 296.32 543.44C406.02 543.44 494.95 549.87 494.95 557.8Z" fill="#F5F5F5"/>
<path d="M547.9 98.53C556.44 98.53 560.7 102.8 560.7 111.33C560.7 348.15 560.7 479.71 560.7 506.02C560.7 514.56 556.44 518.82 547.9 518.82C368.44 518.82 268.73 518.82 248.79 518.82C240.26 518.82 235.99 514.56 235.99 506.02C235.99 269.21 235.99 137.65 235.99 111.33C235.99 102.8 240.26 98.53 248.79 98.53C428.26 98.53 527.96 98.53 547.9 98.53Z" stroke="#263238" stroke-width="1.02"/>
<path d="M372.26 213.41V214.72H370.96" stroke="#263238" stroke-width="1.02"/>
<path d="M368.37 214.72H292.22" stroke="#263238" stroke-width="1.02"/>
<path d="M290.93 214.72H289.61V213.41" stroke="#263238" stroke-width="1.02"/>
<path d="M289.61 210.89V151.67" stroke="#263238" stroke-width="1.02"/>
<path d="M289.61 150.4V149.09H290.93" stroke="#263238" stroke-width="1.02"/>
<path d="M293.5 149.09H369.66" stroke="#263238" stroke-width="1.02"/>
<path d="M370.96 149.09H372.26V150.4" stroke="#263238" stroke-width="1.02"/>
<path d="M372.26 152.92V212.16" stroke="#263238" stroke-width="1.02"/>
<path d="M358.89 159.99C358.89 186.79 358.89 201.68 358.89 204.66C325.13 204.66 306.38 204.66 302.63 204.66C302.63 177.86 302.63 162.97 302.63 159.99C336.38 159.99 355.14 159.99 358.89 159.99Z" fill="#E6E6E6"/>
<path d="M358.89 159.99C358.89 186.79 358.89 201.68 358.89 204.66C325.13 204.66 306.38 204.66 302.63 204.66C302.63 177.86 302.63 162.97 302.63 159.99C336.38 159.99 355.14 159.99 358.89 159.99Z" stroke="#263238" stroke-width="1.02"/>
<path d="M299.51 156.26L280.2 141.38" stroke="#263238" stroke-width="1.02"/>
<path d="M362.93 206.45L379.48 220.79" stroke="#263238" stroke-width="1.02"/>
<path d="M279.44 146.28L278.87 139.94H285.49" stroke="#263238" stroke-width="1.02"/>
<path d="M379.93 214.8L381.07 221.71L373.02 222" stroke="#263238" stroke-width="1.02"/>
<path d="M428.74 383.18C428.74 389.09 428.74 392.38 428.74 393.04C412.35 393.04 403.24 393.04 401.42 393.04C401.42 387.12 401.42 383.84 401.42 383.18C417.81 383.18 426.91 383.18 428.74 383.18Z" fill="#263238"/>
<path d="M422.32 378V398.21L439.83 388.1L422.32 378Z" fill="#263238"/>
<path d="M381.72 315.2C387.64 315.2 390.59 318.16 390.59 324.07C390.59 407.77 390.59 454.27 390.59 463.56C390.59 469.48 387.64 472.44 381.72 472.44C344.03 472.44 323.09 472.44 318.9 472.44C312.99 472.44 310.03 469.48 310.03 463.56C310.03 379.87 310.03 333.37 310.03 324.07C310.03 318.16 312.99 315.2 318.9 315.2C356.59 315.2 377.53 315.2 381.72 315.2Z" fill="#263238"/>
<path d="M381.72 315.2C387.64 315.2 390.59 318.16 390.59 324.07C390.59 407.77 390.59 454.27 390.59 463.56C390.59 469.48 387.64 472.44 381.72 472.44C344.03 472.44 323.09 472.44 318.9 472.44C312.99 472.44 310.03 469.48 310.03 463.56C310.03 379.87 310.03 333.37 310.03 324.07C310.03 318.16 312.99 315.2 318.9 315.2C356.59 315.2 377.53 315.2 381.72 315.2Z" stroke="#263238" stroke-width="0.83"/>
<path d="M387.02 325.88C387.02 408.2 387.02 453.94 387.02 463.09C342.98 463.09 318.51 463.09 313.61 463.09C313.61 380.76 313.61 335.02 313.61 325.88C357.66 325.88 382.13 325.88 387.02 325.88Z" fill="#E6E6E6"/>
<path d="M387.02 325.88C387.02 408.2 387.02 453.94 387.02 463.09C342.98 463.09 318.51 463.09 313.61 463.09C313.61 380.76 313.61 335.02 313.61 325.88C357.66 325.88 382.13 325.88 387.02 325.88Z" stroke="#263238" stroke-width="0.83"/>
<path d="M373.41 494.08C376.78 481.02 378.65 473.77 379.02 472.32C379.63 469.98 379.94 467.56 379.94 465.14C379.94 462.53 379.94 441.65 379.94 439.04C380.04 438.7 380.1 438.35 380.11 438C379.95 435.58 377.87 433.74 375.45 433.88C374.19 433.86 372.97 434.32 372.04 435.16C371.69 432.91 369.7 431.28 367.42 431.39C365.88 431.35 364.42 432.07 363.49 433.31C363.11 431.09 361.14 429.5 358.89 429.59C357.34 429.57 355.87 430.29 354.94 431.53C354.94 428.07 354.94 411.49 354.37 410.14C352.68 405.77 344.13 407.77 345.65 412.4C345.65 416.24 345.65 446.91 345.65 450.74C345.65 448.05 343.65 444.51 342.82 441.89C341.99 439.28 341.54 436.77 339.96 434.6C337.32 430.84 332.67 432.91 332.94 436.83C333.16 440.27 335.65 442.98 337 446.11C339.48 451.87 338 457.89 340.34 463.68C342.28 467.35 344.45 470.9 346.82 474.3C348.09 476.54 349.1 478.92 349.82 481.4C349.68 482.24 348.95 486.47 347.65 494.08" fill="white"/>
<path d="M373.41 494.08C376.78 481.02 378.65 473.77 379.02 472.32C379.63 469.98 379.94 467.56 379.94 465.14C379.94 462.53 379.94 441.65 379.94 439.04C380.04 438.7 380.1 438.35 380.11 438C379.95 435.58 377.87 433.74 375.45 433.88C374.19 433.86 372.97 434.32 372.04 435.16C371.69 432.91 369.7 431.28 367.42 431.39C365.88 431.35 364.42 432.07 363.49 433.31C363.11 431.09 361.14 429.5 358.89 429.59C357.34 429.57 355.87 430.29 354.94 431.53C354.94 428.07 354.94 411.49 354.37 410.14C352.68 405.77 344.13 407.77 345.65 412.4C345.65 416.24 345.65 446.91 345.65 450.74C345.65 448.05 343.65 444.51 342.82 441.89C341.99 439.28 341.54 436.77 339.96 434.6C337.32 430.84 332.67 432.91 332.94 436.83C333.16 440.27 335.65 442.98 337 446.11C339.48 451.87 338 457.89 340.34 463.68C342.28 467.35 344.45 470.9 346.82 474.3C348.09 476.54 349.1 478.92 349.82 481.4C349.68 482.24 348.95 486.47 347.65 494.08" stroke="#263238" stroke-width="1.02"/>
<path d="M350.37 396.93V404.1" stroke="#263238" stroke-width="1.02"/>
<path d="M358.44 410.8H364.26" stroke="#263238" stroke-width="1.02"/>
<path d="M334.26 410.8H340.08" stroke="#263238" stroke-width="1.02"/>
<path d="M342.32 403.2L344.56 406.77" stroke="#263238" stroke-width="1.02"/>
<path d="M355.75 407.22L358.89 403.2" stroke="#263238" stroke-width="1.02"/>
<path d="M384.41 379.02C384.41 384.13 384.41 386.97 384.41 387.53C343.58 387.53 320.89 387.53 316.35 387.53C316.35 382.43 316.35 379.59 316.35 379.02C357.19 379.02 379.87 379.02 384.41 379.02Z" stroke="#263238" stroke-width="1.02"/>
<path d="M351.28 333.35C351.28 356.72 351.28 369.7 351.28 372.3C331.67 372.3 320.77 372.3 318.59 372.3C318.59 348.93 318.59 335.95 318.59 333.35C338.21 333.35 349.1 333.35 351.28 333.35Z" stroke="#263238" stroke-width="1.02"/>
<path d="M318.59 333.35L351.27 372.3" stroke="#263238" stroke-width="1.02"/>
<path d="M317.7 447.53V392H383.96V447.08" stroke="#263238" stroke-width="1.02"/>
<path d="M517.21 315.2C523.12 315.2 526.08 318.16 526.08 324.07C526.08 407.77 526.08 454.27 526.08 463.56C526.08 469.48 523.12 472.44 517.21 472.44C479.52 472.44 458.58 472.44 454.39 472.44C448.47 472.44 445.52 469.48 445.52 463.56C445.52 379.87 445.52 333.37 445.52 324.07C445.52 318.16 448.47 315.2 454.39 315.2C492.08 315.2 513.02 315.2 517.21 315.2Z" fill="#263238"/>
<path d="M517.21 315.2C523.12 315.2 526.08 318.16 526.08 324.07C526.08 407.77 526.08 454.27 526.08 463.56C526.08 469.48 523.12 472.44 517.21 472.44C479.52 472.44 458.58 472.44 454.39 472.44C448.47 472.44 445.52 469.48 445.52 463.56C445.52 379.87 445.52 333.37 445.52 324.07C445.52 318.16 448.47 315.2 454.39 315.2C492.08 315.2 513.02 315.2 517.21 315.2Z" stroke="#263238" stroke-width="0.83"/>
<path d="M522.51 325.88C522.51 408.2 522.51 453.94 522.51 463.09C478.46 463.09 453.99 463.09 449.1 463.09C449.1 380.76 449.1 335.02 449.1 325.88C493.15 325.88 517.61 325.88 522.51 325.88Z" fill="white"/>
<path d="M522.51 325.88C522.51 408.2 522.51 453.94 522.51 463.09C478.46 463.09 453.99 463.09 449.1 463.09C449.1 380.76 449.1 335.02 449.1 325.88C493.15 325.88 517.61 325.88 522.51 325.88Z" stroke="#263238" stroke-width="0.83"/>
<path d="M519.18 332.45C519.18 375.98 519.18 400.16 519.18 404.99C479.42 404.99 457.33 404.99 452.92 404.99C452.92 361.47 452.92 337.29 452.92 332.45C492.67 332.45 514.76 332.45 519.18 332.45Z" stroke="#263238" stroke-width="1.02"/>
<path d="M452.92 411.7H519.18" stroke="#263238" stroke-width="1.02"/>
<path d="M452.92 417.08H519.18" stroke="#263238" stroke-width="1.02"/>
<path d="M452.92 422.45H519.18" stroke="#263238" stroke-width="1.02"/>
<path d="M452.92 427.83H519.18" stroke="#263238" stroke-width="1.02"/>
<path d="M452.92 433.19H519.18" stroke="#263238" stroke-width="1.02"/>
<path d="M452.92 438.57H519.18" stroke="#263238" stroke-width="1.02"/>
<path d="M452.92 443.94H519.18" stroke="#263238" stroke-width="1.02"/>
<path d="M452.92 404.99L519.18 332.45" stroke="#263238" stroke-width="1.02"/>
<path d="M517.21 134.71C523.12 134.71 526.08 137.66 526.08 143.58C526.08 227.27 526.08 273.77 526.08 283.07C526.08 288.99 523.12 291.94 517.21 291.94C479.52 291.94 458.58 291.94 454.39 291.94C448.47 291.94 445.52 288.99 445.52 283.07C445.52 199.38 445.52 152.88 445.52 143.58C445.52 137.66 448.47 134.71 454.39 134.71C492.08 134.71 513.02 134.71 517.21 134.71Z" fill="#263238"/>
<path d="M517.21 134.71C523.12 134.71 526.08 137.66 526.08 143.58C526.08 227.27 526.08 273.77 526.08 283.07C526.08 288.99 523.12 291.94 517.21 291.94C479.52 291.94 458.58 291.94 454.39 291.94C448.47 291.94 445.52 288.99 445.52 283.07C445.52 199.38 445.52 152.88 445.52 143.58C445.52 137.66 448.47 134.71 454.39 134.71C492.08 134.71 513.02 134.71 517.21 134.71Z" stroke="#263238" stroke-width="0.83"/>
<path d="M522.51 145.38C522.51 227.71 522.51 273.45 522.51 282.6C478.46 282.6 453.99 282.6 449.1 282.6C449.1 200.27 449.1 154.53 449.1 145.38C493.15 145.38 517.61 145.38 522.51 145.38Z" fill="#E6E6E6"/>
<path d="M522.51 145.38C522.51 227.71 522.51 273.45 522.51 282.6C478.46 282.6 453.99 282.6 449.1 282.6C449.1 200.27 449.1 154.53 449.1 145.38C493.15 145.38 517.61 145.38 522.51 145.38Z" stroke="#263238" stroke-width="0.83"/>
<path d="M364.35 310.52V268.7H423.19" stroke="#263238" stroke-width="1.02"/>
<path d="M432.58 268.7L421.27 262.17V275.23L432.58 268.7Z" fill="#263238"/>
<path d="M484.31 309.41V277.31" stroke="#263238" stroke-width="1.02"/>
<path d="M484.31 267.92L477.79 279.23H490.84L484.31 267.92Z" fill="#263238"/>
<path d="M453.98 486.75H483.66" stroke="#263238" stroke-width="1.02"/>
<path d="M453.98 493.43H483.66" stroke="#263238" stroke-width="1.02"/>
<path d="M453.98 500.1H483.66" stroke="#263238" stroke-width="1.02"/>
<path d="M382 486.75H411.69" stroke="#263238" stroke-width="1.02"/>
<path d="M382 493.43H411.69" stroke="#263238" stroke-width="1.02"/>
<path d="M382 500.1H411.69" stroke="#263238" stroke-width="1.02"/>
<path d="M373.84 281.95H403.52" stroke="#263238" stroke-width="1.02"/>
<path d="M373.84 288.61H403.52" stroke="#263238" stroke-width="1.02"/>
<path d="M373.84 295.3H403.52" stroke="#263238" stroke-width="1.02"/>
<path d="M396.1 201.06H425.78" stroke="#263238" stroke-width="1.02"/>
<path d="M396.1 207.74H425.78" stroke="#263238" stroke-width="1.02"/>
<path d="M396.1 214.41H425.78" stroke="#263238" stroke-width="1.02"/>
<path d="M289.24 224.06H318.92" stroke="#263238" stroke-width="1.02"/>
<path d="M289.24 230.75H318.92" stroke="#263238" stroke-width="1.02"/>
<path d="M289.24 237.41H318.92" stroke="#263238" stroke-width="1.02"/>
</svg>
